<?xml version="1.0" encoding="utf-8"?>
<?xml-stylesheet type="text/css" href="stylin.css" ?>    

<!-- Generator: Adobe Illustrator 21.0.0, SVG Export Plug-In . SVG Version: 6.00 Build 0)  -->
<svg version="1.1" id="Layer_1" xmlns="http://www.w3.org/2000/svg" xmlns:xlink="http://www.w3.org/1999/xlink" x="0px" y="0px"
	 viewBox="0 0 594.4 491" style="enable-background:new 0 0 594.4 491;" xml:space="preserve">
<style type="text/css">
	.st0{fill:#8EBFBE;}
	.st1{fill:#FFFFFF;}
	.st2{fill:#90B7DC;}
	.st3{fill:#6B6B6B;}
	.st4{fill:#6D6D6D;}
	.st5{fill:#657079;}
	.st6{fill:#A1A7AE;}
	.st7{fill:#303641;}
	.st8{fill:#4E555C;}
	.st9{fill:#797F81;}
	.st10{fill:#CFE0EC;}
	.st11{fill:#985C58;}
	.st12{fill:#6C7072;}
	.st13{fill:#CB7773;}
	.st14{fill:#9A9A95;}
	.st15{fill:#724642;}
	.st16{fill:#AAB668;}
	.st17{fill:#444442;}
	.st18{fill:#7C7C7A;}
	.st19{fill:#686866;}
	.st20{fill:#868684;}
	.st21{fill:#F4F2EF;}
	.st22{fill:#555553;}
	.st23{fill:#454947;}
	.st24{fill:#567A9E;}
	.st25{fill:#4F7FB7;}
	.st26{fill:#3D4B5E;}
	.st27{fill:#252D38;}
	.st28{fill:#6195CF;}
	.st29{fill:#343F4F;}
	.st30{fill:#538B51;}
	.st31{fill:#A1A4A7;}
	.st32{fill:#60A25E;}
	.st33{fill:#70AE67;}
	.st34{fill:#BDC0C5;}
	.st35{fill:#E6C332;}
	.st36{fill:#CBCBCB;}
	.st37{fill:#437042;}
	.st38{fill:#2D3641;}
	.st39{fill:#DE9B2A;}
	.st40{fill:#57803A;}
	.st41{fill:#DCD7CA;}
	.st42{fill:none;stroke:#DCD7CA;}
	.st43{fill:#A3BDD6;}
	.st44{fill:#C9D6E5;}
	.st45{fill:#E2E2EC;}
	.st46{fill:#65A964;}
	.st47{fill:#EDEFF2;}
	.st48{fill:#61A25E;}
	.st49{fill:#456B96;}
	.st50{fill:#828B8B;}
	.st51{fill:#BA5716;}
	.st52{fill:#507FB4;}
	.st53{fill:#9EA2A6;}
	.st54{fill:#E2AF2E;}
	.st55{fill:#7F8186;}
	.st56{fill:#1D222B;}
	.st57{fill:#98A4A4;}
	.st58{fill:#746859;}
	.st59{fill:#5C4E43;}
	.st60{fill:#CF5F5D;}
	.st61{fill:#D98985;}
	.st62{fill:#848688;}
	.st63{fill:#A1D0EC;}
</style>
<rect y="-6.9" class="st0" width="594.4" height="498"/>
<path class="st1" d="M4.6,209.3h9.3c2,0-1.3,4.7,7.3,6.7c8.7,2,12.6,0,16,0s45.9-2.9,45.9-2.9h10.3c0,0,3.7-1.1,8.4,5.5
	s4.7,11.3,7.3,11.6c2.7,0.3,9.7,0,14.6,0c4.9,0,6.7-2.3,8.7,3.3c2,5.7,1,9,5.3,9h18.6h16h15.3h14c0,0,6.7-0.7,6.7,4.3s3.3,26,3.3,26
	s2,10.1,4,10.1s4.7,14.2,9.3,14.2s22,4,22,4s8,1.7,12.6,5.3c4.7,3.7,8.7,6.7,8.7,11.3s-0.7,9,3.9,9s27.3,2.3,27.3,2.3l14.3,2.7
	c0,0,4.7-0.7,4.7,4s-4.3,29.8-1.7,30.5c2.7,0.7,17.6-0.3,17.6-0.3s5.2,0.3,14.8,0.3c9.6,0,30.2,1.5,34.9,1.5h28.6h22.7
	c0,0,12,4.6,16.6,23.4c3.3,8.7,6.8,6.8,9.3,8.7c2.6,1.9,11.5,2.3,16.8,0c5.2-2.3,40.5-5.6,51.8-4.9s24.6,3.6,26.6,6.5
	c2,2.8,9.3,8.2,14,8.8c4.7,0.7,24,0,24,0v11c0,0-21.6-0.3-23.8-0.7c-2.2-0.3-13.5-3.3-18-8.2c-4.8-5.8-4.8-8.8-8.8-10.2
	c-4-1.3-11.8-2.4-16.1-2.4s-17.1,0.2-23.1,0.7s-17.4,1.2-22,3.2c-4.5,2-13.2,6.8-16,6.2c-2.8-0.7-10.5,0.2-15.1-7.2
	c-4.7-7.3-19.5-14.6-23.8-20.3s-8-7.3-14.5-7.5s-60.6,0-60.6,0s-5.5-0.5-14.4-0.8c-4.9,0-25.9,4.1-27.4,2.9
	c-9.3,0.2-3.9-33.8-3.9-37.3c-0.9-1-31-3.7-31-3.7l-12.8-0.8c0,0-6.3-0.3-5-12.8c0-4.2-5.3-10.2-14.8-13.5s-22.8-4.8-26-7.7
	c-3.2-2.8-13.1-22.3-13-23.3c0.2,0-3.8-25-3.8-25s2.7-1.8-12-1.7c-14.6,0.2-53.2,3.3-57.9,1s-3.3-3.8-3.8-6.5s1.7-5.2-1.7-6.3
	c-3.4-1.1-9-0.8-14.8-0.3s-11.6-0.2-13.8-6.2s-10.6-11.5-15.8-12s-54.2,4-54.2,4s-7.7,0.7-10.2-2.2c-2.5-2.8-6.8-8.2-8.7-8.7
	C5.8,214,4.6,209.3,4.6,209.3"/>
<path class="st2" d="M309.6,217.8c0,3.4-2.8,6.2-6.2,6.2h-27.2c-3.4,0-6.2-2.8-6.2-6.2s2.8-6.2,6.2-6.2h27.2
	C306.8,211.6,309.6,214.3,309.6,217.8"/>
<rect x="430.2" y="380.7" transform="matrix(0.5949 -0.8038 0.8038 0.5949 -137.328 504.6317)" class="st3" width="3.6" height="15.7"/>
<rect x="437.8" y="392.4" transform="matrix(0.5953 -0.8035 0.8035 0.5953 -138.405 510.8838)" class="st1" width="0.4" height="0.9"/>
<path class="st1" d="M429.4,386.9l-1.6-1.2l0.2-0.3l1.6,1.2L429.4,386.9z M432.6,389.2L431,388l0.2-0.3l1.6,1.2L432.6,389.2z
	 M435.8,391.6l-1.6-1.2l0.2-0.3l1.6,1.2L435.8,391.6z"/>
<rect x="417.8" y="371.5" transform="matrix(0.5949 -0.8038 0.8038 0.5949 -134.9603 490.95)" class="st3" width="3.6" height="15.7"/>
<rect x="425.3" y="383.2" transform="matrix(0.5947 -0.8039 0.8039 0.5947 -135.9436 497.5877)" class="st1" width="0.4" height="0.9"/>
<path class="st1" d="M417.1,377.8l-1.6-1.2l0.2-0.3l1.6,1.2L417.1,377.8z M420.3,380.1l-1.6-1.2l0.2-0.3l1.6,1.2L420.3,380.1z
	 M423.4,382.5l-1.6-1.2l0.2-0.3l1.6,1.2L423.4,382.5z"/>
<path class="st4" d="M385.1,364.7l-0.1,2.5v0.7c0,0.2,0,0.6,0,0.9c0,0.7,0.2,1.3,0.4,1.9c0.5,1.2,1.5,2.2,2.7,2.8
	c0.6,0.3,1.2,0.5,1.9,0.5l1.4,0.1l2.7,0.2l6,0.4l-0.9-3.7l-4.8-0.3l-2.7-0.2l-1.4-0.1c-0.2,0-0.5-0.1-0.7-0.2
	c-0.4-0.2-0.8-0.6-0.9-1c-0.1-0.2-0.1-0.4-0.2-0.7c0-0.1,0-0.7,0.1-1.1l-0.1-3.5L385.1,364.7z"/>
<rect x="398.8" y="372.3" transform="matrix(7.879220e-02 -0.9969 0.9969 7.879220e-02 -4.0529 741.1931)" class="st1" width="0.4" height="0.9"/>
<path class="st1" d="M395,372.4l1.8,0.1v0.4l-1.8-0.1V372.4z M391.4,372.1l1.8,0.1v0.4l-1.8-0.1V372.1z M388.2,371.2
	c0.4,0.4,1,0.6,1.5,0.7l-0.1,0.3c-0.6-0.1-1.2-0.4-1.7-0.8L388.2,371.2z M386.9,368.2c0,0.6,0.1,1.1,0.3,1.7l-0.3,0.1
	c-0.2-0.6-0.4-1.2-0.3-1.8L386.9,368.2L386.9,368.2z M387.1,364.6l-0.1,1.8h-0.4l0.1-1.8H387.1z"/>
<rect x="386.7" y="362.1" transform="matrix(6.415239e-02 -0.9979 0.9979 6.415239e-02 0.7079 725.4508)" class="st1" width="0.9" height="0.4"/>
<polygon class="st3" points="413.1,376.8 398.5,374.6 399.1,371 414.4,373.3 "/>
<rect x="413.7" y="374.5" transform="matrix(0.1471 -0.9891 0.9891 0.1471 -17.9064 729.1582)" class="st1" width="0.4" height="0.9"/>
<path class="st1" d="M403.6,373.7l-2-0.3l0.1-0.3l2,0.3L403.6,373.7z M407.5,374.3l-2-0.3l0.1-0.3l2,0.3L407.5,374.3z M411.4,374.9
	l-2-0.3l0.1-0.3l2,0.3L411.4,374.9z"/>
<polygon class="st1" points="374.7,358.8 374.8,359.1 375.6,359.1 375.6,358.7 "/>
<path class="st4" d="M388.4,370l0.3-5.3V364c0-0.2,0-0.6,0-0.9c0-0.7-0.2-1.3-0.4-1.9c-0.5-1.2-1.5-2.2-2.7-2.8
	c-0.6-0.3-1.2-0.5-1.9-0.5l-1.4-0.1l-2.7-0.2l-5.3-0.4l0.2,3.7l4.8,0.4l2.7,0.2l1.3,0.1c0.2,0,0.5,0.1,0.7,0.2
	c0.4,0.2,0.8,0.6,0.9,1c0.1,0.2,0.1,0.4,0.2,0.7c0,0.1,0,0.7-0.1,1.1l-0.1,3.8L388.4,370z"/>
<rect x="374.6" y="358.4" transform="matrix(7.879220e-02 -0.9969 0.9969 7.879220e-02 -12.4491 704.223)" class="st1" width="0.4" height="0.9"/>
<path class="st1" d="M378.8,359.4l-1.8-0.1v-0.4l1.8,0.1V359.4z M382.3,359.7l-1.8-0.1v-0.4l1.8,0.1V359.7z M385.6,360.6
	c-0.4-0.4-1-0.6-1.5-0.7l0.1-0.3c0.6,0.1,1.2,0.4,1.7,0.8L385.6,360.6z M386.8,363.6c0-0.6-0.1-1.1-0.3-1.7l0.3-0.1
	c0.2,0.6,0.4,1.2,0.3,1.8L386.8,363.6z M386.6,367.2l0.1-1.8h0.4l-0.1,1.8H386.6z"/>
<rect x="299.9" y="314.4" transform="matrix(6.974012e-02 -0.9976 0.9976 6.974012e-02 -40.7759 600.7543)" class="st3" width="3.6" height="15.7"/>
<polygon class="st1" points="308.6,322.9 309.4,323 309.5,322.6 308.6,322.6 "/>
<path class="st1" d="M298.7,322.2l-2-0.1v-0.4l2,0.1V322.2z M302.6,322.5l-2-0.1V322l2,0.1V322.5z M306.5,322.8l-2-0.1v-0.4l2,0.1
	V322.8z"/>
<rect x="284.7" y="313.3" transform="matrix(6.974012e-02 -0.9976 0.9976 6.974012e-02 -53.8995 584.5182)" class="st3" width="3.6" height="15.7"/>
<polygon class="st1" points="293.4,321.8 294.3,321.9 294.3,321.5 293.4,321.5 "/>
<path class="st1" d="M283.5,321.1l-2-0.1v-0.4l2,0.1V321.1z M287.4,321.4l-2-0.1v-0.4l2,0.1V321.4z M291.4,321.7l-2-0.1v-0.4l2,0.1
	V321.7z"/>
<rect x="309.3" y="322.2" transform="matrix(7.879220e-02 -0.9969 0.9969 7.879220e-02 -36.5898 605.7448)" class="st1" width="0.4" height="0.9"/>
<path class="st4" d="M270.1,309.9l-0.3,5.3v0.7c0,0.2,0,0.6,0,0.9c0,0.7,0.2,1.3,0.4,1.9c0.5,1.2,1.5,2.2,2.7,2.8
	c0.6,0.3,1.2,0.5,1.9,0.5l1.4,0.1l2.7,0.2l5.3,0.4l0.3-3.6l-5.3-0.4l-2.7-0.2l-1.3-0.1c-0.2,0-0.5-0.1-0.7-0.2
	c-0.4-0.2-0.8-0.6-0.9-1c-0.1-0.2-0.1-0.4-0.2-0.7c0-0.1,0-0.7,0.1-1.1l0.3-5.3L270.1,309.9z"/>
<rect x="283.6" y="320.4" transform="matrix(7.870310e-02 -0.9969 0.9969 7.870310e-02 -58.4081 578.455)" class="st1" width="0.4" height="0.9"/>
<path class="st1" d="M279.8,320.5l1.8,0.1v0.4l-1.8-0.1V320.5z M276.2,320.2l1.8,0.1v0.4l-1.8-0.1V320.2z M273,319.3
	c0.4,0.4,1,0.6,1.5,0.7l-0.1,0.3c-0.6-0.1-1.2-0.4-1.7-0.8L273,319.3z M271.7,316.3c0,0.6,0.1,1.1,0.3,1.7l-0.3,0.1
	c-0.2-0.6-0.4-1.2-0.3-1.8L271.7,316.3z M271.9,312.7l-0.1,1.8h-0.4l0.1-1.8H271.9z"/>
<rect x="271.5" y="310.3" transform="matrix(6.432572e-02 -0.9979 0.9979 6.432572e-02 -55.4051 561.8448)" class="st1" width="0.9" height="0.4"/>
<path class="st4" d="M273.6,310.8l1.1-5.2l0.1-0.7c0-0.2,0.1-0.5,0.1-0.9c0.1-0.7,0-1.3-0.2-2c-0.3-1.3-1.1-2.4-2.2-3.2
	c-0.5-0.4-1.1-0.7-1.8-0.8l-1.3-0.3l-2.6-0.6l-5.2-1.2l-0.8,3.5l5.2,1.2l2.6,0.6l1.2,0.3c0.2,0.1,0.4,0.2,0.6,0.3
	c0.4,0.3,0.7,0.7,0.8,1.1c0.1,0.2,0.1,0.5,0.1,0.7c0,0.1-0.1,0.7-0.2,1.1l-1.1,5.2L273.6,310.8z"/>
<rect x="261.6" y="297.5" transform="matrix(0.2251 -0.9743 0.9743 0.2251 -87.466 485.9202)" class="st1" width="0.4" height="0.9"/>
<path class="st1" d="M265.6,299l-1.7-0.4l0.1-0.3l1.7,0.4L265.6,299z M269,299.8l-1.7-0.4l0.1-0.3l1.7,0.4L269,299.8z M272.1,301.2
	c-0.4-0.4-0.9-0.8-1.4-1l0.1-0.3c0.6,0.2,1.1,0.6,1.5,1.1L272.1,301.2z M272.9,304.4c0.1-0.6,0.1-1.1,0-1.7l0.3-0.1
	c0.2,0.6,0.2,1.2,0,1.8L272.9,304.4z M272.2,307.8l0.4-1.7l0.3,0.1l-0.4,1.7L272.2,307.8z"/>
<polygon class="st1" points="271.6,310.4 272,310.5 272.2,309.6 271.8,309.6 "/>
<rect x="252.1" y="288.1" transform="matrix(0.2249 -0.9744 0.9744 0.2249 -91.5955 476.8106)" class="st3" width="3.6" height="15.7"/>
<polygon class="st1" points="260.6,297.8 261.5,298 261.6,297.6 260.7,297.4 "/>
<path class="st1" d="M254.8,296.4l-1.9-0.4l0.1-0.3l1.9,0.4L254.8,296.4z M258.7,297.3l-1.9-0.4l0.1-0.3l1.9,0.4L258.7,297.3z"/>
<path class="st4" d="M215.5,242.2l-0.2-5.3v-0.7c0-0.2,0-0.6-0.1-0.9c-0.1-0.6-0.3-1.3-0.6-1.9c-0.6-1.2-1.7-2.1-2.9-2.5
	c-0.6-0.2-1.3-0.3-1.9-0.3h-1.4l-2.7,0.1l-5.3,0.1l0.1,3.6l5.3-0.1l2.7-0.1h1.3c0.2,0,0.5,0,0.7,0.1c0.4,0.2,0.8,0.5,1,0.9
	c0.1,0.2,0.2,0.4,0.2,0.6c0,0.1,0,0.7,0.1,1.1l0.2,5.3L215.5,242.2z"/>
<polygon class="st1" points="200.3,232.4 200.3,232.8 201.2,232.8 201.2,232.4 "/>
<path class="st1" d="M204.7,232.7h-1.8v-0.4h1.8V232.7z M208.3,232.6h-1.8v-0.4h1.8V232.6z M211.6,233.2c-0.5-0.3-1-0.5-1.6-0.6
	v-0.4c0.6,0.1,1.2,0.3,1.7,0.6L211.6,233.2z M213.2,236c0-0.6-0.2-1.1-0.5-1.6l0.3-0.2c0.3,0.5,0.5,1.2,0.5,1.8H213.2z M213.4,239.6
	l-0.1-1.8h0.4l0.1,1.8H213.4z"/>
<rect x="213.4" y="241.3" transform="matrix(0.9992 -3.882752e-02 3.882752e-02 0.9992 -9.2251 8.4755)" class="st1" width="0.4" height="0.9"/>
<path class="st4" d="M137.5,228.9l-0.1-5.3v-0.7c0-0.2,0-0.6-0.1-0.9c-0.1-0.7-0.3-1.3-0.6-1.9c-0.6-1.2-1.6-2.1-2.9-2.6
	c-0.6-0.2-1.3-0.4-1.9-0.4h-1.4h-2.7h-5.3v3.6h5.3h2.7h1.3c0.2,0,0.5,0.1,0.7,0.1c0.4,0.2,0.8,0.5,1,0.9c0.1,0.2,0.2,0.4,0.2,0.7
	c0,0.1,0,0.7,0,1.1l0.1,5.3L137.5,228.9z"/>
<rect x="122.6" y="218.8" class="st1" width="0.9" height="0.4"/>
<path class="st1" d="M127,219.2h-1.7v-0.4h1.8v0.4H127z M130.6,219.2h-1.8v-0.4h1.8V219.2z M133.9,219.8c-0.5-0.3-1-0.5-1.6-0.6
	l0.1-0.4c0.6,0.1,1.2,0.3,1.7,0.7L133.9,219.8z M135.4,222.7c0-0.6-0.1-1.1-0.4-1.6l0.3-0.2c0.3,0.5,0.4,1.2,0.5,1.8H135.4z
	 M135.5,226.3v-1.8h0.4v1.8H135.5z"/>
<rect x="135.5" y="228.1" transform="matrix(0.9999 -1.368989e-02 1.368989e-02 0.9999 -3.1161 1.8791)" class="st1" width="0.4" height="0.9"/>
<path class="st4" d="M111.9,210.8l-0.1-5.3v-0.7c0-0.2,0-0.6-0.1-0.9c-0.1-0.7-0.3-1.3-0.6-1.9c-0.6-1.2-1.6-2.1-2.9-2.6
	c-0.6-0.2-1.3-0.4-1.9-0.4h-1.4h-2.7h-5.3v3.6h5.3h2.7h1.3c0.2,0,0.5,0.1,0.7,0.1c0.4,0.2,0.8,0.5,1,0.9c0.1,0.2,0.2,0.4,0.2,0.7
	c0,0.1,0,0.7,0,1.1l0.1,5.3L111.9,210.8z"/>
<rect x="97" y="200.7" class="st1" width="0.9" height="0.4"/>
<path class="st1" d="M101.5,201.1h-1.8v-0.4h1.8V201.1z M105,201.1h-1.7v-0.4h1.8v0.4H105z M108.3,201.8c-0.5-0.3-1-0.5-1.6-0.6
	l0.1-0.4c0.6,0.1,1.2,0.3,1.7,0.7L108.3,201.8z M109.9,204.7c0-0.6-0.1-1.1-0.4-1.6l0.3-0.2c0.3,0.5,0.4,1.2,0.5,1.8H109.9z
	 M109.9,208.2v-1.8h0.4v1.8H109.9z"/>
<rect x="109.9" y="210" transform="matrix(0.9999 -1.368941e-02 1.368941e-02 0.9999 -2.8706 1.5269)" class="st1" width="0.4" height="0.9"/>
<path class="st4" d="M108.2,209.5l0.2,5.3v0.7c0,0.2,0,0.6,0.1,0.9c0.1,0.6,0.3,1.3,0.6,1.9c0.6,1.2,1.7,2.1,2.9,2.5
	c0.6,0.2,1.3,0.3,1.9,0.3h1.4l2.7-0.1l5.3-0.1l-0.1-3.6l-5.3,0.1l-2.7,0.1h-1.3c-0.2,0-0.5,0-0.7-0.1c-0.4-0.2-0.8-0.5-1-0.9
	c-0.1-0.2-0.2-0.4-0.2-0.6c0-0.1,0-0.7-0.1-1.1l-0.2-5.3L108.2,209.5z"/>
<polygon class="st1" points="122.5,218.8 122.5,219.2 123.4,219.2 123.4,218.8 "/>
<path class="st1" d="M119,218.9h1.8v0.4H119V218.9z M115.4,219h1.8v0.4h-1.8V219z M112.1,218.5c0.5,0.3,1,0.5,1.6,0.6v0.4
	c-0.6-0.1-1.2-0.3-1.7-0.6L112.1,218.5z M110.5,215.6c0,0.6,0.2,1.1,0.5,1.6l-0.3,0.2c-0.3-0.5-0.5-1.2-0.5-1.8H110.5z M110.3,212
	l0.1,1.8H110l-0.1-1.8H110.3z"/>
<rect x="109.9" y="209.4" transform="matrix(0.9992 -4.109923e-02 4.109923e-02 0.9992 -8.5321 4.7026)" class="st1" width="0.4" height="0.9"/>
<path class="st4" d="M133.8,224.5l0.2,5.3v0.7c0,0.2,0,0.6,0.1,0.9c0.1,0.6,0.3,1.3,0.6,1.9c0.6,1.2,1.7,2.1,2.9,2.5
	c0.6,0.2,1.3,0.3,1.9,0.3h1.4l2.7-0.1l5.3-0.1l-0.1-3.6l-5.3,0.1l-2.7,0.1h-1.3c-0.2,0-0.5,0-0.7-0.1c-0.4-0.2-0.8-0.5-1-0.9
	c-0.1-0.2-0.2-0.4-0.2-0.6c0-0.1,0-0.7-0.1-1.1l-0.2-5.3L133.8,224.5z"/>
<polygon class="st1" points="148,233.9 148,234.2 148.9,234.2 148.9,233.9 "/>
<path class="st1" d="M144.5,234h1.8v0.4h-1.8V234z M140.9,234.1h1.8v0.4h-1.8V234.1z M137.6,233.5c0.5,0.3,1,0.5,1.6,0.6v0.4
	c-0.6-0.1-1.2-0.3-1.7-0.6L137.6,233.5z M136,230.6c0,0.6,0.2,1.1,0.5,1.6l-0.3,0.2c-0.3-0.5-0.5-1.2-0.5-1.8H136z M135.9,227.1
	l0.1,1.8h-0.4l-0.1-1.8H135.9z"/>
<rect x="135.4" y="224.4" transform="matrix(0.9992 -4.109923e-02 4.109923e-02 0.9992 -9.1271 5.7633)" class="st1" width="0.4" height="0.9"/>
<rect x="148.7" y="232" transform="matrix(0.9997 -2.616038e-02 2.616038e-02 0.9997 -6.063 4.1756)" class="st3" width="15.7" height="3.6"/>
<rect x="163.5" y="233.5" transform="matrix(0.9996 -2.829948e-02 2.829948e-02 0.9996 -6.548 4.7333)" class="st1" width="0.9" height="0.4"/>
<path class="st1" d="M151.6,233.8v0.4l2-0.1v-0.4L151.6,233.8z M155.6,233.7v0.4l2-0.1v-0.4L155.6,233.7z M159.5,233.6v0.4l2-0.1
	v-0.4L159.5,233.6z"/>
<rect x="43.3" y="200.4" transform="matrix(0.9997 -2.616233e-02 2.616233e-02 0.9997 -5.2728 1.4075)" class="st3" width="15.7" height="3.6"/>
<rect x="58.1" y="201.9" transform="matrix(0.9997 -2.537863e-02 2.537863e-02 0.9997 -5.1103 1.5511)" class="st1" width="0.9" height="0.4"/>
<path class="st1" d="M46.3,202.2v0.4l2-0.1v-0.4L46.3,202.2z M50.2,202.1v0.4l2-0.1V202L50.2,202.1z M54.1,202v0.4l2-0.1v-0.4
	L54.1,202z"/>
<rect x="0" y="201.6" transform="matrix(0.9997 -2.616233e-02 2.616233e-02 0.9997 -5.319 0.275)" class="st3" width="15.7" height="3.6"/>
<rect x="14.8" y="203" transform="matrix(0.9997 -2.540012e-02 2.540012e-02 0.9997 -5.1565 0.4529)" class="st1" width="0.9" height="0.4"/>
<path class="st1" d="M3,203.3v0.4l2-0.1v-0.4L3,203.3z M6.9,203.2v0.4l2-0.1v-0.4L6.9,203.2z M10.9,203.1v0.4l2-0.1V203L10.9,203.1z
	"/>
<rect x="164.3" y="231.6" transform="matrix(0.9997 -2.616038e-02 2.616038e-02 0.9997 -6.0471 4.5836)" class="st3" width="15.7" height="3.6"/>
<rect x="179.1" y="233" transform="matrix(0.9996 -2.822161e-02 2.822161e-02 0.9996 -6.5098 5.1601)" class="st1" width="0.9" height="0.4"/>
<path class="st1" d="M167.2,233.4v0.4l2-0.1v-0.4L167.2,233.4z M171.1,233.3v0.4l2-0.1v-0.4L171.1,233.3z M175.1,233.2v0.4l2-0.1
	v-0.4L175.1,233.2z"/>
<rect x="58.8" y="200" transform="matrix(0.9997 -2.616233e-02 2.616233e-02 0.9997 -5.257 1.8129)" class="st3" width="15.7" height="3.6"/>
<rect x="73.7" y="201.5" transform="matrix(0.9997 -2.537863e-02 2.537863e-02 0.9997 -5.0951 1.9468)" class="st1" width="0.9" height="0.4"/>
<path class="st1" d="M61.8,201.8v0.4l2-0.1v-0.4L61.8,201.8z M65.7,201.7v0.4l2-0.1v-0.4L65.7,201.7z M69.7,201.6v0.4l2-0.1v-0.4
	L69.7,201.6z"/>
<rect x="179.9" y="231.2" transform="matrix(0.9997 -2.616038e-02 2.616038e-02 0.9997 -6.0313 4.9916)" class="st3" width="15.7" height="3.6"/>
<rect x="194.7" y="232.6" transform="matrix(0.9997 -2.533563e-02 2.533563e-02 0.9997 -5.8356 5.0191)" class="st1" width="0.9" height="0.4"/>
<path class="st1" d="M182.8,232.9v0.4l2-0.1v-0.4L182.8,232.9z M186.7,232.8v0.4l2-0.1v-0.4L186.7,232.8z M190.7,232.7v0.4l2-0.1
	v-0.4L190.7,232.7z"/>
<rect x="74.4" y="199.6" transform="matrix(0.9997 -2.616233e-02 2.616233e-02 0.9997 -5.2412 2.2209)" class="st3" width="15.7" height="3.6"/>
<rect x="89.3" y="201" transform="matrix(0.9997 -2.537863e-02 2.537863e-02 0.9997 -5.0774 2.3426)" class="st1" width="0.9" height="0.4"/>
<path class="st1" d="M77.4,201.3v0.4l2-0.1v-0.4L77.4,201.3z M81.3,201.2v0.4l2-0.1v-0.4L81.3,201.2z M85.3,201.1v0.4l2-0.1V201
	L85.3,201.1z"/>
<rect x="14.8" y="201.2" transform="matrix(0.9997 -2.615844e-02 2.615844e-02 0.9997 -5.3027 0.662)" class="st3" width="15.7" height="3.6"/>
<rect x="14.7" y="203" transform="matrix(0.9996 -2.822161e-02 2.822161e-02 0.9996 -5.7286 0.5085)" class="st1" width="0.9" height="0.4"/>
<path class="st1" d="M17.6,202.9v0.4l2-0.1v-0.4L17.6,202.9z M21.6,202.8v0.4l2-0.1v-0.4L21.6,202.8z M25.5,202.7v0.4l2-0.1v-0.4
	L25.5,202.7z"/>
<rect x="190.3" y="230.9" transform="matrix(0.9997 -2.616036e-02 2.616036e-02 0.9997 -6.0199 5.2635)" class="st3" width="15.7" height="3.6"/>
<polygon class="st1" points="205,232.3 205.1,232.7 205.9,232.7 205.9,232.3 "/>
<path class="st1" d="M193.2,232.7v0.4l2-0.1v-0.4L193.2,232.7z M197.1,232.5v0.4l2-0.1v-0.4L197.1,232.5z M201.1,232.4v0.4l2-0.1
	v-0.4L201.1,232.4z"/>
<rect x="84.8" y="199.3" transform="matrix(0.9997 -2.616233e-02 2.616233e-02 0.9997 -5.2298 2.4929)" class="st3" width="15.7" height="3.6"/>
<rect x="99.7" y="200.7" transform="matrix(0.9996 -2.822161e-02 2.822161e-02 0.9996 -5.6299 2.9064)" class="st1" width="0.9" height="0.4"/>
<path class="st1" d="M87.8,201.1v0.4l2-0.1V201L87.8,201.1z M91.7,201v0.4l2-0.1v-0.4L91.7,201z M95.7,200.9v0.4l2-0.1v-0.4
	L95.7,200.9z"/>
<rect x="28" y="200.8" transform="matrix(0.9997 -2.616233e-02 2.616233e-02 0.9997 -5.2885 1.0073)" class="st3" width="15.7" height="3.6"/>
<rect x="42.8" y="202.3" transform="matrix(0.9997 -2.540012e-02 2.540012e-02 0.9997 -5.1297 1.1639)" class="st1" width="0.9" height="0.4"/>
<path class="st1" d="M30.9,202.6v0.4l2-0.1v-0.4L30.9,202.6z M34.9,202.5v0.4l2-0.1v-0.4L34.9,202.5z M38.8,202.4v0.4l2-0.1v-0.4
	L38.8,202.4z"/>
<rect x="212" y="242.2" transform="matrix(0.9995 -3.056569e-02 3.056569e-02 0.9995 -7.5428 6.6516)" class="st3" width="3.6" height="15.7"/>
<rect x="213.4" y="242.1" transform="matrix(0.9995 -3.050540e-02 3.050540e-02 0.9995 -7.2994 6.6286)" class="st1" width="0.4" height="0.9"/>
<path class="st1" d="M213.8,252.9l0.1,2h0.4l-0.1-2H213.8z M213.6,249l0.1,2h0.4l-0.1-2H213.6z M213.5,245l0.1,2h0.4l-0.1-2H213.5z"
	/>
<rect x="212.4" y="255.2" transform="matrix(0.9995 -3.056769e-02 3.056769e-02 0.9995 -7.9405 6.6703)" class="st3" width="3.6" height="15.7"/>
<rect x="214.3" y="270" transform="matrix(0.9995 -3.050540e-02 3.050540e-02 0.9995 -8.1501 6.6691)" class="st1" width="0.4" height="0.9"/>
<path class="st1" d="M214.2,266.1l0.1,2h0.4l-0.1-2H214.2z M214,262.1l0.1,2h0.4l-0.1-2H214z M213.9,258.2l0.1,2h0.4l-0.1-2H213.9z"
	/>
<path class="st4" d="M212.5,265.2l0.3,5.3v0.7c0,0.2,0,0.6,0.1,0.9c0.1,0.6,0.3,1.3,0.7,1.8c0.7,1.1,1.7,2,3,2.5
	c0.6,0.2,1.3,0.3,1.9,0.3l1.4-0.1l2.7-0.1l5.3-0.2l-0.2-3.6l-5.3,0.2l-2.7,0.1l-1.3,0.1c-0.2,0-0.5,0-0.7-0.1
	c-0.4-0.2-0.8-0.5-1-0.9c-0.1-0.2-0.2-0.4-0.2-0.6c0-0.1,0-0.7-0.1-1.1l-0.3-5.3L212.5,265.2z"/>
<rect x="226.9" y="274.3" transform="matrix(0.9991 -4.205219e-02 4.205219e-02 0.9991 -11.3421 9.8033)" class="st1" width="0.9" height="0.4"/>
<path class="st1" d="M223.4,274.5l1.8-0.1v0.4l-1.8,0.1V274.5z M219.8,274.7l1.8-0.1v0.4l-1.8,0.1V274.7z M216.5,274.1
	c0.5,0.3,1,0.5,1.6,0.6v0.4c-0.6-0.1-1.2-0.3-1.7-0.6L216.5,274.1z M214.8,271.3c0,0.6,0.2,1.1,0.5,1.6l-0.3,0.2
	c-0.3-0.5-0.5-1.1-0.5-1.8L214.8,271.3z M214.6,267.8l0.1,1.8h-0.4l-0.1-1.8H214.6z"/>
<polygon class="st1" points="214.1,265.1 214.2,266 214.5,266 214.5,265.1 "/>
<path class="st4" d="M238.6,283.9l-0.3-5.3v-0.7c0-0.2,0-0.6-0.1-0.9c-0.1-0.6-0.3-1.3-0.7-1.8c-0.7-1.1-1.7-2-3-2.5
	c-0.6-0.2-1.3-0.3-1.9-0.3l-1.4,0.1l-2.7,0.1l-5.3,0.3l0.2,3.6l5.3-0.3l2.7-0.1l1.3-0.1c0.2,0,0.5,0,0.7,0.1c0.4,0.1,0.8,0.5,1,0.9
	c0.1,0.2,0.2,0.4,0.2,0.6c0,0.1,0.1,0.7,0.1,1.1l0.3,5.3L238.6,283.9z"/>
<rect x="223.3" y="274.5" transform="matrix(0.9989 -4.768766e-02 4.768766e-02 0.9989 -12.8456 10.9831)" class="st1" width="0.9" height="0.4"/>
<path class="st1" d="M227.7,274.7l-1.8,0.1v-0.4l1.8-0.1V274.7z M231.2,274.5l-1.8,0.1v-0.4l1.8-0.1V274.5z M234.6,275
	c-0.5-0.3-1-0.5-1.6-0.6V274c0.6,0.1,1.2,0.3,1.7,0.6L234.6,275z M236.2,277.8c0-0.6-0.2-1.1-0.5-1.6l0.3-0.2
	c0.3,0.5,0.5,1.1,0.5,1.8L236.2,277.8z M236.4,281.4l-0.1-1.8h0.4l0.1,1.8H236.4z"/>
<rect x="236.7" y="283.1" transform="matrix(0.9982 -6.049962e-02 6.049962e-02 0.9982 -16.7211 14.8523)" class="st1" width="0.4" height="0.9"/>
<path class="st4" d="M234.9,283.4l0.3,5.3v0.7c0,0.2,0,0.6,0.1,0.9c0.1,0.6,0.3,1.3,0.7,1.8c0.7,1.1,1.7,2,3,2.5
	c0.6,0.2,3.4,0.8,3.4,0.8l2.6,0.5l5.1,1.2l0.2-3.7l-4.5-1.1l-4.3-0.9c-0.2,0-1-0.2-1.2-0.3c-0.4-0.2-0.8-0.5-1-0.9
	c-0.1-0.2-0.2-0.4-0.2-0.6c0-0.1,0-0.7-0.1-1.1l-0.3-5.3L234.9,283.4z"/>
<path class="st1" d="M238.9,292.3c0.5,0.3,1,0.5,1.6,0.6v0.4c-0.6-0.1-1.2-0.3-1.7-0.6L238.9,292.3z M237.3,289.5
	c0,0.6,0.2,1.1,0.5,1.6l-0.3,0.2c-0.3-0.5-0.5-1.1-0.5-1.8L237.3,289.5z M237.1,285.9l0.1,1.8h-0.4l-0.1-1.8H237.1z"/>
<polygon class="st1" points="236.6,283.3 236.6,284.1 237,284.1 236.9,283.3 "/>
<polygon class="st1" points="241.6,293.3 243.5,293.8 243.6,293.6 241.6,293 "/>
<polygon class="st1" points="245.3,294.2 247.2,294.7 247.3,294.4 245.4,293.9 "/>
<polygon class="st5" points="96.5,246.9 99.8,250.9 99.8,255.7 93.3,255.7 93.3,250.9 "/>
<rect x="87.1" y="250.9" class="st6" width="6.1" height="4.9"/>
<polygon class="st7" points="96.5,246.9 90.2,246.9 87.1,250.9 93.3,250.9 "/>
<rect x="93.3" y="255.7" class="st8" width="6.5" height="1.7"/>
<rect x="87.1" y="255.7" class="st9" width="6.1" height="1.7"/>
<rect x="95.8" y="248.9" class="st10" width="1.5" height="2"/>
<path class="st1" d="M97.2,250.8h-1.3V249h1.3V250.8z M95.7,251h1.7v-2.2h-1.7V251z"/>
<rect x="96.4" y="248.9" class="st1" width="0.2" height="2"/>
<rect x="95.8" y="249.9" class="st1" width="1.5" height="0.2"/>
<rect x="94.2" y="252.6" class="st10" width="1.5" height="2"/>
<path class="st1" d="M95.6,254.4h-1.3v-1.8h1.3V254.4z M94.1,254.6h1.7v-2.2h-1.7V254.6z"/>
<rect x="94.9" y="252.6" class="st1" width="0.2" height="2"/>
<rect x="94.2" y="253.5" class="st1" width="1.5" height="0.2"/>
<rect x="89.5" y="252.5" class="st10" width="1.5" height="2"/>
<path class="st1" d="M90.8,254.4h-1.3v-1.8h1.3V254.4z M89.4,254.6h1.7v-2.2h-1.7V254.6z"/>
<rect x="90.1" y="252.5" class="st1" width="0.2" height="2"/>
<rect x="89.5" y="253.5" class="st1" width="1.5" height="0.2"/>
<polygon class="st11" points="102,255.7 107.2,261 106.9,261 106.9,263.2 97.1,263.2 97.1,261 96.8,261 "/>
<rect x="97.1" y="263.2" class="st12" width="9.8" height="0.8"/>
<rect x="90.3" y="261" class="st13" width="6.8" height="2.1"/>
<rect x="90.3" y="263.2" class="st14" width="6.8" height="0.8"/>
<polygon class="st15" points="90.3,261 96.8,261 102,255.7 95.5,255.7 "/>
<rect x="98.6" y="254.2" class="st12" width="0.9" height="2.2"/>
<rect x="102.6" y="258" class="st10" width="0.8" height="1.2"/>
<path class="st15" d="M102.7,258.1h0.6v1h-0.6V258.1z M102.6,259.3h1v-1.4h-1V259.3z"/>
<rect x="100.7" y="258" class="st10" width="0.8" height="1.2"/>
<path class="st15" d="M100.7,258.1h0.6v1h-0.6V258.1z M100.6,259.3h1v-1.4h-1V259.3z"/>
<rect x="101" y="261.3" class="st10" width="0.8" height="1.2"/>
<path class="st15" d="M101.1,261.4h0.6v1h-0.6V261.4z M100.9,262.6h1v-1.4h-1V262.6z"/>
<rect x="102.2" y="261.3" class="st10" width="0.8" height="1.2"/>
<path class="st15" d="M102.3,261.4h0.6v1h-0.6V261.4z M102.1,262.6h1v-1.4h-1V262.6z"/>
<rect x="94.5" y="261.3" class="st10" width="0.8" height="1.2"/>
<path class="st15" d="M94.6,261.4h0.6v1h-0.6V261.4z M94.4,262.6h1v-1.4h-1V262.6z"/>
<rect x="95.7" y="261.3" class="st10" width="0.8" height="1.2"/>
<path class="st15" d="M95.7,261.4h0.6v1h-0.6V261.4z M95.6,262.6h1v-1.4h-1V262.6z"/>
<rect x="90.9" y="261.3" class="st10" width="0.8" height="1.2"/>
<path class="st15" d="M91,261.4h0.6v1H91V261.4z M90.8,262.6h1v-1.4h-1V262.6z"/>
<rect x="92.1" y="261.3" class="st10" width="0.8" height="1.2"/>
<path class="st15" d="M92.2,261.4h0.6v1h-0.6V261.4z M92,262.6h1v-1.4h-1V262.6z"/>
<polygon class="st5" points="113.1,253.8 116.3,257.8 116.3,262.7 109.8,262.7 109.8,257.8 "/>
<rect x="103.7" y="257.8" class="st6" width="6.1" height="4.9"/>
<polygon class="st7" points="113.1,253.8 106.8,253.8 103.7,257.8 109.8,257.8 "/>
<rect x="109.8" y="262.7" class="st8" width="6.5" height="1.7"/>
<rect x="103.7" y="262.7" class="st9" width="6.1" height="1.7"/>
<rect x="112.3" y="255.8" class="st10" width="1.5" height="2"/>
<path class="st1" d="M113.7,257.7h-1.3v-1.8h1.3V257.7z M112.2,257.9h1.7v-2.2h-1.7V257.9z"/>
<rect x="113" y="255.8" class="st1" width="0.2" height="2"/>
<rect x="112.3" y="256.8" class="st1" width="1.5" height="0.2"/>
<rect x="110.8" y="259.5" class="st10" width="1.5" height="2"/>
<path class="st1" d="M112.1,261.3h-1.3v-1.8h1.3V261.3z M110.7,261.5h1.7v-2.1h-1.7V261.5z"/>
<rect x="111.4" y="259.5" class="st1" width="0.2" height="2"/>
<rect x="110.8" y="260.4" class="st1" width="1.5" height="0.2"/>
<rect x="106" y="259.5" class="st10" width="1.5" height="2"/>
<path class="st1" d="M107.4,261.3h-1.3v-1.8h1.3V261.3z M105.9,261.5h1.7v-2.1h-1.7V261.5z"/>
<rect x="106.7" y="259.5" class="st1" width="0.2" height="2"/>
<rect x="106" y="260.4" class="st1" width="1.5" height="0.2"/>
<g>
	<path class="st4" d="M352.6,349.7l-0.3,5.3v0.7c0,0.2,0,0.6,0,0.9c0,0.7,0.2,1.3,0.4,1.9c0.5,1.2,1.5,2.2,2.7,2.8
		c0.6,0.3,1.2,0.5,1.9,0.5l1.4,0.1l1.7-0.3L360,358l-1,0.2l-1.3-0.1c-0.2,0-0.5-0.1-0.7-0.2c-0.4-0.2-0.8-0.6-0.9-1
		c-0.1-0.2-0.1-0.4-0.2-0.7c0-0.1,0-0.7,0.1-1.1l0.3-5.3L352.6,349.7z"/>
	
		<rect x="354" y="350" transform="matrix(6.432572e-02 -0.9979 0.9979 6.432572e-02 -17.8435 681.4492)" class="st1" width="0.9" height="0.4"/>
	
		<rect x="321" y="331.6" transform="matrix(6.432572e-02 -0.9979 0.9979 6.432572e-02 -30.3323 631.293)" class="st1" width="0.9" height="0.4"/>
	
		<rect x="321" y="332.9" transform="matrix(6.675138e-02 -0.9978 0.9978 6.675138e-02 -32.3667 631.6635)" class="st1" width="0.9" height="0.4"/>
	<path class="st16" d="M363.6,357.2c0,4.1-3.4,7.5-7.5,7.5h-33.4c-4.1,0-7.5-3.4-7.5-7.5v-5.6c0-4.1,3.4-7.5,7.5-7.5h33.4
		c4.1,0,7.5,3.4,7.5,7.5V357.2z"/>
	<path class="st17" d="M325.6,347.2h-19.2l8.9-16.3l0.1-0.3c0.1-0.2,0.3-0.3,0.6-0.3c0.2,0,0.5,0.1,0.6,0.3l0.1,0.2L325.6,347.2z"/>
	<polygon class="st18" points="328.3,334.9 328.3,347.5 326.8,349.1 326.8,336.4 	"/>
	<rect x="320.6" y="336.4" class="st19" width="6.1" height="12.6"/>
	<polygon class="st20" points="328.3,334.9 326.8,336.4 320.6,336.4 322.1,335 322.1,334.9 	"/>
	<polygon class="st19" points="332.2,345.4 332.2,349.1 327.8,349.1 327.8,344.5 331.3,344.5 331.3,345.4 	"/>
	<rect x="329.5" y="346.2" class="st21" width="2.2" height="1"/>
	<polygon class="st18" points="332.8,343 332.8,343.8 331.3,345.4 331.3,345.4 331.3,344.5 332.7,343 	"/>
	<polygon class="st20" points="333.8,343.8 332.2,345.4 331.3,345.4 332.8,343.8 	"/>
	<polygon class="st18" points="333.8,343.8 333.8,347.5 332.2,349.1 332.2,345.4 	"/>
	<polygon class="st20" points="332.7,343 331.3,344.5 327.8,344.5 329.3,343 	"/>
	<rect x="320.7" y="330.1" class="st19" width="0.4" height="6.3"/>
	<path class="st17" d="M325,335.5l-0.6-1.5l1.5,0.7C325.7,335,325.4,335.3,325,335.5 M323.4,335.6l0.7-1.5l0.6,1.5
		c-0.2,0-0.4,0.1-0.5,0.1C323.9,335.7,323.6,335.7,323.4,335.6 M322.2,334.5l1.5-0.6l-0.7,1.5C322.7,335.2,322.4,334.9,322.2,334.5
		 M323.2,331.7l0.6,1.5l-1.5-0.7C322.5,332.1,322.8,331.9,323.2,331.7 M324.8,331.6l-0.7,1.5l-0.6-1.5c0.2,0,0.4-0.1,0.5-0.1
		C324.4,331.5,324.6,331.5,324.8,331.6 M326,332.7l-1.5,0.6l0.7-1.5C325.6,332,325.8,332.3,326,332.7 M322.1,334.1
		c-0.1-0.4-0.1-0.8,0.1-1.2l1.5,0.7L322.1,334.1z M326.1,334.3l-1.5-0.7l1.5-0.6C326.3,333.5,326.3,333.9,326.1,334.3 M325.4,330.7
		c-0.4-0.2-0.9-0.3-1.3-0.3c-1.2,0-2.3,0.7-2.9,1.8c-0.4,0.8-0.4,1.6-0.1,2.4s0.9,1.4,1.6,1.8c0.4,0.2,0.9,0.3,1.3,0.3
		c1.2,0,2.3-0.7,2.9-1.8C327.7,333.3,327,331.5,325.4,330.7"/>
	<polygon class="st17" points="330,344.5 330.6,344.5 327,332.7 326.4,332.9 	"/>
	<polygon class="st17" points="320.7,329.4 320.7,330.2 322.8,330.2 322.4,329.8 322.8,329.4 	"/>
	<path class="st22" d="M318.4,349h-16.8l7.8-14.3l0.1-0.2c0.1-0.1,0.3-0.2,0.5-0.2s0.4,0.1,0.5,0.2l0.1,0.2L318.4,349z"/>
	<path class="st17" d="M309.4,334.7c0-0.1,0.1-0.2,0.1-0.2L309.4,334.7z"/>
	<path class="st17" d="M310.6,334.7l-0.1-0.2C310.5,334.6,310.6,334.6,310.6,334.7"/>
	<path class="st19" d="M304.7,347.6c0,0,1.3-3.2,1.9-3.3c0.5-0.1,1.2-1.4,1.7-3.4c0,0-1.5,2.6-1.8,2.9
		C306,343.9,304.9,346.2,304.7,347.6"/>
	<path class="st19" d="M310.5,337.1c0,0,1.2,4.2,1.5,4.5s0.8,0,0.9,0.4s2,4.4,2,4.4l-2.2-3.8c0,0-0.3-0.3-0.6-0.3
		S311.2,341.7,310.5,337.1"/>
	<path class="st19" d="M311.4,343.8c0,0-1.6,1.8-2,1.8s-1.3,0.3-1.7,1.2c0,0,0.6-0.8,1-0.8C309,346,310.7,345.7,311.4,343.8"/>
	<polygon class="st11" points="359.6,339.9 366.8,347.4 366.4,347.4 366.4,350.4 352.7,350.4 352.7,347.4 352.3,347.4 	"/>
	<rect x="352.7" y="350.4" class="st12" width="13.7" height="1.1"/>
	<rect x="343.2" y="347.4" class="st13" width="9.5" height="3"/>
	<rect x="343.2" y="350.4" class="st14" width="9.5" height="1.1"/>
	<polygon class="st15" points="343.2,347.4 352.3,347.4 359.6,340 350.5,340 	"/>
	<polyline class="st12" points="354.8,337.8 354.8,340.9 356.1,340.9 356.1,337.8 	"/>
	<rect x="360.5" y="343.2" class="st10" width="1.1" height="1.7"/>
	<path class="st15" d="M361.5,344.7h-0.9v-1.4h0.9V344.7z M360.3,345h1.4v-1.9h-1.4V345z"/>
	<rect x="357.7" y="343.2" class="st10" width="1.1" height="1.7"/>
	<path class="st15" d="M358.7,344.7h-0.9v-1.4h0.9V344.7z M357.6,345h1.4v-1.9h-1.4V345z"/>
	<rect x="358.2" y="347.8" class="st10" width="1.1" height="1.7"/>
	<path class="st15" d="M359.2,349.3h-0.9v-1.4h0.9V349.3z M358.1,349.5h1.4v-1.9h-1.4V349.5z"/>
	<rect x="359.8" y="347.8" class="st10" width="1.1" height="1.7"/>
	<path class="st15" d="M360.8,349.3h-0.9v-1.4h0.9V349.3z M359.7,349.5h1.4v-1.9h-1.4V349.5z"/>
	<rect x="349.1" y="347.8" class="st10" width="1.1" height="1.7"/>
	<path class="st15" d="M350.1,349.3h-0.9v-1.4h0.9V349.3z M348.9,349.5h1.4v-1.9h-1.4V349.5z"/>
	<rect x="350.7" y="347.8" class="st10" width="1.1" height="1.7"/>
	<path class="st15" d="M351.7,349.3h-0.9v-1.4h0.9V349.3z M350.6,349.5h1.4v-1.9h-1.4V349.5z"/>
	<rect x="344" y="347.8" class="st10" width="1.1" height="1.7"/>
	<path class="st15" d="M345,349.3h-0.9v-1.4h0.9V349.3z M343.9,349.5h1.4v-1.9h-1.4V349.5z"/>
	<rect x="345.7" y="347.8" class="st10" width="1.1" height="1.7"/>
	<path class="st15" d="M346.7,349.3h-0.9v-1.4h0.9V349.3z M345.5,349.5h1.4v-1.9h-1.4V349.5z"/>
	<polygon class="st5" points="351.4,347.6 355.9,353.2 355.9,360 346.8,360 346.8,353.2 	"/>
	<rect x="338.2" y="353.2" class="st6" width="8.6" height="6.8"/>
	<polygon class="st7" points="351.4,347.6 342.5,347.6 338.2,353.2 346.8,353.2 	"/>
	<rect x="346.8" y="360" class="st8" width="9.1" height="2.3"/>
	<rect x="338.2" y="360" class="st9" width="8.6" height="2.3"/>
	<rect x="350.3" y="350.4" class="st10" width="2.1" height="2.7"/>
	<path class="st1" d="M352.2,353h-1.8v-2.5h1.8V353z M350.2,353.3h2.3v-3h-2.3V353.3z"/>
	<rect x="351.2" y="350.4" class="st1" width="0.3" height="2.7"/>
	<rect x="350.3" y="351.8" class="st1" width="2.1" height="0.3"/>
	<rect x="348.1" y="355.5" class="st10" width="2.1" height="2.7"/>
	<path class="st1" d="M350.1,358.1h-1.8v-2.5h1.8V358.1z M348,358.4h2.3v-3H348V358.4z"/>
	<rect x="349" y="355.5" class="st1" width="0.3" height="2.7"/>
	<rect x="348.1" y="356.9" class="st1" width="2.1" height="0.3"/>
	<rect x="341.5" y="355.5" class="st10" width="2.1" height="2.7"/>
	<path class="st1" d="M343.4,358.1h-1.8v-2.5h1.8V358.1z M341.4,358.4h2.3v-3h-2.3V358.4z"/>
	<rect x="342.4" y="355.5" class="st1" width="0.3" height="2.7"/>
	<rect x="341.5" y="356.8" class="st1" width="2.1" height="0.3"/>
	<polygon class="st11" points="336.3,346.5 343.6,354 343.1,354 343.1,357 329.4,357 329.4,354 329.1,354 	"/>
	<rect x="329.4" y="357" class="st12" width="13.7" height="1.1"/>
	<rect x="319.9" y="354" class="st13" width="9.5" height="3"/>
	<rect x="319.9" y="357" class="st14" width="9.5" height="1.1"/>
	<polygon class="st15" points="319.9,354 329.1,354 336.3,346.5 327.2,346.5 	"/>
	<polyline class="st12" points="331.5,344.4 331.5,347.5 332.8,347.5 332.8,344.4 	"/>
	<rect x="337.2" y="349.8" class="st10" width="1.1" height="1.7"/>
	<path class="st15" d="M338.2,351.3h-0.9v-1.4h0.9V351.3z M337,351.5h1.4v-1.9H337V351.5z"/>
	<rect x="334.4" y="349.8" class="st10" width="1.1" height="1.7"/>
	<path class="st15" d="M335.4,351.3h-0.9v-1.4h0.9V351.3z M334.3,351.5h1.4v-1.9h-1.4V351.5z"/>
	<rect x="334.9" y="354.3" class="st10" width="1.1" height="1.7"/>
	<path class="st15" d="M335.9,355.9H335v-1.4h0.9V355.9z M334.8,356.1h1.4v-1.9h-1.4V356.1z"/>
	<rect x="336.6" y="354.3" class="st10" width="1.1" height="1.7"/>
	<path class="st15" d="M337.6,355.9h-0.9v-1.4h0.9V355.9z M336.4,356.1h1.4v-1.9h-1.4V356.1z"/>
	<rect x="325.8" y="354.3" class="st10" width="1.1" height="1.7"/>
	<path class="st15" d="M326.8,355.9h-0.9v-1.4h0.9V355.9z M325.6,356.1h1.4v-1.9h-1.4V356.1z"/>
	<rect x="327.4" y="354.3" class="st10" width="1.1" height="1.7"/>
	<path class="st15" d="M328.4,355.9h-0.9v-1.4h0.9V355.9z M327.3,356.1h1.4v-1.9h-1.4V356.1z"/>
	<rect x="320.7" y="354.3" class="st10" width="1.1" height="1.7"/>
	<path class="st15" d="M321.7,355.9h-0.9v-1.4h0.9V355.9z M320.6,356.1h1.4v-1.9h-1.4V356.1z"/>
	<rect x="322.4" y="354.3" class="st10" width="1.1" height="1.7"/>
	<path class="st15" d="M323.4,355.9h-0.9v-1.4h0.9V355.9z M322.3,356.1h1.4v-1.9h-1.4V356.1z"/>
	<path class="st23" d="M328.3,357.2c0,0,0,0.7-0.7,0.6c0,0-0.4-0.3-0.6-0.3c-0.3,0-0.7,0-0.7-0.2c0,0-0.2-0.1,0.1-0.2
		C326.3,357.2,328.2,357.1,328.3,357.2"/>
	<polygon class="st24" points="326.3,361 327.4,357.6 327.2,357.6 326.2,361 	"/>
	<polygon class="st24" points="323.6,358.5 326.9,358.8 327,358.7 323.6,358.3 	"/>
	<polygon class="st24" points="320.8,361.4 322.8,357.2 322.6,357.1 320.7,361.4 	"/>
	<polygon class="st23" points="326.7,361.5 329.3,361.6 329.3,361.4 326.7,361.3 	"/>
	<polygon class="st23" points="329.3,361.6 329.3,361.4 326.6,360.2 326.5,360.4 	"/>
	<path class="st24" d="M326,361l-3.3-3.7l-0.2,0.4l3.1,3.4C325.6,361.1,325.9,361,326,361"/>
	<path class="st23" d="M325.3,362.1c0,0,0.1,0.3-0.1,0.3s-0.6,0-0.6,0v-0.3H325.3z"/>
	<polygon class="st23" points="324.7,362.1 324.7,362.2 326.2,361.6 326.1,361.5 	"/>
	<path class="st23" d="M327.7,362.7l1.4-1.1v-0.1l-1.7-0.2c0,0.1,0,0.1,0,0.2C327.3,362,327.4,362.4,327.7,362.7 M329,363.5l0.2-1.7
		c0,0-0.1,0-0.1-0.1l-1.4,1.1C328.1,363.2,328.5,363.4,329,363.5 M330.5,363.1l-1.1-1.4h-0.1l-0.2,1.7c0.1,0,0.1,0,0.2,0
		C329.7,363.5,330.2,363.4,330.5,363.1 M331.3,361.8l-1.7-0.2c0,0,0,0.1-0.1,0.1l1.1,1.4C331,362.7,331.2,362.3,331.3,361.8
		 M331.3,361.7L331.3,361.7L331.3,361.7 M330.9,360.3l-1.4,1.1v0.1l1.7,0.2c0-0.1,0-0.1,0-0.2C331.3,361.1,331.1,360.6,330.9,360.3
		 M329.6,359.5l-0.2,1.7c0,0,0.1,0,0.1,0.1l1.4-1.1C330.5,359.8,330.1,359.6,329.6,359.5 M328.1,359.9l1.1,1.4h0.1l0.2-1.7
		c-0.1,0-0.1,0-0.2,0C328.8,359.5,328.4,359.7,328.1,359.9 M327.3,361.3l1.7,0.2c0,0,0-0.1,0.1-0.1L328,360
		C327.6,360.3,327.4,360.7,327.3,361.3 M329.3,359.1c1.3,0,2.4,1.1,2.4,2.4s-1.1,2.4-2.4,2.4s-2.4-1.1-2.4-2.4
		S327.9,359.1,329.3,359.1"/>
	<path class="st23" d="M318.8,361.5c0,0.5,0.2,0.9,0.5,1.2l1.3-1.2v-0.1l-1.7-0.1C318.8,361.4,318.8,361.5,318.8,361.5 M320.6,363.4
		l0.1-1.7c0,0-0.1,0-0.1-0.1l-1.3,1.2C319.6,363.1,320.1,363.4,320.6,363.4 M320.9,363.4c0.5,0,0.9-0.2,1.2-0.5l-1.2-1.3h-0.1
		l-0.1,1.7C320.8,363.4,320.8,363.4,320.9,363.4 M322.8,361.6l-1.7-0.1c0,0,0,0.1-0.1,0.1l1.2,1.3
		C322.5,362.6,322.7,362.1,322.8,361.6 M322.8,361.3c0-0.5-0.2-0.9-0.5-1.2l-1.3,1.2v0.1l1.7,0.1
		C322.8,361.4,322.8,361.4,322.8,361.3 M320.9,359.4l-0.1,1.7c0,0,0.1,0,0.1,0.1l1.3-1.2C321.9,359.7,321.5,359.5,320.9,359.4
		 M320.7,359.4c-0.5,0-0.9,0.2-1.2,0.5l1.2,1.3h0.1l0.1-1.7C320.8,359.4,320.7,359.4,320.7,359.4 M318.8,361.3l1.7,0.1
		c0,0,0-0.1,0.1-0.1l-1.2-1.3C319,360.3,318.8,360.7,318.8,361.3 M320.7,359c1.3-0.1,2.5,1,2.6,2.3s-1,2.5-2.3,2.6s-2.5-1-2.6-2.3
		C318.3,360.2,319.3,359,320.7,359"/>
	<path class="st23" d="M323.3,357.5c0,0,0.3-0.4-0.7-0.8c0,0,0.4-0.4,0.5-0.2c0,0,0,0.1,0.1,0.1c0,0,0.3,0.1-0.1-0.4
		c0,0-0.9,0.3-0.9,0.6c0,0,0.3,0.1,0.5,0.2s0.4,0.3,0.5,0.4v0.1C323.1,357.5,323.2,357.8,323.3,357.5"/>
	<path class="st23" d="M326,361c0.3,0,0.6,0.3,0.6,0.6c0,0.3-0.3,0.6-0.6,0.6c-0.3,0-0.6-0.3-0.6-0.6S325.7,361,326,361 M326,362.4
		c0.4,0,0.7-0.3,0.7-0.7c0-0.4-0.3-0.7-0.7-0.7c-0.4,0-0.7,0.3-0.7,0.7C325.3,362,325.6,362.4,326,362.4"/>
</g>
<path class="st25" d="M217.8,263.7h-7.2v-22.6h7.2v13.6c0,0.1-0.1,0.3-0.1,0.4s0,0.3,0.1,0.5V263.7z"/>
<polygon class="st26" points="210.6,263.7 217.8,263.7 217.8,270.8 214.8,270.8 210.6,270.8 203.5,263.7 "/>
<path class="st27" d="M210.6,270.8h4.2c1.8,0.8,2.8,2.4,2.9,4.9v1.1h-14.2v-6H210.6z"/>
<polygon class="st28" points="210.6,241.1 210.6,263.7 203.5,263.7 203.5,263.5 203.5,241.1 "/>
<polygon class="st29" points="203.5,270.8 203.5,263.7 210.6,270.8 "/>
<polygon class="st29" points="207.9,196.7 218.7,193.8 219.2,195.9 216.3,196.7 210.5,198.2 207.9,196.7 209.3,202.1 207.3,202.6 
	206.9,201.3 204.6,202 200.1,209.8 199.8,209.6 197.7,201.7 197.2,199.6 "/>
<polygon class="st30" points="206.6,191.7 217.3,188.8 218.7,193.8 207.9,196.7 197.2,199.6 195.8,194.6 "/>
<polygon class="st31" points="209.3,202.1 207.9,196.7 210.5,198.2 216.3,196.7 218.4,204.5 216.3,208.1 211.3,209.5 "/>
<polygon class="st32" points="217.3,188.8 206.6,191.7 204.7,184.8 208.6,183.8 "/>
<polygon class="st33" points="204.7,184.8 206.6,191.7 195.8,194.6 200.9,185.9 "/>
<polygon class="st34" points="209.3,202.1 211.3,209.5 205.7,211 203.4,211.6 200.1,209.8 204.6,202 206.9,201.3 207.3,202.6 "/>
<path class="st30" d="M211.7,216h6v32.6h-6h-1.5h-3.4H196v-10.1v-7.4c-0.1-6.6,1.2-11.7,3.9-15.2L211.7,216L211.7,216z"/>
<path class="st35" d="M211.7,209.9v0.1V209.9z"/>
<path class="st32" d="M211.7,210v6h-11.8c0.5-0.7,1.1-1.3,1.7-1.9c1.2-1.1,2.7-2,4.3-2.8C207.6,210.7,209.5,210.2,211.7,210
	L211.7,210z"/>
<polygon class="st33" points="217.7,216 211.7,216 211.7,210 "/>
<path class="st29" d="M236,236c0,0.9-0.3,1.7-1,2.3c-0.6,0.7-1.4,1-2.4,1c-0.9,0-1.7-0.3-2.4-1c-0.6-0.6-1-1.4-1-2.3s0.3-1.7,1-2.4
	c0.7-0.6,1.5-0.9,2.4-0.9s1.7,0.3,2.4,0.9C235.6,234.2,236,235,236,236 M293.1,201.4l2.5,2.4l0.2,0.2l0,0c0.7,0.7,1.1,1.5,1.1,2.5
	v1.8c0,1-0.4,1.8-1.1,2.5l-1.8,1.8l3.8,3.8h-9.3l3.8-3.8l-1.5-1.5l-0.2-0.2l0,0c-0.7-0.6-1-1.4-1.1-2.3c0-0.1,0-0.2,0-0.2h-2.2
	l2.4-2.4c0.1-0.8,0.5-1.4,1-2L293.1,201.4z M267.4,201.1c7.7-3.5,15.9-6.1,24.5-7.7c0.1-0.1,0.1-0.2,0.2-0.3
	c0.2-0.2,0.5-0.3,0.8-0.3s0.6,0.1,0.8,0.3c0.2,0.2,0.4,0.5,0.4,0.9c0,0.3-0.1,0.6-0.4,0.8c-0.2,0.2-0.5,0.3-0.8,0.3
	s-0.5-0.1-0.7-0.2c-8.6,1.6-16.7,4.1-24.3,7.6c-0.1,0.2-0.2,0.3-0.5,0.5c-8.6,3.9-16.6,9-24,15.2l0,0c0,0.4-0.2,0.8-0.5,1
	c-9.3,8.1-17.7,18-25,29.9c-0.2,0.3-0.5,0.5-0.9,0.6s-0.8,0-1.2-0.1c-0.3-0.2-0.5-0.6-0.7-1c-0.1-0.4,0-0.8,0.2-1.1
	c7.5-12.1,16-22.3,25.6-30.5c0.3-0.3,0.6-0.4,1-0.4h0.1c7.5-6.3,15.6-11.5,24.4-15.5C266.9,201,267.2,201,267.4,201.1"/>
<path class="st36" d="M217.7,228.8v12.3v-0.6h2.5c2.1-3,4.3-5.9,6.6-8.7h-5.4v1.1h-3.7L217.7,228.8L217.7,228.8z M227.5,235.7
	c-1.2,1.6-2.4,3.2-3.6,4.8h3.6V235.7z"/>
<path class="st37" d="M205.7,219.1h-1.8v15.6c0,1.2,0.4,2.3,1,3.2c0.2,0.3,0.5,0.6,0.8,0.9v0.1c0.1,0.1,0.2,0.2,0.2,0.2l9.3,9.3
	c0-0.3,0.1-0.5,0.2-0.8c0.7-1.1,1.4-2.3,2.2-3.4v-3.1v-12.3l-8-8c-0.1-0.1-0.4-0.3-0.8-0.6c-0.8-0.6-1.8-0.9-2.9-1
	C206,219.1,205.8,219.1,205.7,219.1"/>
<path class="st38" d="M227.5,231.8h-0.7c-2.3,2.8-4.5,5.7-6.6,8.7h3.7c1.2-1.6,2.4-3.2,3.6-4.8V231.8z M217.7,244.1L217.7,244.1
	c-0.7,1.1-1.4,2.2-2.2,3.4c-0.2,0.2-0.2,0.5-0.2,0.8l0.3,0.3h2.1L217.7,244.1L217.7,244.1z"/>
<polygon class="st31" points="221.4,240.5 221.4,232.9 221.4,231.8 227.5,237.8 227.5,240.5 "/>
<path class="st39" d="M221.4,232.9v7.6h-11.7c-1.6,0-2.9-0.6-4-1.8v-0.1c-0.3-0.3-0.5-0.6-0.8-0.9c-0.7-0.9-1-2-1-3.2V219h1.8
	c0.2,0,0.3,0,0.4,0c1.1,0.1,2.1,0.4,2.9,1c0.5,0.4,0.7,0.6,0.8,0.7c1.2,1.2,1.8,2.6,1.8,4.2v7.8h9.8V232.9z"/>
<polygon class="st34" points="227.5,237.8 221.4,231.8 227.5,231.8 "/>
<path class="st40" d="M45.7,199.2"/>
<path class="st41" d="M249,295.1"/>
<path class="st42" d="M249,295.1"/>
<polygon class="st1" points="249.3,295 251.1,295.5 251.3,295.2 249.3,294.8 "/>
<g id="Layer_2">
</g>
<g id="skigaer">
	<polygon class="st43" points="160.8,379.9 131.6,370 157.8,395.6 	"/>
	<polygon class="st43" points="150.9,394.9 133.1,388.3 112.7,406.4 130.4,371.8 	"/>
	<polygon class="st44" points="139.1,343 132.5,364.9 141.9,354.7 	"/>
	<polygon class="st43" points="108.3,387.3 124.7,348.6 107.5,370.5 	"/>
	<polygon class="st45" points="183.3,357.8 179.8,361.4 174.7,356.4 169.7,361.4 169.7,333.2 	"/>
	<polygon class="st46" points="169.7,405.5 169.7,361.4 174.7,356.4 179.8,361.4 183.3,357.8 209.8,405.6 169.7,405.6 	"/>
	<polygon class="st47" points="169.7,361.4 159.6,351.4 169.7,333.2 	"/>
	<g>
		<path class="st33" d="M159.6,351.4l10,10v44.1h-25.2c-5.5,0-8.2-2.8-8.2-8.2v-3.4L159.6,351.4z"/>
		<path class="st36" d="M137.7,402.8l-1.5,2.8h33.5v-0.1h-25.2C141.3,405.5,139.1,404.6,137.7,402.8"/>
	</g>
	<polygon class="st30" points="169.7,385.4 169.7,405.5 169.7,405.6 176.3,405.6 176.3,405.5 189.8,405.5 	"/>
	<g>
		<path class="st48" d="M158.9,374.6v6.7h-9.3l-11.9,21.5c1.3,1.8,3.6,2.7,6.7,2.7h25.3v-20.1L158.9,374.6z"/>
		<path class="st26" d="M159.7,423h-2.9v-47.1c0-0.4,0.1-0.7,0.4-1c0.3-0.3,0.6-0.4,1-0.4s0.7,0.1,1,0.4s0.4,0.6,0.5,1V423z"/>
	</g>
	<polygon class="st28" points="159.7,424.5 156.8,424.5 154.2,424.5 154.2,423 156.8,423 159.7,423 162.5,423 162.5,424.5 	"/>
	<polygon class="st49" points="156.8,424.5 159.7,424.5 159.7,427.3 	"/>
	<polygon class="st25" points="156.8,424.5 159.7,427.3 159.7,434.1 158.3,435.5 156.8,434.1 	"/>
	<g>
		<path class="st28" d="M122.2,362.8v6v8.8l-8.2-8.2v-4.7v-1.9L122.2,362.8L122.2,362.8z M128.4,422.9h-14.5v-17.4h16.5v6.6
			c-0.5,0-1,0.2-1.4,0.6c-0.3,0.3-0.5,0.7-0.6,1.1c0,0.1-0.1,0.3-0.1,0.4s0,0.3,0.1,0.5V422.9z M130.4,340.6h-11.3l7.2-7.2h4.1
			V340.6z"/>
		<path class="st25" d="M147,422.9h-14.6v-8.3c0-0.2,0.1-0.3,0.1-0.5v-0.4c-0.1-0.4-0.3-0.8-0.6-1.1c-0.4-0.4-0.9-0.6-1.4-0.6v-6.6
			h16.6v17.5H147z M147,364.6V378h-8.3v-9.2v-6h8.3V364.6z M141.7,340.6h-11.3v-7.2h4.1L141.7,340.6z"/>
	</g>
	<path class="st49" d="M147,386.3l-8.3-8.3h8.3v2.4V386.3z M141.7,345.9h-11.3h-11.3v-5.3h11.3h11.3V345.9z"/>
	<path class="st29" d="M114,400h16.5H147v5.6h-16.5H114V400z M130.4,345.9h11.3v2.2h-9.1L130.4,345.9v2.2h-11.3v-2.2H130.4z"/>
	<g>
		<path class="st31" d="M146.9,435.4c-0.1-1.8-0.9-3.4-2.1-4.6c-1.4-1.4-3.1-2.1-5.2-2.1c-2,0-3.7,0.7-5.1,2.1
			c-1.2,1.2-1.9,2.6-2.1,4.3V423H147L146.9,435.4L146.9,435.4z M114,435.4L114,435.4l-0.1-12.5h14.4V435c-0.2-1.7-0.9-3.1-2.1-4.3
			c-1.4-1.4-3.1-2.1-5.1-2.1s-3.7,0.7-5.2,2.1C114.8,432.1,114.1,433.6,114,435.4 M155.2,377.5l6.1,6.1v2.6h-6.1v-7.7V377.5z
			 M136.5,359.4h-6.1v-11.3V346l2.1,2.1h9.2v8.3l-3.1,3H136.5z"/>
		<path class="st50" d="M114,435.4c0.1-1.8,0.8-3.4,2.1-4.6c1.4-1.4,3.1-2.1,5.1-2.1s3.7,0.7,5.1,2.1c1.2,1.2,1.9,2.6,2.1,4.3v0.4
			L114,435.4L114,435.4z M146.9,435.4h-14.5V435c0.2-1.7,0.9-3.1,2-4.3c1.4-1.4,3.2-2.1,5.2-2.1s3.8,0.7,5.1,2.1
			C146.1,432.1,146.8,433.6,146.9,435.4 M130.4,359.4h6.1v1.2v2.1l-6.1,6.1l-6-6v-2.3v-1.2L130.4,359.4L130.4,359.4z"/>
	</g>
	<path class="st51" d="M124.5,362.8l-2.3-2.3h2.3V362.8z M138.7,360.5l-2.2,2.1v-2.1H138.7z"/>
	<path class="st34" d="M115.6,386.3v-7.7v-1.1h6.6v8.8L115.6,386.3L115.6,386.3z M161.4,383.7l-6.2-6.1h6.2V383.7z"/>
	<g>
		<path class="st35" d="M114,364.6v4.7v9.3h1.6l-5.9,6h-0.1c-1-1-1.6-2.2-1.7-3.5c0-0.2-0.1-0.4-0.1-0.6v-9.8c0-1.7,0.6-3.2,1.8-4.3
			c0.2-0.2,0.5-0.4,0.8-0.6C111.5,365,112.6,364.6,114,364.6 M130.4,400h-16.5v-13.6h1.6h6.6v-8.8l8.2-8.2L130.4,400L130.4,400z
			 M122.2,360.5l2.3,2.3l6,6l6.1-6.1l2.2-2.1v2.2v6h-8.2h-8.2v-6v-2.3H122.2z"/>
		<path class="st39" d="M115.6,378.6v7.7H114h-0.3h-0.2c-1.5-0.1-2.8-0.7-3.8-1.8L115.6,378.6z M122.2,368.8h8.2h8.2v9.2l8.3,8.3
			v13.6h-16.6v-30.7l-8.2,8.2v-8.6H122.2z M147,378v-13.4c1.3,0,2.5,0.4,3.5,1.1c0.3,0.2,0.6,0.4,0.8,0.7c1.2,1.2,1.8,2.6,1.8,4.3
			v7.9h2.2v7.7h-2.2c-1.7,0-3.1-0.6-4.2-1.8c-1.2-1.2-1.8-2.5-1.8-4.2V378H147z"/>
	</g>
	<polygon class="st52" points="115.6,378.6 114,378.6 114,369.3 122.2,377.5 115.6,377.5 	"/>
	<g>
		<path class="st26" d="M128.4,414.6c0-0.2-0.1-0.3-0.1-0.5s0-0.3,0.1-0.4V414.6z M132.5,413.8v0.3c0,0.1,0,0.3-0.1,0.5L132.5,413.8
			z"/>
	</g>
	<g>
		<path class="st53" d="M209.5,378.9c-2.5-2.5-5.6-3.8-9.1-3.8c-2.8,0-5.2,0.8-7.4,2.3h-3.4c0,0,0,0,0.1-0.1
			c2.9-2.9,6.5-4.4,10.7-4.4s7.7,1.5,10.7,4.4c3,3,4.4,6.5,4.4,10.7c0,2.9-0.7,5.6-2.2,7.9l-0.1-7.5l0.1-0.4v-0.3
			C213.2,384.3,212,381.4,209.5,378.9"/>
		<path class="st54" d="M200.3,388.1l9.2-9.2c2.4,2.4,3.7,5.4,3.8,8.8v0.3l-0.1,0.4c-0.1,3.4-1.3,6.3-3.7,8.7l-0.1,0.1l-7.2-7.2
			L200.3,388.1z"/>
		<path class="st55" d="M191.2,379l-1.6-1.6h3.4C192.4,377.9,191.8,378.4,191.2,379C191.2,378.9,191.2,379,191.2,379 M202.2,402.9
			l7.1-5.5c0.1-0.1,0.1-0.1,0.1-0.1s0,0,0.1-0.1c2.4-2.4,3.7-5.3,3.7-8.7l0.1,7.5c-0.6,1-1.4,1.9-2.2,2.8l-0.1,0.1
			c-0.6,0.6-1.2,1.2-1.9,1.7c-0.1,0.1-0.2,0.1-0.3,0.2l-5,3.9L202.2,402.9z"/>
		<path class="st35" d="M209.5,378.9l-9.2,9.2l-9.1-9.1c0,0,0,0,0.1-0.1c0.6-0.6,1.1-1,1.7-1.5c2.1-1.5,4.6-2.3,7.4-2.3
			C204,375.1,207,376.4,209.5,378.9"/>
		<path class="st38" d="M164.1,410.2l14.2,14.2c-1.3,0.9-2.7,1.5-4.2,1.7l-11.8-11.8C162.6,412.8,163.2,411.4,164.1,410.2
			 M169.2,403.6l15.6,15.6l-3.3,2.6l-14.8-14.9L169.2,403.6z M188.1,416.7l-16.3-16.3l2.5-3.3l17.1,17.1L188.1,416.7z M184.5,383.9
			l11.9,12l-2.9,2.9l-11.6-11.6L184.5,383.9z M193.2,410.1l-16.3-16.3l2.5-3.3l13.8,13.8v-5.2c0.9,0.9,1.8,1.6,2.8,2.2l5.2,5.2
			l-3.2,2.6l-4.8-4.8V410.1l1.5,1.5l-1.5,1.2V410.1z M191.2,379l9.1,9.1l1.9,1.9l-2.9,2.9L187,380.7l0.8-1c0.5-0.8,1.1-1.5,1.8-2.2
			L191.2,379z"/>
		<path class="st47" d="M193.5,398.8l2.9-2.9l2.9-2.9l2.9-2.9v12.8c-2.3,0-4.4-0.5-6.2-1.6c-1-0.6-1.9-1.3-2.8-2.2L193.5,398.8z"/>
		<path class="st26" d="M162.4,414.3l11.8,11.8c-0.6,0.1-1.1,0.1-1.7,0.1c-2.8,0-5.2-1-7.2-3s-3-4.4-2.9-7.2
			C162.3,415.4,162.3,414.8,162.4,414.3 M164.1,410.2c0.3-0.5,0.6-0.9,1-1.2l1.6-2l14.9,14.9l-2.1,1.6c-0.4,0.3-0.7,0.7-1.1,1
			L164.1,410.2z M171.8,400.3l16.3,16.3l-3.2,2.5l-15.6-15.6L171.8,400.3z M174.3,397.1l2.5-3.3l16.3,16.3v2.7l-1.8,1.4L174.3,397.1
			z M179.4,390.5l2.5-3.3l11.6,11.6l-0.3,0.3v5.2L179.4,390.5z M184.5,383.9l2.5-3.3l12.3,12.3l-2.9,2.9L184.5,383.9z"/>
		<path class="st56" d="M198,409.1l-3.3,2.5l-1.5-1.5v-5.8L198,409.1z M201.2,406.5l-5.2-5.2c1.9,1.1,4,1.6,6.2,1.6l1.6,1.6
			L201.2,406.5z"/>
		<path class="st39" d="M202.2,390l7.2,7.2l-0.1,0.1l-7.1,5.5L202.2,390L202.2,390z"/>
	</g>
	<path class="st28" d="M207,411.3l-2.3-2.3h2.3V411.3z M189.4,409v2.3l-2.3-2.3H189.4z"/>
	<g>
		<path class="st34" d="M207,414.9v-3.6V409c0-0.8,0.4-1.3,1.2-1.3h5.4c0.8,0,1.2,0.4,1.2,1.3v5.9H207L207,414.9z M187.1,409v5.9
			h-7.9V409c0-0.8,0.4-1.3,1.2-1.3h5.4C186.7,407.7,187.1,408.2,187.1,409 M189.4,411.3V409c0-0.8,0.4-1.3,1.2-1.3h12.9
			c0.8,0,1.2,0.4,1.2,1.3v5.9h-15.3L189.4,411.3L189.4,411.3z"/>
	</g>
	<path class="st25" d="M189.4,414.9v5.9h-2.3v-5.9V409l2.3,2.3V414.9z M207,420.8h-2.3v-5.9V409l2.3,2.3v3.6V420.8z"/>
	<g>
		<path class="st53" d="M189.4,420.8v-5.9h15.3v5.9c0,0.8-0.4,1.2-1.2,1.2h-12.9C189.8,422,189.4,421.6,189.4,420.8 M187.1,420.8
			c0,0.8-0.4,1.2-1.2,1.2h-5.4c-0.8,0-1.2-0.4-1.2-1.2v-5.9h7.9v5.9H187.1z M207,414.9h7.9v5.9c0,0.8-0.4,1.2-1.2,1.2h-5.4
			c-0.8,0-1.2-0.4-1.2-1.2L207,414.9L207,414.9z"/>
	</g>
	<path class="st34" d="M185.2,423.4c1,0,1.9,0.3,2.7,0.9l0,0c0.1,0.1,0.2,0.2,0.3,0.3c0.8,0.8,1.2,1.8,1.2,2.9v1.4
		c-0.1,0-0.1-0.1-0.2-0.1c-0.9-0.7-2-1.1-3.2-1.1c-0.3,0-0.6,0-0.9,0.1L185.2,423.4L185.2,423.4L185.2,423.4z M172.2,424.4
		L172.2,424.4c0.8-0.7,1.7-1,2.7-1v4.4c-0.3-0.1-0.6-0.1-0.9-0.1c-1.2,0-2.3,0.4-3.2,1.1c-0.1,0-0.1,0.1-0.2,0.1v-1.4
		c0-1.1,0.4-2.1,1.2-2.9C172,424.5,172.1,424.5,172.2,424.4"/>
	<path class="st26" d="M170.1,438.1h7.8c-0.1,0.8-0.5,1.5-1.1,2.1c-0.8,0.8-1.7,1.1-2.8,1.1s-2-0.4-2.8-1.1
		C170.6,439.6,170.2,438.9,170.1,438.1 M190,438.1c-0.1,0.8-0.5,1.5-1.1,2.1c-0.8,0.8-1.7,1.1-2.8,1.1s-2-0.4-2.8-1.1
		c-0.6-0.6-1-1.3-1.1-2.1H190z M187.9,424.4L187.9,424.4c-0.8-0.7-1.7-1-2.7-1s-1.9,0.3-2.7,0.9l0,0v-0.4l0,0c0-0.8,0.3-1.4,0.8-1.9
		s1.2-0.8,1.9-0.8c0.8,0,1.4,0.3,1.9,0.8s0.7,1.1,0.8,1.7v0.1V424.4L187.9,424.4z M177.2,432.9v-4.1v-1.6h1.9h1.9h1.9v1.6v4.1H177.2
		z M177.6,424.4L177.6,424.4c-0.8-0.7-1.7-1-2.7-1s-1.9,0.3-2.7,0.9l0,0v-0.6v-0.1c0-0.7,0.3-1.3,0.8-1.7c0.5-0.5,1.2-0.8,1.9-0.8
		s1.4,0.3,1.9,0.8s0.8,1.2,0.8,1.9l0,0V424.4z"/>
	<path class="st28" d="M182.2,438.1c0.1,0.8,0.5,1.5,1.1,2.1c0.8,0.8,1.7,1.1,2.8,1.1s2-0.4,2.8-1.1c0.6-0.6,1-1.3,1.1-2.1
		c0,0.2,0,0.4,0.1,0.6v0.2c0,1-0.4,1.9-1.1,2.7c-0.8,0.8-1.7,1.1-2.8,1.1s-2-0.4-2.8-1.1c-0.7-0.7-1.1-1.5-1.1-2.4v-0.8
		C182.2,438.3,182.2,438.2,182.2,438.1 M179.1,439.3v-1c0-0.1,0-0.1,0-0.2c-0.1-0.9-0.4-1.6-0.9-2.3c-0.2-0.2-0.4-0.4-0.6-0.7
		c-0.5-0.5-1-0.9-1.6-1.1c-0.4-0.1-0.7-0.3-1.1-0.3c-0.3-0.1-0.6-0.1-0.9-0.1c-0.7,0-1.4,0.1-2,0.4c-0.6,0.2-1.2,0.6-1.6,1.1
		c-0.2,0.2-0.4,0.4-0.6,0.7c-0.6,0.8-0.9,1.8-0.9,2.9v-5.9c0-1.4,0.5-2.6,1.5-3.6c0.1-0.1,0.2-0.2,0.3-0.3c0.1,0,0.1-0.1,0.2-0.1
		c0.9-0.7,2-1.1,3.2-1.1c0.3,0,0.6,0,0.9,0.1c0.9,0.1,1.6,0.5,2.3,1v4.1l1.9,1.9v3.5c0,0.1,0,0.3,0,0.4v0.2
		C179.1,439,179.1,439.2,179.1,439.3 M170.1,438.1c0.1,0.8,0.5,1.5,1.1,2.1c0.8,0.8,1.7,1.1,2.8,1.1s2-0.4,2.8-1.1
		c0.6-0.6,1-1.3,1.1-2.1c0,0.1,0,0.2,0,0.3v0.8c-0.1,0.9-0.5,1.7-1.1,2.4c-0.8,0.8-1.7,1.1-2.8,1.1s-2-0.4-2.8-1.1
		c-0.7-0.8-1.1-1.6-1.1-2.7v-0.2C170.1,438.5,170.1,438.3,170.1,438.1 M181,434.8l1.9-1.9v-4.1c0.7-0.6,1.4-0.9,2.3-1
		c0.3-0.1,0.6-0.1,0.9-0.1c1.2,0,2.3,0.4,3.2,1.1c0.1,0,0.1,0.1,0.2,0.1c0.1,0.1,0.2,0.2,0.3,0.3c1,1,1.5,2.2,1.5,3.6v5.9
		c0-0.2,0-0.4,0-0.6c-0.1-0.9-0.4-1.6-0.9-2.3c-0.2-0.2-0.3-0.4-0.6-0.7c-0.5-0.5-1-0.9-1.6-1.1c-0.6-0.3-1.3-0.4-2-0.4
		c-0.3,0-0.6,0-0.9,0.1c-0.4,0.1-0.8,0.2-1.1,0.3c-0.4,0.2-0.8,0.4-1.2,0.7c-0.1,0.1-0.3,0.2-0.4,0.4c-0.2,0.2-0.4,0.4-0.6,0.7
		c-0.5,0.7-0.8,1.5-0.9,2.3c0,0.1,0,0.1,0,0.2v1c0-0.1,0-0.2,0-0.4v-0.2c0-0.1,0-0.3,0-0.4L181,434.8L181,434.8z"/>
	<path class="st25" d="M182.2,438.1c0,0.1,0,0.2,0,0.3v0.8c0.1,0.9,0.5,1.7,1.1,2.4c0.8,0.8,1.7,1.1,2.8,1.1s2-0.4,2.8-1.1
		c0.7-0.8,1.1-1.6,1.1-2.7v-0.2c0-0.2,0-0.4-0.1-0.6c-0.1-0.6-0.3-1.1-0.7-1.6c-0.1-0.2-0.3-0.3-0.4-0.5c-0.8-0.8-1.7-1.1-2.8-1.1
		c-0.3,0-0.6,0-0.9,0.1c-0.7,0.1-1.3,0.5-1.9,1c-0.2,0.2-0.3,0.3-0.4,0.5C182.5,437,182.3,437.5,182.2,438.1 M170.1,438.1
		c0,0.2,0,0.4-0.1,0.6v0.2c0,1,0.4,1.9,1.1,2.7c0.8,0.8,1.7,1.1,2.8,1.1s2-0.4,2.8-1.1c0.7-0.7,1.1-1.5,1.1-2.4v-0.8
		c0-0.1,0-0.2,0-0.3c-0.1-0.6-0.3-1.1-0.7-1.6c-0.1-0.2-0.3-0.3-0.4-0.5c-0.8-0.8-1.7-1.1-2.8-1.1s-2,0.4-2.8,1.1
		c-0.2,0.2-0.3,0.3-0.4,0.5C170.4,437,170.2,437.5,170.1,438.1 M179.1,439.3c-0.1,1.2-0.6,2.2-1.5,3.1c-1,1-2.2,1.5-3.6,1.5
		c-1.4,0-2.6-0.5-3.6-1.5s-1.5-2.1-1.5-3.5v-0.2c0-1.1,0.3-2,0.9-2.9c0.2-0.2,0.3-0.4,0.6-0.7c0.5-0.5,1-0.9,1.6-1.1
		c0.6-0.3,1.3-0.4,2-0.4c0.3,0,0.6,0,0.9,0.1c0.4,0.1,0.8,0.2,1.1,0.3c0.6,0.2,1.1,0.6,1.6,1.1c0.2,0.2,0.4,0.4,0.6,0.7
		c0.5,0.7,0.8,1.5,0.9,2.3c0,0.1,0,0.1,0,0.2V439.3z M181,439.3v-1c0-0.1,0-0.1,0-0.2c0.1-0.9,0.4-1.6,0.9-2.3
		c0.2-0.2,0.4-0.4,0.6-0.7c0.1-0.1,0.3-0.3,0.4-0.4c0.4-0.3,0.8-0.6,1.2-0.7s0.7-0.2,1.1-0.3c0.3-0.1,0.6-0.1,0.9-0.1
		c0.7,0,1.4,0.1,2,0.4c0.6,0.2,1.2,0.6,1.6,1.1c0.2,0.2,0.4,0.4,0.6,0.7c0.5,0.7,0.8,1.5,0.9,2.3c0,0.2,0,0.4,0,0.6v0.2
		c0,1.4-0.5,2.5-1.5,3.5s-2.2,1.5-3.6,1.5s-2.6-0.5-3.6-1.5C181.6,441.5,181.1,440.5,181,439.3"/>
	<path class="st29" d="M190,438.1h-7.8c0.1-0.6,0.3-1.1,0.7-1.6c0.1-0.2,0.3-0.3,0.4-0.5c0.6-0.6,1.2-0.9,1.9-1
		c0.3-0.1,0.6-0.1,0.9-0.1c1.1,0,2,0.4,2.8,1.1c0.2,0.2,0.3,0.3,0.4,0.5C189.7,437,189.9,437.5,190,438.1 M177.9,438.1h-7.8
		c0.1-0.6,0.3-1.1,0.7-1.6c0.1-0.2,0.3-0.3,0.4-0.5c0.8-0.8,1.7-1.1,2.8-1.1s2,0.4,2.8,1.1c0.2,0.2,0.3,0.3,0.4,0.5
		C177.6,437,177.8,437.5,177.9,438.1 M182.9,432.9l-1.9,1.9h-1.9l-1.9-1.9H182.9z"/>
	<path class="st57" d="M182.9,428.8v-1.6H181c0-0.4,0.1-0.7,0.2-1c0.2-0.6,0.5-1.1,1-1.5c0.1-0.1,0.2-0.2,0.3-0.3l0,0
		c0.8-0.6,1.6-0.9,2.7-0.9v4.4C184.4,427.9,183.6,428.3,182.9,428.8 M177.2,428.8c-0.7-0.6-1.4-0.9-2.3-1v-4.4c1,0,1.9,0.3,2.7,0.9
		l0,0c0.1,0.1,0.2,0.2,0.3,0.3c0.4,0.4,0.8,0.9,1,1.5c0.1,0.3,0.2,0.7,0.2,1h-1.9V428.8z"/>
</g>
<g id="polse" type="image/svg+xml">
	<path class="st58" d="M400.5,386.9l-4.5,3c-0.1-4.7-4-8.5-8.7-8.5h-88.2c-4.6,0-8.4,3.6-8.7,8.2l-4.5-3.4l-0.1,7.8l4.6-3.2
		c0.4,4.5,4.1,8,8.7,8h88.2c4.4,0,8-3.2,8.6-7.4l4.4,3.3L400.5,386.9z M299.1,382.5h88.2c4.1,0,7.4,3.2,7.6,7.2
		c-63.7,0-48.3-0.2-103.4,0C291.7,385.7,295,382.5,299.1,382.5z"/>
	<path class="st59" d="M394.9,389.7c0-5.2-2.6-7.2-7.1-7.2l-87.5-0.1c-4.5,0-8.7,2-8.7,7.3c55.7,0.3,37.1,0.1,101.7,0.1L394.9,389.7
		z"/>
</g>
<g>
	<path class="st60" d="M428.6,275c-0.5-0.1-1.2,0.2-1.8,1.1c-0.7,1-1.3,2.6-1.7,5.2c0,0.4-0.1,0.8-0.1,1.2c-0.1,0.5-0.1,0.9-0.1,1.4
		c0,0.1,0,0.2,0,0.3v0.1c0,1.8,0.4,3.2,1.1,3.3c0.3,0.1,0.6-0.1,1-0.5c0.1-0.2,0.3-0.5,0.5-0.8c0.2-0.4,0.5-0.9,0.8-1.5
		c0.1,0,0.1-0.1,0.1-0.1c0.4-0.7,0.9-1.7,1.4-2.8c0.3-0.7,0.5-1.5,0.5-2.3C430.3,277.3,429.3,275,428.6,275z"/>
	<path class="st60" d="M414.6,285.9c-4.4,0.4-5.7,3-5.3,7.5c0.1,1.2,0.1,2.4,0.7,3.4l5.1,19.4l2.6-0.3l2.6-0.3l1-20
		c0.4-1.1,0.1-2.2,0-3.4C420.8,287.7,419,285.4,414.6,285.9z"/>
	<path class="st60" d="M366.3,289.6c0,0-2.4,9.9,6.4,17.7c1.4,1.7,1.3,3.6,1.2,4.2c-0.6,0.8-0.6,1.9,0,2.8l2.9,3.6
		c0.8,1.1,0.7,0.1,1.7-0.6l1.1,1.4c1-0.7,1.5-2.1,0.7-3.2l-1.9-2.6l2.9-4.6c0.1-0.3,0.2-0.6,0.2-0.9c0.1-0.3,0.1-0.6,0.1-0.8v-0.8
		c0.3-1.5,1.4-4.7,5.9-4.7l-9.8-11.5H366.3z"/>
	<polygon class="st60" points="366,320.2 367.6,318.9 368.5,318.1 371.1,320.2 371.1,316.4 366,316.4 	"/>
	<polygon class="st60" points="406,319.8 408.8,318 411.1,320.5 411.2,316.6 406.1,315.9 	"/>
	<path class="st60" d="M405.6,296.8c0,0-2.7,4.8-0.8,8.5l1.1-0.1C405.9,305.2,404,299.8,405.6,296.8z"/>
	<path class="st60" d="M439.4,290.5c-0.9-0.1-2.1,2.6-2.1,4.5c0,1.8,1.2,2.1,2.1,2.1c0.9,0,1.7-1.5,1.7-3.3S440.4,290.5,439.4,290.5
		z"/>
</g>
<g>
	<polygon class="st61" points="415.2,316.1 415.5,319.9 417.9,317.5 420.7,319.8 420.3,315.5 	"/>
	<polygon class="st61" points="375.5,320.2 378.1,318.1 380.6,320.2 380.6,316.4 375.5,316.4 	"/>
	<path id="gris" class="st61" d="M438.8,290.4L438.8,290.4c0,0-4.3-0.7-9.7-5c-0.1-0.1-0.1-0.3-0.2-0.4c-0.1-0.1-0.2-0.3-0.3-0.4
		c-0.6-0.8-1.4-1.5-2.3-2l-1.2-0.3l-1.2-0.3l-0.3-0.1c0,0,0.1-0.1,0.1-0.1c1.4-2.7-0.2-6.8-1.3-6.9c-0.9-0.1-2.5,1.1-3.3,5.5
		c-0.9-0.3-1.7-0.5-2.7-0.6c-0.9-0.1-1.7-0.1-2.5-0.1c0,0,0,0,0,0l-0.1,0l-44.9-1.6c-0.2,0-0.5,0-0.7,0v0.1c-3,0.1-5.7,1.3-7.7,3.4
		c-0.1,0-0.2,0.1-0.3,0.2c0,0.1-0.1,0.1-0.1,0.2c-0.3,0.3-0.5,0.6-0.7,0.9c-0.1,0.1-0.3,0.2-0.5,0.3c-0.3,0.2-0.6,0.3-1,0.4
		c-0.9,0.3-1.8,0.2-2.6-0.1l-0.5-0.3c-0.7-0.4-1.2-1-1.3-1.7c-0.3-0.8-0.2-1.6,0.2-2.3c0.3-0.5,0.8-0.9,1.4-1.1
		c0.6-0.2,1.3-0.1,1.8,0.2c0.9,0.4,1.2,1.5,0.7,2.4c-0.1,0.2,0,0.5,0.2,0.6c0.2,0.1,0.5,0,0.6-0.2c0.7-1.3,0.3-2.9-1-3.6
		c-0.7-0.4-1.6-0.5-2.4-0.3s-1.5,0.7-1.9,1.5c-0.5,0.9-0.6,1.9-0.3,2.9c0.2,0.5,0.4,1,0.8,1.3l-0.1,0.1c0.8,1.4,4.1,2.5,4.1,2.5
		l0.6-0.6c-0.1,0.2-0.2,0.4-0.3,0.7c-0.5,1.2-0.8,2.5-0.8,4h-0.1c0,0-2.3,9.6,6.1,17.4l0,0.1c1.5,1.6,1.5,3.4,1.4,4.2c0,0,0,0,0,0
		c-0.4,0.4-0.6,1-0.6,1.5s0.2,1.1,0.5,1.5l1.7,2.1l1.2,1.4c0.8,1.1,0.7,0.1,1.7-0.6l1.1,1.4c0.7-0.5,1.1-1.2,1.1-2
		c0-0.1,0-0.2,0-0.2c-0.1-0.3-0.2-0.6-0.4-0.9l-1.9-2.6l0-0.1l2.6-4c0.1-0.1,0.2-0.3,0.3-0.4l0.1-0.2c0,0,0,0,0-0.1
		c0.2-0.5,0.4-1,0.4-1.6h0c0,0,0.1-2.6,2-4.2c0.1-0.1,0.3-0.2,0.4-0.3c0,0,0.1,0,0.2-0.1c0.5-0.3,1.1-0.6,1.8-0.7
		c0.2-0.1,0.3-0.1,0.5-0.1c0.4-0.1,0.7-0.1,1.1-0.1l0,0h2.5l0,0c12.8,5,24.4,4.2,25.2,4.1l0.2,10.6l2.6,0.4l2.6,0.4l3.5-11.4
		c2.1-1,3.8-2.2,5.3-3.2c7.7,1.1,12.9-3.2,12.9-3.2c1.2-1.3,5.9-1.6,5.9-1.6h0.1c1.5,0,1.9-2.5,1.9-4S440.3,290.4,438.8,290.4z"/>
</g>
<g>
	<g>
		<path class="st26" d="M277.9,140.3l-62.1,17.8c0.3,0.4,0.7,0.6,1.1,0.9c0.9,0.5,1.7,0.7,2.6,0.5l8.5-2.4l5.1-1.5l3.5-1l17.1-4.9
			l8.2-2.3l13.1-3.8c1.1-0.4,1.8-1.1,2.4-2.1C277.7,141.1,277.8,140.7,277.9,140.3"/>
		<path class="st50" d="M215.8,158.1l62.1-17.8c0.1-0.6,0.1-1.3-0.1-1.9v-0.1l-63,18.1v0.2C215.1,157.1,215.4,157.6,215.8,158.1"/>
	</g>
	<polygon class="st62" points="258.7,143.8 258.2,142.2 255.5,143 254.3,145.1 	"/>
	<polygon class="st28" points="261.5,110.3 262.4,111.8 263.2,111.3 262.3,109.8 261.4,108.2 260.5,106.8 259.7,107.3 260.5,108.7 	
		"/>
	<polygon class="st26" points="260.5,108.7 232.1,125.9 232.6,127.6 261.5,110.3 	"/>
	<polygon class="st25" points="263.9,108.9 267.6,106.6 267.9,105.4 266.7,105.1 261.4,108.2 	"/>
	<polygon class="st49" points="261.4,108.2 262.3,109.8 263.9,108.9 	"/>
	<polygon class="st49" points="219.2,108.6 226.1,106.6 233,104.7 232.1,101.5 225.2,103.4 218.3,105.4 	"/>
	<path class="st29" d="M221.4,109.4l3.7-1.1l0.9-1.7l-6.9,2l0.4,1.3L221.4,109.4z M227.1,110.1l1.3-0.4l-0.2-0.8l1.5-0.4l5.1,2.8
		l0.1-0.2l-1.5-5.1l-0.4-1.3l-6.9,2L227.1,110.1z"/>
	<polygon class="st34" points="227.1,110.1 228.4,114.8 232.1,113.8 233.5,113.4 234.7,111.3 229.6,108.4 228.1,108.9 228.4,109.7 	
		"/>
	<polygon class="st28" points="225.2,103.4 232.1,101.5 226.4,98.3 223.9,99 	"/>
	<polygon class="st25" points="218.3,105.4 225.2,103.4 223.9,99 221.4,99.8 	"/>
	<polygon class="st31" points="221.4,109.4 222.9,114.4 225.2,115.7 228.4,114.8 227.1,110.1 226.1,106.6 225.2,108.3 	"/>
	<path class="st25" d="M249.1,143.7l2.5,1.4l2.2-4l-3.8,1.1L249.1,143.7z M238.7,127.5l8,4.4l1-1.7l0,0l2.9-5.3l1.7-3.1l-8-4.4
		l-3.1-1.7l1,3.5l0.4,1.3l-2.5,4.4L238.7,127.5z"/>
	<polygon class="st28" points="242,144.4 244.7,143.6 246.3,144.5 247.1,147.1 252.5,145.5 251.6,145 249.1,143.7 245.1,141.5 
		249.6,133.5 246.7,131.9 238.7,127.5 237.7,129.3 240.5,138.9 245.1,141.5 243.3,142 	"/>
	<path class="st35" d="M247.1,147.1l-0.8-2.6l-1.6-0.9l-2.7,0.8l-1,0.3l-2.8,5L247.1,147.1z M249.1,143.7l0.9-1.6l3.8-1.1l3.8-1.1
		l-0.7-2.3l-7.4-4.1l-4.5,8L249.1,143.7z"/>
	<polygon class="st39" points="257.6,139.9 253.8,141 251.6,145 252.5,145.5 258.7,143.7 	"/>
	<g>
		<path class="st28" d="M238.4,86.2l1.2,4.2l4.6-1.3l3.1-5.6l-8.9,2.6L238.4,86.2L238.4,86.2z M239.2,102.9l-2.5,0.7l0.5,1.8
			l-3.7,1.1l4.7,16.4l3.7-1.1l-4.7-16.4l0,0c1.4-0.2,2.6-0.3,3.8-0.1l1.9-3.4L239.2,102.9z"/>
		<path class="st35" d="M237.2,105.4l4.7,16.4l-3.7,1.1l0.8,2.7l3.7-1.1l0.9-0.3l8.8-2.5l-1.7-6.1c-1.3-4.9-3.5-8-6.5-9.5
			c-1-0.5-2-0.8-3.1-0.9C239.8,105.1,238.5,105.1,237.2,105.4L237.2,105.4z"/>
	</g>
	<path class="st25" d="M239.6,90.4l-1.2-4.2l-2.6,4.8l3.4,11.9l3.7-1.1L239.6,90.4z M233.5,106.4l3.7-1.1l-0.5-1.8l-3.7,1.1
		L233.5,106.4z"/>
	<polygon class="st28" points="265.2,118.1 264.8,116.4 264.3,114.7 263.4,115 263.8,116.6 264.3,118.4 264.8,120.1 265.7,119.8 	
		"/>
	<polygon class="st49" points="264.8,116.4 265.3,118.1 267,117.6 	"/>
	<polygon class="st25" points="264.8,116.4 267,117.6 271.2,116.4 271.8,115.3 270.7,114.7 	"/>
	<g>
		<path class="st26" d="M264.3,118.4l-0.5-1.7l-36.5,10.5c-0.2,0.1-0.4,0.2-0.5,0.4c-0.1,0.2-0.1,0.4-0.1,0.7
			c0.1,0.2,0.2,0.4,0.4,0.5s0.4,0.1,0.7,0.1L264.3,118.4z"/>
		<path class="st39" d="M231.9,124.2l1.3,4.7l6.1-1.8c1-0.3,1.8-0.9,2.3-1.8s0.7-1.8,0.4-2.9l-2.8-9.6c-0.8,0.2-1.5,0.7-1.9,1.3
			c-0.2,0.3-0.3,0.5-0.4,0.6c-0.5,0.9-0.6,1.9-0.3,2.9l1.4,4.8L231.9,124.2z"/>
	</g>
	<polygon class="st31" points="231.7,123.5 229,128.3 229.5,130 233.3,128.9 231.9,124.2 	"/>
	<polygon class="st34" points="229,128.3 231.7,123.5 228,124.6 	"/>
	<g>
		<path class="st63" d="M269.8,131.9c-1.1-0.7-2.4-0.8-3.7-0.4c-1.3,0.4-2.2,1.1-2.9,2.3c-0.2,0.4-0.3,0.8-0.4,1.2
			c-0.5,0-0.9,0-1.4,0.2c-1,0.3-1.8,0.9-2.2,1.7c-0.5,0.9-0.6,1.9-0.3,2.9c0.3,1,0.9,1.8,1.7,2.2c0.9,0.5,1.7,0.6,2.6,0.4h0.1
			l5.6-1.6c1.2-0.4,2.1-1.1,2.7-2.3s0.8-2.4,0.4-3.7C271.8,133.6,271,132.6,269.8,131.9 M277.7,136.3c-0.2-0.5-0.5-0.9-0.9-1.2
			c-0.5-0.3-1-0.4-1.5-0.2c-0.5,0.1-0.9,0.5-1.2,1c-0.2,0.4-0.3,0.9-0.1,1.5c0.1,0.5,0.4,0.9,0.9,1.2c0.5,0.2,1,0.2,1.5,0.1h0.1
			c0.5-0.2,0.9-0.5,1.1-0.9C277.8,137.3,277.9,136.8,277.7,136.3"/>
	</g>
</g>
</svg>
