<svg id="Layer_1" data-name="Layer 1" xmlns="http://www.w3.org/2000/svg" viewBox="0 0 594.44 491.03">
    <defs>
        <style>.cls-1{fill:#8ebfbe;}.cls-2{fill:#fff;}.cls-3{fill:#90b7dc;}.cls-4{fill:#6b6b6b;}.cls-5{fill:#6d6d6d;}.cls-6{fill:#657079;}.cls-7{fill:#a1a7ae;}.cls-8{fill:#303641;}.cls-9{fill:#4e555c;}.cls-10{fill:#797f81;}.cls-11{fill:#cfe0ec;}.cls-12{fill:#985c58;}.cls-13{fill:#6c7072;}.cls-14{fill:#cb7773;}.cls-15{fill:#9a9a95;}.cls-16{fill:#724642;}.cls-17{fill:#aab668;}.cls-18{fill:#444442;}.cls-19{fill:#7c7c7a;}.cls-20{fill:#686866;}.cls-21{fill:#868684;}.cls-22{fill:#f4f2ef;}.cls-23{fill:#555553;}.cls-24{fill:#454947;}.cls-25{fill:#567a9e;}.cls-26{fill:#4f7fb7;}.cls-27{fill:#3d4b5e;}.cls-28{fill:#252d38;}.cls-29{fill:#6195cf;}.cls-30{fill:#343f4f;}.cls-31{fill:#538b51;}.cls-32{fill:#a1a4a7;}.cls-33{fill:#60a25e;}.cls-34{fill:#70ae67;}.cls-35{fill:#bdc0c5;}.cls-36{fill:#cbcbcb;}.cls-37{fill:#437042;}.cls-38{fill:#2d3641;}.cls-39{fill:#de9b2a;}.cls-40{fill:#a3bdd6;}.cls-41{fill:#c9d6e5;}.cls-42{fill:#e2e2ec;}.cls-43{fill:#65a964;}.cls-44{fill:#edeff2;}.cls-45{fill:#61a25e;}.cls-46{fill:#456b96;}.cls-47{fill:#828b8b;}.cls-48{fill:#ba5716;}.cls-49{fill:#e6c332;}.cls-50{fill:#507fb4;}.cls-51{fill:#9ea2a6;}.cls-52{fill:#e2af2e;}.cls-53{fill:#7f8186;}.cls-54{fill:#1d222b;}.cls-55{fill:#98a4a4;}.cls-56{fill:#746859;}.cls-57{fill:#5c4e43;}.cls-58{fill:#cf5f5d;}.cls-59{fill:#d98985;}.cls-60{fill:#848688;}.cls-61{fill:#a1d0ec;}</style>
    </defs>
    <title>Artboard 1</title>
    <rect class="cls-1" y="-6.94" width="594.44" height="497.98"/>
    <path class="cls-2" d="M4.64,209.29h9.3c2,0-1.3,4.7,7.3,6.7s12.6,0,16,0,45.9-2.9,45.9-2.9h10.3s3.7-1.1,8.4,5.5,4.7,11.3,7.3,11.6,9.7,0,14.6,0,6.7-2.3,8.7,3.3,1,9,5.3,9h63.9s6.7-.7,6.7,4.3,3.3,26,3.3,26,2,10.1,4,10.1,4.7,14.2,9.3,14.2,22,4,22,4,8,1.7,12.6,5.3,8.7,6.7,8.7,11.3-.7,9,3.9,9,27.3,2.3,27.3,2.3l14.3,2.7s4.7-.7,4.7,4-4.3,29.8-1.7,30.5,17.6-.3,17.6-.3,5.2.3,14.8.3,30.2,1.5,34.9,1.5h51.3s12,4.6,16.6,23.4c3.3,8.7,6.8,6.8,9.3,8.7s11.5,2.3,16.8,0,40.5-5.6,51.8-4.9,24.6,3.6,26.6,6.5,9.3,8.2,14,8.8,24,0,24,0v11s-21.6-.3-23.8-.7-13.5-3.3-18-8.2c-4.8-5.8-4.8-8.8-8.8-10.2a66.66,66.66,0,0,0-16.1-2.4c-4.3,0-17.1.2-23.1.7s-17.4,1.2-22,3.2-13.2,6.8-16,6.2-10.5.2-15.1-7.2-19.5-14.6-23.8-20.3-8-7.3-14.5-7.5-60.6,0-60.6,0-5.5-.5-14.4-.8c-4.9,0-25.9,4.1-27.4,2.9-9.3.2-3.9-33.8-3.9-37.3-.9-1-31-3.7-31-3.7l-12.8-.8s-6.3-.3-5-12.8c0-4.2-5.3-10.2-14.8-13.5s-22.8-4.8-26-7.7-13.1-22.3-13-23.3c.2,0-3.8-25-3.8-25s2.7-1.8-12-1.7-53.2,3.3-57.9,1-3.3-3.8-3.8-6.5,1.7-5.2-1.7-6.3-9-.8-14.8-.3-11.6-.2-13.8-6.2-10.6-11.5-15.8-12-54.2,4-54.2,4-7.7.7-10.2-2.2-6.8-8.2-8.7-8.7c-1.8.1-3-4.6-3-4.6"/>
    <path class="cls-3" d="M309.64,217.77a6.23,6.23,0,0,1-6.2,6.2h-27.2a6.2,6.2,0,0,1,0-12.4h27.2a6.17,6.17,0,0,1,6.2,6.2"/>
    <rect class="cls-4" x="430.2" y="380.72" width="3.6" height="15.7" transform="translate(-137.33 504.65) rotate(-53.49)"/>
    <rect class="cls-2" x="437.77" y="392.43" width="0.4" height="0.9" transform="translate(-138.44 510.91) rotate(-53.47)"/>
    <path class="cls-2" d="M429.44,386.87l-1.6-1.2.2-.3,1.6,1.2Zm3.2,2.3L431,388l.2-.3,1.6,1.2Zm3.2,2.4-1.6-1.2.2-.3,1.6,1.2Z"/>
    <rect class="cls-4" x="417.81" y="371.52" width="3.6" height="15.7" transform="translate(-134.95 490.97) rotate(-53.49)"/>
    <rect class="cls-2" x="425.36" y="383.21" width="0.4" height="0.9" transform="translate(-135.97 497.61) rotate(-53.51)"/>
    <path class="cls-2" d="M417.14,377.77l-1.6-1.2.2-.3,1.6,1.2Zm3.2,2.3-1.6-1.2.2-.3,1.6,1.2Zm3.1,2.4-1.6-1.2.2-.3,1.6,1.2Z"/>
    <path class="cls-5" d="M385.14,364.67l-.1,2.5v1.6a5.85,5.85,0,0,0,.4,1.9,5.65,5.65,0,0,0,2.7,2.8,4.14,4.14,0,0,0,1.9.5l1.4.1,2.7.2,6,.4-.9-3.7-4.8-.3-2.7-.2-1.4-.1a1.85,1.85,0,0,1-.7-.2,1.76,1.76,0,0,1-.9-1,6.37,6.37,0,0,1-.2-.7,5.38,5.38,0,0,1,.1-1.1l-.1-3.5Z"/>
    <rect class="cls-2" x="398.78" y="372.36" width="0.4" height="0.9" transform="translate(-4.12 741.17) rotate(-85.48)"/>
    <path class="cls-2" d="M395,372.37l1.8.1v.4l-1.8-.1Zm-3.6-.3,1.8.1v.4l-1.8-.1Zm-3.2-.9a3,3,0,0,0,1.5.7l-.1.3a3.81,3.81,0,0,1-1.7-.8Zm-1.3-3a5.08,5.08,0,0,0,.3,1.7l-.3.1a3.8,3.8,0,0,1-.3-1.8Zm.2-3.6-.1,1.8h-.4l.1-1.8Z"/>
    <rect class="cls-2" x="386.67" y="362.16" width="0.9" height="0.4" transform="translate(0.67 725.44) rotate(-86.32)"/>
    <polygon class="cls-4" points="413.14 376.77 398.54 374.57 399.14 370.97 414.44 373.27 413.14 376.77"/>
    <rect class="cls-2" x="413.69" y="374.52" width="0.4" height="0.9" transform="translate(-17.89 729.2) rotate(-81.54)"/>
    <path class="cls-2" d="M403.64,373.67l-2-.3.1-.3,2,.3Zm3.9.6-2-.3.1-.3,2,.3Zm3.9.6-2-.3.1-.3,2,.3Z"/>
    <polygon class="cls-2" points="374.74 358.77 374.84 359.07 375.64 359.07 375.64 358.67 374.74 358.77"/>
    <path class="cls-5" d="M388.44,370l.3-5.3v-1.6a5.85,5.85,0,0,0-.4-1.9,5.65,5.65,0,0,0-2.7-2.8,4.14,4.14,0,0,0-1.9-.5l-1.4-.1-2.7-.2-5.3-.4.2,3.7,4.8.4,2.7.2,1.3.1a1.85,1.85,0,0,1,.7.2,1.76,1.76,0,0,1,.9,1,6.37,6.37,0,0,1,.2.7,5.38,5.38,0,0,1-.1,1.1l-.1,3.8Z"/>
    <rect class="cls-2" x="374.66" y="358.45" width="0.4" height="0.9" transform="translate(-12.46 704.31) rotate(-85.48)"/>
    <path class="cls-2" d="M378.84,359.37l-1.8-.1v-.4l1.8.1Zm3.5.3-1.8-.1v-.4l1.8.1Zm3.3.9a3,3,0,0,0-1.5-.7l.1-.3a3.81,3.81,0,0,1,1.7.8Zm1.2,3a5.08,5.08,0,0,0-.3-1.7l.3-.1a3.8,3.8,0,0,1,.3,1.8Zm-.2,3.6.1-1.8h.4l-.1,1.8Z"/>
    <rect class="cls-4" x="299.91" y="314.39" width="3.6" height="15.7" transform="translate(-40.8 600.74) rotate(-86)"/>
    <polygon class="cls-2" points="308.64 322.87 309.44 322.97 309.54 322.57 308.64 322.57 308.64 322.87"/>
    <path class="cls-2" d="M298.74,322.17l-2-.1v-.4l2,.1Zm3.9.3-2-.1V322l2,.1Zm3.9.3-2-.1v-.4l2,.1Z"/>
    <rect class="cls-4" x="284.68" y="313.34" width="3.6" height="15.7" transform="translate(-53.91 584.57) rotate(-86)"/>
    <polygon class="cls-2" points="293.44 321.77 294.34 321.87 294.34 321.47 293.44 321.47 293.44 321.77"/>
    <path class="cls-2" d="M283.54,321.07l-2-.1v-.4l2,.1Zm3.9.3-2-.1v-.4l2,.1Zm4,.3-2-.1v-.4l2,.1Z"/>
    <rect class="cls-2" x="309.29" y="322.23" width="0.4" height="0.9" transform="translate(-36.58 605.79) rotate(-85.48)"/>
    <path class="cls-5" d="M270.14,309.87l-.3,5.3v1.6a5.85,5.85,0,0,0,.4,1.9,5.65,5.65,0,0,0,2.7,2.8,4.14,4.14,0,0,0,1.9.5l1.4.1,2.7.2,5.3.4.3-3.6-5.3-.4-2.7-.2-1.3-.1a1.85,1.85,0,0,1-.7-.2,1.76,1.76,0,0,1-.9-1,6.37,6.37,0,0,1-.2-.7,5.38,5.38,0,0,1,.1-1.1l.3-5.3Z"/>
    <rect class="cls-2" x="283.57" y="320.41" width="0.4" height="0.9" transform="translate(-58.43 578.5) rotate(-85.49)"/>
    <path class="cls-2" d="M279.84,320.47l1.8.1v.4l-1.8-.1Zm-3.6-.3,1.8.1v.4l-1.8-.1Zm-3.2-.9a3,3,0,0,0,1.5.7l-.1.3a3.81,3.81,0,0,1-1.7-.8Zm-1.3-3a5.08,5.08,0,0,0,.3,1.7l-.3.1a3.8,3.8,0,0,1-.3-1.8Zm.2-3.6-.1,1.8h-.4l.1-1.8Z"/>
    <rect class="cls-2" x="271.46" y="310.3" width="0.9" height="0.4" transform="translate(-55.43 561.87) rotate(-86.31)"/>
    <path class="cls-5" d="M273.64,310.77l1.1-5.2.1-.7c0-.2.1-.5.1-.9a4.57,4.57,0,0,0-.2-2,5.51,5.51,0,0,0-2.2-3.2,3.7,3.7,0,0,0-1.8-.8l-1.3-.3-2.6-.6-5.2-1.2-.8,3.5,5.2,1.2,2.6.6,1.2.3.6.3a2.1,2.1,0,0,1,.8,1.1,1.7,1.7,0,0,1,.1.7,8.91,8.91,0,0,1-.2,1.1l-1.1,5.2Z"/>
    <rect class="cls-2" x="261.58" y="297.51" width="0.4" height="0.9" transform="translate(-87.46 485.95) rotate(-76.99)"/>
    <path class="cls-2" d="M265.64,299l-1.7-.4.1-.3,1.7.4Zm3.4.8-1.7-.4.1-.3,1.7.4Zm3.1,1.4a4.51,4.51,0,0,0-1.4-1l.1-.3a3.27,3.27,0,0,1,1.5,1.1Zm.8,3.2a4.85,4.85,0,0,0,0-1.7l.3-.1a2.77,2.77,0,0,1,0,1.8Zm-.7,3.4.4-1.7.3.1-.4,1.7Z"/>
    <polygon class="cls-2" points="271.64 310.37 272.04 310.47 272.24 309.57 271.84 309.57 271.64 310.37"/>
    <rect class="cls-4" x="252.05" y="288.17" width="3.6" height="15.7" transform="translate(-91.67 476.8) rotate(-77)"/>
    <polygon class="cls-2" points="260.64 297.77 261.54 297.97 261.64 297.57 260.74 297.37 260.64 297.77"/>
    <path class="cls-2" d="M254.84,296.37l-1.9-.4.1-.3,1.9.4Zm3.9.9-1.9-.4.1-.3,1.9.4Z"/>
    <path class="cls-5" d="M215.54,242.17l-.2-5.3v-.7a3.08,3.08,0,0,0-.1-.9,7,7,0,0,0-.6-1.9,5.08,5.08,0,0,0-2.9-2.5,6.28,6.28,0,0,0-1.9-.3h-1.4l-2.7.1-5.3.1.1,3.6,5.3-.1,2.7-.1h1.3a1.7,1.7,0,0,1,.7.1,2.19,2.19,0,0,1,1,.9,1.42,1.42,0,0,1,.2.6,5.38,5.38,0,0,0,.1,1.1l.2,5.3Z"/>
    <polygon class="cls-2" points="200.34 232.37 200.34 232.77 201.24 232.77 201.24 232.37 200.34 232.37"/>
    <path class="cls-2" d="M204.74,232.67h-1.8v-.4h1.8Zm3.6-.1h-1.8v-.4h1.8Zm3.3.6a4.42,4.42,0,0,0-1.6-.6v-.4a4.92,4.92,0,0,1,1.7.6Zm1.6,2.8a3,3,0,0,0-.5-1.6l.3-.2a3.74,3.74,0,0,1,.5,1.8Zm.2,3.6-.1-1.8h.4l.1,1.8Z"/>
    <rect class="cls-2" x="213.43" y="241.26" width="0.4" height="0.9" transform="translate(-9.22 8.48) rotate(-2.23)"/>
    <path class="cls-5" d="M137.54,228.87l-.1-5.3v-.7a3.08,3.08,0,0,0-.1-.9,6,6,0,0,0-.6-1.9,5.3,5.3,0,0,0-2.9-2.6,6.46,6.46,0,0,0-1.9-.4h-9.4v3.6h9.3c.2,0,.5.1.7.1a2.19,2.19,0,0,1,1,.9,1.45,1.45,0,0,1,.2.7v1.1l.1,5.3Z"/>
    <rect class="cls-2" x="122.64" y="218.77" width="0.9" height="0.4"/>
    <path class="cls-2" d="M127,219.17h-1.7v-.4h1.8v.4Zm3.6,0h-1.8v-.4h1.8Zm3.3.6a4.42,4.42,0,0,0-1.6-.6l.1-.4a3.63,3.63,0,0,1,1.7.7Zm1.5,2.9a2.93,2.93,0,0,0-.4-1.6l.3-.2a5.34,5.34,0,0,1,.5,1.8Zm.1,3.6v-1.8h.4v1.8Z"/>
    <rect class="cls-2" x="135.54" y="228.07" width="0.4" height="0.9" transform="translate(-3.12 1.88) rotate(-0.78)"/>
    <path class="cls-5" d="M111.94,210.77l-.1-5.3v-.7a3.08,3.08,0,0,0-.1-.9,6,6,0,0,0-.6-1.9,5.3,5.3,0,0,0-2.9-2.6,6.46,6.46,0,0,0-1.9-.4h-9.4v3.6h9.3c.2,0,.5.1.7.1a2.19,2.19,0,0,1,1,.9,1.45,1.45,0,0,1,.2.7v1.1l.1,5.3Z"/>
    <rect class="cls-2" x="97.04" y="200.67" width="0.9" height="0.4"/>
    <path class="cls-2" d="M101.54,201.07h-1.8v-.4h1.8Zm3.5,0h-1.7v-.4h1.8v.4Zm3.3.7a4.42,4.42,0,0,0-1.6-.6l.1-.4a3.63,3.63,0,0,1,1.7.7Zm1.6,2.9a2.93,2.93,0,0,0-.4-1.6l.3-.2a5.34,5.34,0,0,1,.5,1.8Zm0,3.5v-1.8h.4v1.8Z"/>
    <rect class="cls-2" x="109.94" y="209.97" width="0.4" height="0.9" transform="translate(-2.87 1.53) rotate(-0.78)"/>
    <path class="cls-5" d="M108.24,209.47l.2,5.3v.7a3.08,3.08,0,0,0,.1.9,7,7,0,0,0,.6,1.9,5.08,5.08,0,0,0,2.9,2.5,6.28,6.28,0,0,0,1.9.3h1.4l2.7-.1,5.3-.1-.1-3.6-5.3.1-2.7.1h-1.3a1.7,1.7,0,0,1-.7-.1,2.19,2.19,0,0,1-1-.9,1.42,1.42,0,0,1-.2-.6,5.38,5.38,0,0,0-.1-1.1l-.2-5.3Z"/>
    <polygon class="cls-2" points="122.54 218.77 122.54 219.17 123.44 219.17 123.44 218.77 122.54 218.77"/>
    <path class="cls-2" d="M119,218.87h1.8v.4H119Zm-3.6.1h1.8v.4h-1.8Zm-3.3-.5a4.42,4.42,0,0,0,1.6.6v.4a4.92,4.92,0,0,1-1.7-.6Zm-1.6-2.9a3,3,0,0,0,.5,1.6l-.3.2a3.74,3.74,0,0,1-.5-1.8Zm-.2-3.6.1,1.8H110l-.1-1.8Z"/>
    <rect class="cls-2" x="109.95" y="209.39" width="0.4" height="0.9" transform="matrix(1, -0.04, 0.04, 1, -8.53, 4.7)"/>
    <path class="cls-5" d="M133.84,224.47l.2,5.3v.7a3.08,3.08,0,0,0,.1.9,7,7,0,0,0,.6,1.9,5.08,5.08,0,0,0,2.9,2.5,6.28,6.28,0,0,0,1.9.3h1.4l2.7-.1,5.3-.1-.1-3.6-5.3.1-2.7.1h-1.3a1.7,1.7,0,0,1-.7-.1,2.19,2.19,0,0,1-1-.9,1.42,1.42,0,0,1-.2-.6,5.38,5.38,0,0,0-.1-1.1l-.2-5.3Z"/>
    <polygon class="cls-2" points="148.04 233.87 148.04 234.17 148.94 234.17 148.94 233.87 148.04 233.87"/>
    <path class="cls-2" d="M144.54,234h1.8v.4h-1.8Zm-3.6.1h1.8v.4h-1.8Zm-3.3-.6a4.42,4.42,0,0,0,1.6.6v.4a4.92,4.92,0,0,1-1.7-.6Zm-1.6-2.9a3,3,0,0,0,.5,1.6l-.3.2a3.74,3.74,0,0,1-.5-1.8Zm-.1-3.5.1,1.8h-.4l-.1-1.8Z"/>
    <rect class="cls-2" x="135.45" y="224.39" width="0.4" height="0.9" transform="matrix(1, -0.04, 0.04, 1, -9.13, 5.77)"/>
    <rect class="cls-4" x="148.75" y="231.99" width="15.7" height="3.6" transform="translate(-6.06 4.18) rotate(-1.5)"/>
    <rect class="cls-2" x="163.54" y="233.47" width="0.9" height="0.4" transform="translate(-6.55 4.73) rotate(-1.62)"/>
    <path class="cls-2" d="M151.64,233.77v.4l2-.1v-.4Zm4-.1v.4l2-.1v-.4Zm3.9-.1v.4l2-.1v-.4Z"/>
    <rect class="cls-4" x="43.34" y="200.39" width="15.7" height="3.6" transform="translate(-5.27 1.41) rotate(-1.5)"/>
    <rect class="cls-2" x="58.15" y="201.88" width="0.9" height="0.4" transform="translate(-5.11 1.55) rotate(-1.45)"/>
    <path class="cls-2" d="M46.34,202.17v.4l2-.1v-.4Zm3.9-.1v.4l2-.1V202Zm3.9-.1v.4l2-.1v-.4Z"/>
    <rect class="cls-4" x="0.04" y="201.59" width="15.7" height="3.6" transform="translate(-5.32 0.28) rotate(-1.5)"/>
    <rect class="cls-2" x="14.84" y="202.98" width="0.9" height="0.4" transform="translate(-5.16 0.45) rotate(-1.46)"/>
    <path class="cls-2" d="M3,203.27v.4l2-.1v-.4Zm3.9-.1v.4l2-.1v-.4Zm4-.1v.4l2-.1V203Z"/>
    <rect class="cls-4" x="164.25" y="231.59" width="15.7" height="3.6" transform="translate(-6.05 4.58) rotate(-1.5)"/>
    <rect class="cls-2" x="179.14" y="232.97" width="0.9" height="0.4" transform="translate(-6.51 5.16) rotate(-1.62)"/>
    <path class="cls-2" d="M167.24,233.37v.4l2-.1v-.4Zm3.9-.1v.4l2-.1v-.4Zm4-.1v.4l2-.1v-.4Z"/>
    <rect class="cls-4" x="58.85" y="199.99" width="15.7" height="3.6" transform="translate(-5.26 1.81) rotate(-1.5)"/>
    <rect class="cls-2" x="73.75" y="201.48" width="0.9" height="0.4" transform="translate(-5.09 1.95) rotate(-1.45)"/>
    <path class="cls-2" d="M61.84,201.77v.4l2-.1v-.4Zm3.9-.1v.4l2-.1v-.4Zm4-.1v.4l2-.1v-.4Z"/>
    <rect class="cls-4" x="179.85" y="231.19" width="15.7" height="3.6" transform="translate(-6.03 4.99) rotate(-1.5)"/>
    <rect class="cls-2" x="194.75" y="232.58" width="0.9" height="0.4" transform="translate(-5.84 5.02) rotate(-1.45)"/>
    <path class="cls-2" d="M182.84,232.87v.4l2-.1v-.4Zm3.9-.1v.4l2-.1v-.4Zm4-.1v.4l2-.1v-.4Z"/>
    <rect class="cls-4" x="74.45" y="199.59" width="15.7" height="3.6" transform="translate(-5.24 2.22) rotate(-1.5)"/>
    <rect class="cls-2" x="89.35" y="200.98" width="0.9" height="0.4" transform="translate(-5.08 2.34) rotate(-1.45)"/>
    <path class="cls-2" d="M77.44,201.27v.4l2-.1v-.4Zm3.9-.1v.4l2-.1v-.4Zm4-.1v.4l2-.1V201Z"/>
    <rect class="cls-4" x="14.85" y="201.19" width="15.7" height="3.6" transform="translate(-5.3 0.66) rotate(-1.5)"/>
    <rect class="cls-2" x="14.74" y="202.97" width="0.9" height="0.4" transform="translate(-5.73 0.51) rotate(-1.62)"/>
    <path class="cls-2" d="M17.64,202.87v.4l2-.1v-.4Zm4-.1v.4l2-.1v-.4Zm3.9-.1v.4l2-.1v-.4Z"/>
    <rect class="cls-4" x="190.25" y="230.89" width="15.7" height="3.6" transform="translate(-6.02 5.26) rotate(-1.5)"/>
    <polygon class="cls-2" points="205.04 232.27 205.14 232.67 205.94 232.67 205.94 232.27 205.04 232.27"/>
    <path class="cls-2" d="M193.24,232.67v.4l2-.1v-.4Zm3.9-.2v.4l2-.1v-.4Zm4-.1v.4l2-.1v-.4Z"/>
    <rect class="cls-4" x="84.85" y="199.29" width="15.7" height="3.6" transform="translate(-5.23 2.49) rotate(-1.5)"/>
    <rect class="cls-2" x="99.74" y="200.67" width="0.9" height="0.4" transform="translate(-5.63 2.91) rotate(-1.62)"/>
    <path class="cls-2" d="M87.84,201.07v.4l2-.1V201Zm3.9-.1v.4l2-.1v-.4Zm4-.1v.4l2-.1v-.4Z"/>
    <rect class="cls-4" x="28.04" y="200.79" width="15.7" height="3.6" transform="translate(-5.29 1.01) rotate(-1.5)"/>
    <rect class="cls-2" x="42.85" y="202.28" width="0.9" height="0.4" transform="translate(-5.13 1.17) rotate(-1.46)"/>
    <path class="cls-2" d="M30.94,202.57v.4l2-.1v-.4Zm4-.1v.4l2-.1v-.4Zm3.9-.1v.4l2-.1v-.4Z"/>
    <rect class="cls-4" x="212.03" y="242.16" width="3.6" height="15.7" transform="translate(-7.54 6.65) rotate(-1.75)"/>
    <rect class="cls-2" x="213.43" y="242.06" width="0.4" height="0.9" transform="translate(-7.3 6.63) rotate(-1.75)"/>
    <path class="cls-2" d="M213.84,252.87l.1,2h.4l-.1-2Zm-.2-3.9.1,2h.4l-.1-2Zm-.1-4,.1,2h.4l-.1-2Z"/>
    <rect class="cls-4" x="212.43" y="255.16" width="3.6" height="15.7" transform="translate(-7.94 6.67) rotate(-1.75)"/>
    <rect class="cls-2" x="214.33" y="269.96" width="0.4" height="0.9" transform="translate(-8.15 6.67) rotate(-1.75)"/>
    <path class="cls-2" d="M214.24,266.07l.1,2h.4l-.1-2Zm-.2-4,.1,2h.4l-.1-2Zm-.1-3.9.1,2h.4l-.1-2Z"/>
    <path class="cls-5" d="M212.54,265.17l.3,5.3v.7a3.08,3.08,0,0,0,.1.9,4,4,0,0,0,.7,1.8,6.17,6.17,0,0,0,3,2.5,6.28,6.28,0,0,0,1.9.3l1.4-.1,2.7-.1,5.3-.2-.2-3.6-5.3.2-2.7.1-1.3.1a1.7,1.7,0,0,1-.7-.1,2.19,2.19,0,0,1-1-.9,1.42,1.42,0,0,1-.2-.6,5.38,5.38,0,0,0-.1-1.1l-.3-5.3Z"/>
    <rect class="cls-2" x="226.94" y="274.27" width="0.9" height="0.4" transform="translate(-11.34 9.8) rotate(-2.41)"/>
    <path class="cls-2" d="M223.44,274.47l1.8-.1v.4l-1.8.1Zm-3.6.2,1.8-.1v.4l-1.8.1Zm-3.3-.6a4.42,4.42,0,0,0,1.6.6v.4a4.92,4.92,0,0,1-1.7-.6Zm-1.7-2.8a3,3,0,0,0,.5,1.6l-.3.2a3.45,3.45,0,0,1-.5-1.8Zm-.2-3.5.1,1.8h-.4l-.1-1.8Z"/>
    <polygon class="cls-2" points="214.14 265.07 214.24 265.97 214.54 265.97 214.54 265.07 214.14 265.07"/>
    <path class="cls-5" d="M238.64,283.87l-.3-5.3v-.7a3.08,3.08,0,0,0-.1-.9,4,4,0,0,0-.7-1.8,6.17,6.17,0,0,0-3-2.5,6.28,6.28,0,0,0-1.9-.3l-1.4.1-2.7.1-5.3.3.2,3.6,5.3-.3,2.7-.1,1.3-.1a1.7,1.7,0,0,1,.7.1,1.76,1.76,0,0,1,1,.9,1.42,1.42,0,0,1,.2.6c0,.1.1.7.1,1.1l.3,5.3Z"/>
    <rect class="cls-2" x="223.25" y="274.49" width="0.9" height="0.4" transform="translate(-12.85 10.98) rotate(-2.73)"/>
    <path class="cls-2" d="M227.74,274.67l-1.8.1v-.4l1.8-.1Zm3.5-.2-1.8.1v-.4l1.8-.1Zm3.4.5a4.42,4.42,0,0,0-1.6-.6V274a4.92,4.92,0,0,1,1.7.6Zm1.6,2.8a3,3,0,0,0-.5-1.6l.3-.2a3.45,3.45,0,0,1,.5,1.8Zm.2,3.6-.1-1.8h.4l.1,1.8Z"/>
    <rect class="cls-2" x="236.65" y="283.08" width="0.4" height="0.9" transform="translate(-16.72 14.85) rotate(-3.47)"/>
    <path class="cls-5" d="M234.94,283.37l.3,5.3v.7a3.08,3.08,0,0,0,.1.9,4,4,0,0,0,.7,1.8,6.17,6.17,0,0,0,3,2.5c.6.2,3.4.8,3.4.8l2.6.5,5.1,1.2.2-3.7-4.5-1.1-4.3-.9a5.28,5.28,0,0,1-1.2-.3,2.19,2.19,0,0,1-1-.9,1.42,1.42,0,0,1-.2-.6,5.38,5.38,0,0,0-.1-1.1l-.3-5.3Z"/>
    <path class="cls-2" d="M238.94,292.27a4.42,4.42,0,0,0,1.6.6v.4a4.92,4.92,0,0,1-1.7-.6Zm-1.6-2.8a3,3,0,0,0,.5,1.6l-.3.2a3.45,3.45,0,0,1-.5-1.8Zm-.2-3.6.1,1.8h-.4l-.1-1.8Z"/>
    <polygon class="cls-2" points="236.64 283.27 236.64 284.07 237.04 284.07 236.94 283.27 236.64 283.27"/>
    <polygon class="cls-2" points="241.64 293.27 243.54 293.77 243.64 293.57 241.64 292.97 241.64 293.27"/>
    <polygon class="cls-2" points="245.34 294.17 247.24 294.67 247.34 294.37 245.44 293.87 245.34 294.17"/>
    <polygon class="cls-6" points="96.54 246.87 99.84 250.87 99.84 255.67 93.34 255.67 93.34 250.87 96.54 246.87"/>
    <rect class="cls-7" x="87.14" y="250.87" width="6.1" height="4.9"/>
    <polygon class="cls-8" points="96.54 246.87 90.24 246.87 87.14 250.87 93.34 250.87 96.54 246.87"/>
    <rect class="cls-9" x="93.34" y="255.67" width="6.5" height="1.7"/>
    <rect class="cls-10" x="87.14" y="255.67" width="6.1" height="1.7"/>
    <rect class="cls-11" x="95.84" y="248.87" width="1.5" height="2"/>
    <path class="cls-2" d="M97.24,250.77h-1.3V249h1.3Zm-1.5.2h1.7v-2.2h-1.7Z"/>
    <rect class="cls-2" x="96.44" y="248.87" width="0.2" height="2"/>
    <rect class="cls-2" x="95.84" y="249.87" width="1.5" height="0.2"/>
    <rect class="cls-11" x="94.24" y="252.57" width="1.5" height="2"/>
    <path class="cls-2" d="M95.64,254.37h-1.3v-1.8h1.3Zm-1.5.2h1.7v-2.2h-1.7Z"/>
    <rect class="cls-2" x="94.94" y="252.57" width="0.2" height="2"/>
    <rect class="cls-2" x="94.24" y="253.47" width="1.5" height="0.2"/>
    <rect class="cls-11" x="89.54" y="252.47" width="1.5" height="2"/>
    <path class="cls-2" d="M90.84,254.37h-1.3v-1.8h1.3Zm-1.4.2h1.7v-2.2h-1.7Z"/>
    <rect class="cls-2" x="90.14" y="252.47" width="0.2" height="2"/>
    <rect class="cls-2" x="89.54" y="253.47" width="1.5" height="0.2"/>
    <polygon class="cls-12" points="102.04 255.67 107.24 260.97 106.94 260.97 106.94 263.17 97.14 263.17 97.14 260.97 96.84 260.97 102.04 255.67"/>
    <rect class="cls-13" x="97.14" y="263.17" width="9.8" height="0.8"/>
    <rect class="cls-14" x="90.34" y="260.97" width="6.8" height="2.1"/>
    <rect class="cls-15" x="90.34" y="263.17" width="6.8" height="0.8"/>
    <polygon class="cls-16" points="90.34 260.97 96.84 260.97 102.04 255.67 95.54 255.67 90.34 260.97"/>
    <rect class="cls-13" x="98.64" y="254.17" width="0.9" height="2.2"/>
    <rect class="cls-11" x="102.64" y="257.97" width="0.8" height="1.2"/>
    <path class="cls-16" d="M102.74,258.07h.6v1h-.6Zm-.1,1.2h1v-1.4h-1Z"/>
    <rect class="cls-11" x="100.74" y="257.97" width="0.8" height="1.2"/>
    <path class="cls-16" d="M100.74,258.07h.6v1h-.6Zm-.1,1.2h1v-1.4h-1Z"/>
    <rect class="cls-11" x="101.04" y="261.27" width="0.8" height="1.2"/>
    <path class="cls-16" d="M101.14,261.37h.6v1h-.6Zm-.2,1.2h1v-1.4h-1Z"/>
    <rect class="cls-11" x="102.24" y="261.27" width="0.8" height="1.2"/>
    <path class="cls-16" d="M102.34,261.37h.6v1h-.6Zm-.2,1.2h1v-1.4h-1Z"/>
    <rect class="cls-11" x="94.54" y="261.27" width="0.8" height="1.2"/>
    <path class="cls-16" d="M94.64,261.37h.6v1h-.6Zm-.2,1.2h1v-1.4h-1Z"/>
    <rect class="cls-11" x="95.74" y="261.27" width="0.8" height="1.2"/>
    <path class="cls-16" d="M95.74,261.37h.6v1h-.6Zm-.1,1.2h1v-1.4h-1Z"/>
    <rect class="cls-11" x="90.94" y="261.27" width="0.8" height="1.2"/>
    <path class="cls-16" d="M91,261.37h.6v1H91Zm-.2,1.2h1v-1.4h-1Z"/>
    <rect class="cls-11" x="92.14" y="261.27" width="0.8" height="1.2"/>
    <path class="cls-16" d="M92.24,261.37h.6v1h-.6Zm-.2,1.2h1v-1.4H92Z"/>
    <polygon class="cls-6" points="113.14 253.77 116.34 257.77 116.34 262.67 109.84 262.67 109.84 257.77 113.14 253.77"/>
    <rect class="cls-7" x="103.74" y="257.77" width="6.1" height="4.9"/>
    <polygon class="cls-8" points="113.14 253.77 106.84 253.77 103.74 257.77 109.84 257.77 113.14 253.77"/>
    <rect class="cls-9" x="109.84" y="262.67" width="6.5" height="1.7"/>
    <rect class="cls-10" x="103.74" y="262.67" width="6.1" height="1.7"/>
    <rect class="cls-11" x="112.34" y="255.77" width="1.5" height="2"/>
    <path class="cls-2" d="M113.74,257.67h-1.3v-1.8h1.3Zm-1.5.2h1.7v-2.2h-1.7Z"/>
    <rect class="cls-2" x="113.04" y="255.77" width="0.2" height="2"/>
    <rect class="cls-2" x="112.34" y="256.77" width="1.5" height="0.2"/>
    <rect class="cls-11" x="110.84" y="259.47" width="1.5" height="2"/>
    <path class="cls-2" d="M112.14,261.27h-1.3v-1.8h1.3Zm-1.4.2h1.7v-2.1h-1.7Z"/>
    <rect class="cls-2" x="111.44" y="259.47" width="0.2" height="2"/>
    <rect class="cls-2" x="110.84" y="260.37" width="1.5" height="0.2"/>
    <rect class="cls-11" x="106.04" y="259.47" width="1.5" height="2"/>
    <path class="cls-2" d="M107.44,261.27h-1.3v-1.8h1.3Zm-1.5.2h1.7v-2.1h-1.7Z"/>
    <rect class="cls-2" x="106.74" y="259.47" width="0.2" height="2"/>
    <rect class="cls-2" x="106.04" y="260.37" width="1.5" height="0.2"/>
    <path class="cls-5" d="M352.64,349.67l-.3,5.3v1.6a5.85,5.85,0,0,0,.4,1.9,5.65,5.65,0,0,0,2.7,2.8,4.14,4.14,0,0,0,1.9.5l1.4.1,1.7-.3L360,358l-1,.2-1.3-.1a1.85,1.85,0,0,1-.7-.2,1.76,1.76,0,0,1-.9-1,6.37,6.37,0,0,1-.2-.7,5.38,5.38,0,0,1,.1-1.1l.3-5.3Z"/>
    <rect class="cls-2" x="354.03" y="350" width="0.9" height="0.4" transform="translate(-17.79 681.42) rotate(-86.31)"/>
    <rect class="cls-2" x="321.03" y="331.58" width="0.9" height="0.4" transform="translate(-30.3 631.25) rotate(-86.31)"/>
    <rect class="cls-2" x="320.98" y="332.96" width="0.9" height="0.4" transform="translate(-32.44 631.63) rotate(-86.17)"/>
    <path class="cls-17" d="M363.64,357.17a7.55,7.55,0,0,1-7.5,7.5h-33.4a7.55,7.55,0,0,1-7.5-7.5v-5.6a7.55,7.55,0,0,1,7.5-7.5h33.4a7.55,7.55,0,0,1,7.5,7.5Z"/>
    <path class="cls-18" d="M325.64,347.17h-19.2l8.9-16.3.1-.3a.6.6,0,0,1,.6-.3.71.71,0,0,1,.6.3l.1.2Z"/>
    <polygon class="cls-19" points="328.34 334.87 328.34 347.47 326.84 349.07 326.84 336.37 328.34 334.87"/>
    <rect class="cls-20" x="320.64" y="336.37" width="6.1" height="12.6"/>
    <polygon class="cls-21" points="328.34 334.87 326.84 336.37 320.64 336.37 322.14 334.97 322.14 334.87 328.34 334.87"/>
    <polygon class="cls-20" points="332.24 345.37 332.24 349.07 327.84 349.07 327.84 344.47 331.34 344.47 331.34 345.37 332.24 345.37"/>
    <rect class="cls-22" x="329.54" y="346.17" width="2.2" height="1"/>
    <polygon class="cls-19" points="332.84 342.97 332.84 343.77 331.34 345.37 331.34 345.37 331.34 344.47 332.74 342.97 332.84 342.97"/>
    <polygon class="cls-21" points="333.84 343.77 332.24 345.37 331.34 345.37 332.84 343.77 333.84 343.77"/>
    <polygon class="cls-19" points="333.84 343.77 333.84 347.47 332.24 349.07 332.24 345.37 333.84 343.77"/>
    <polygon class="cls-21" points="332.74 342.97 331.34 344.47 327.84 344.47 329.34 342.97 332.74 342.97"/>
    <rect class="cls-20" x="320.74" y="330.07" width="0.4" height="6.3"/>
    <path class="cls-18" d="M325,335.47l-.6-1.5,1.5.7a2.36,2.36,0,0,1-.9.8m-1.6.1.7-1.5.6,1.5a4.33,4.33,0,0,0-.5.1,2,2,0,0,1-.8-.1m-1.2-1.1,1.5-.6-.7,1.5a2.36,2.36,0,0,1-.8-.9m1-2.8.6,1.5-1.5-.7a1.76,1.76,0,0,1,.9-.8m1.6-.1-.7,1.5-.6-1.5a4.33,4.33,0,0,0,.5-.1,1.72,1.72,0,0,1,.8.1m1.2,1.1-1.5.6.7-1.5a1.76,1.76,0,0,1,.8.9m-3.9,1.4a1.67,1.67,0,0,1,.1-1.2l1.5.7Zm4,.2-1.5-.7,1.5-.6a1.48,1.48,0,0,1,0,1.3m-.7-3.6a3.08,3.08,0,0,0-1.3-.3,3.34,3.34,0,0,0-2.9,1.8,2.88,2.88,0,0,0-.1,2.4,3.53,3.53,0,0,0,1.6,1.8,3.08,3.08,0,0,0,1.3.3,3.34,3.34,0,0,0,2.9-1.8,3.1,3.1,0,0,0-1.5-4.2"/>
    <polygon class="cls-18" points="330.04 344.47 330.64 344.47 327.04 332.67 326.44 332.87 330.04 344.47"/>
    <polygon class="cls-18" points="320.74 329.37 320.74 330.17 322.84 330.17 322.44 329.77 322.84 329.37 320.74 329.37"/>
    <path class="cls-23" d="M318.44,349h-16.8l7.8-14.3.1-.2a.72.72,0,0,1,1,0l.1.2Z"/>
    <path class="cls-18" d="M309.44,334.67a.35.35,0,0,1,.1-.2Z"/>
    <path class="cls-18" d="M310.64,334.67l-.1-.2c0,.1.1.1.1.2"/>
    <path class="cls-20" d="M304.74,347.57s1.3-3.2,1.9-3.3,1.2-1.4,1.7-3.4c0,0-1.5,2.6-1.8,2.9-.5.1-1.6,2.4-1.8,3.8"/>
    <path class="cls-20" d="M310.54,337.07a39.42,39.42,0,0,0,1.5,4.5c.3.3.8,0,.9.4s2,4.4,2,4.4l-2.2-3.8a1,1,0,0,0-.6-.3c-.3,0-.9-.6-1.6-5.2"/>
    <path class="cls-20" d="M311.44,343.77s-1.6,1.8-2,1.8a2,2,0,0,0-1.7,1.2s.6-.8,1-.8a3.24,3.24,0,0,0,2.7-2.2"/>
    <polygon class="cls-12" points="359.64 339.87 366.84 347.37 366.44 347.37 366.44 350.37 352.74 350.37 352.74 347.37 352.34 347.37 359.64 339.87"/>
    <rect class="cls-13" x="352.74" y="350.37" width="13.7" height="1.1"/>
    <rect class="cls-14" x="343.24" y="347.37" width="9.5" height="3"/>
    <rect class="cls-15" x="343.24" y="350.37" width="9.5" height="1.1"/>
    <polygon class="cls-16" points="343.24 347.37 352.34 347.37 359.64 339.97 350.54 339.97 343.24 347.37"/>
    <polyline class="cls-13" points="354.84 337.77 354.84 340.87 356.14 340.87 356.14 337.77"/>
    <rect class="cls-11" x="360.54" y="343.17" width="1.1" height="1.7"/>
    <path class="cls-16" d="M361.54,344.67h-.9v-1.4h.9Zm-1.2.3h1.4v-1.9h-1.4Z"/>
    <rect class="cls-11" x="357.74" y="343.17" width="1.1" height="1.7"/>
    <path class="cls-16" d="M358.74,344.67h-.9v-1.4h.9Zm-1.1.3H359v-1.9h-1.4Z"/>
    <rect class="cls-11" x="358.24" y="347.77" width="1.1" height="1.7"/>
    <path class="cls-16" d="M359.24,349.27h-.9v-1.4h.9Zm-1.1.2h1.4v-1.9h-1.4Z"/>
    <rect class="cls-11" x="359.84" y="347.77" width="1.1" height="1.7"/>
    <path class="cls-16" d="M360.84,349.27h-.9v-1.4h.9Zm-1.1.2h1.4v-1.9h-1.4Z"/>
    <rect class="cls-11" x="349.14" y="347.77" width="1.1" height="1.7"/>
    <path class="cls-16" d="M350.14,349.27h-.9v-1.4h.9Zm-1.2.2h1.4v-1.9h-1.4Z"/>
    <rect class="cls-11" x="350.74" y="347.77" width="1.1" height="1.7"/>
    <path class="cls-16" d="M351.74,349.27h-.9v-1.4h.9Zm-1.1.2H352v-1.9h-1.4Z"/>
    <rect class="cls-11" x="344.04" y="347.77" width="1.1" height="1.7"/>
    <path class="cls-16" d="M345,349.27h-.9v-1.4h.9Zm-1.1.2h1.4v-1.9h-1.4Z"/>
    <rect class="cls-11" x="345.74" y="347.77" width="1.1" height="1.7"/>
    <path class="cls-16" d="M346.74,349.27h-.9v-1.4h.9Zm-1.2.2h1.4v-1.9h-1.4Z"/>
    <polygon class="cls-6" points="351.44 347.57 355.94 353.17 355.94 359.97 346.84 359.97 346.84 353.17 351.44 347.57"/>
    <rect class="cls-7" x="338.24" y="353.17" width="8.6" height="6.8"/>
    <polygon class="cls-8" points="351.44 347.57 342.54 347.57 338.24 353.17 346.84 353.17 351.44 347.57"/>
    <rect class="cls-9" x="346.84" y="359.97" width="9.1" height="2.3"/>
    <rect class="cls-10" x="338.24" y="359.97" width="8.6" height="2.3"/>
    <rect class="cls-11" x="350.34" y="350.37" width="2.1" height="2.7"/>
    <path class="cls-2" d="M352.24,353h-1.8v-2.5h1.8Zm-2,.3h2.3v-3h-2.3Z"/>
    <rect class="cls-2" x="351.24" y="350.37" width="0.3" height="2.7"/>
    <rect class="cls-2" x="350.34" y="351.77" width="2.1" height="0.3"/>
    <rect class="cls-11" x="348.14" y="355.47" width="2.1" height="2.7"/>
    <path class="cls-2" d="M350.14,358.07h-1.8v-2.5h1.8Zm-2.1.3h2.3v-3H348Z"/>
    <rect class="cls-2" x="349.04" y="355.47" width="0.3" height="2.7"/>
    <rect class="cls-2" x="348.14" y="356.87" width="2.1" height="0.3"/>
    <rect class="cls-11" x="341.54" y="355.47" width="2.1" height="2.7"/>
    <path class="cls-2" d="M343.44,358.07h-1.8v-2.5h1.8Zm-2,.3h2.3v-3h-2.3Z"/>
    <rect class="cls-2" x="342.44" y="355.47" width="0.3" height="2.7"/>
    <rect class="cls-2" x="341.54" y="356.77" width="2.1" height="0.3"/>
    <polygon class="cls-12" points="336.34 346.47 343.64 353.97 343.14 353.97 343.14 356.97 329.44 356.97 329.44 353.97 329.14 353.97 336.34 346.47"/>
    <rect class="cls-13" x="329.44" y="356.97" width="13.7" height="1.1"/>
    <rect class="cls-14" x="319.94" y="353.97" width="9.5" height="3"/>
    <rect class="cls-15" x="319.94" y="356.97" width="9.5" height="1.1"/>
    <polygon class="cls-16" points="319.94 353.97 329.14 353.97 336.34 346.47 327.24 346.47 319.94 353.97"/>
    <polyline class="cls-13" points="331.54 344.37 331.54 347.47 332.84 347.47 332.84 344.37"/>
    <rect class="cls-11" x="337.24" y="349.77" width="1.1" height="1.7"/>
    <path class="cls-16" d="M338.24,351.27h-.9v-1.4h.9Zm-1.2.2h1.4v-1.9H337Z"/>
    <rect class="cls-11" x="334.44" y="349.77" width="1.1" height="1.7"/>
    <path class="cls-16" d="M335.44,351.27h-.9v-1.4h.9Zm-1.1.2h1.4v-1.9h-1.4Z"/>
    <rect class="cls-11" x="334.94" y="354.27" width="1.1" height="1.7"/>
    <path class="cls-16" d="M335.94,355.87H335v-1.4h.9Zm-1.1.2h1.4v-1.9h-1.4Z"/>
    <rect class="cls-11" x="336.64" y="354.27" width="1.1" height="1.7"/>
    <path class="cls-16" d="M337.64,355.87h-.9v-1.4h.9Zm-1.2.2h1.4v-1.9h-1.4Z"/>
    <rect class="cls-11" x="325.84" y="354.27" width="1.1" height="1.7"/>
    <path class="cls-16" d="M326.84,355.87h-.9v-1.4h.9Zm-1.2.2H327v-1.9h-1.4Z"/>
    <rect class="cls-11" x="327.44" y="354.27" width="1.1" height="1.7"/>
    <path class="cls-16" d="M328.44,355.87h-.9v-1.4h.9Zm-1.1.2h1.4v-1.9h-1.4Z"/>
    <rect class="cls-11" x="320.74" y="354.27" width="1.1" height="1.7"/>
    <path class="cls-16" d="M321.74,355.87h-.9v-1.4h.9Zm-1.1.2H322v-1.9h-1.4Z"/>
    <rect class="cls-11" x="322.44" y="354.27" width="1.1" height="1.7"/>
    <path class="cls-16" d="M323.44,355.87h-.9v-1.4h.9Zm-1.1.2h1.4v-1.9h-1.4Z"/>
    <path class="cls-24" d="M328.34,357.17a.58.58,0,0,1-.7.6,1.63,1.63,0,0,0-.6-.3c-.3,0-.7,0-.7-.2,0,0-.2-.1.1-.2-.1.1,1.8,0,1.9.1"/>
    <polygon class="cls-25" points="326.34 360.97 327.44 357.57 327.24 357.57 326.24 360.97 326.34 360.97"/>
    <polygon class="cls-25" points="323.64 358.47 326.94 358.77 327.04 358.67 323.64 358.27 323.64 358.47"/>
    <polygon class="cls-25" points="320.84 361.37 322.84 357.17 322.64 357.07 320.74 361.37 320.84 361.37"/>
    <polygon class="cls-24" points="326.74 361.47 329.34 361.57 329.34 361.37 326.74 361.27 326.74 361.47"/>
    <polygon class="cls-24" points="329.34 361.57 329.34 361.37 326.64 360.17 326.54 360.37 329.34 361.57"/>
    <path class="cls-25" d="M326,361l-3.3-3.7-.2.4,3.1,3.4a2.27,2.27,0,0,1,.4-.1"/>
    <path class="cls-24" d="M325.34,362.07s.1.3-.1.3h-.6v-.3Z"/>
    <polygon class="cls-24" points="324.74 362.07 324.74 362.17 326.24 361.57 326.14 361.47 324.74 362.07"/>
    <path class="cls-24" d="M327.74,362.67l1.4-1.1v-.1l-1.7-.2v.2a1.25,1.25,0,0,0,.3,1.2m1.3.8.2-1.7a.1.1,0,0,1-.1-.1l-1.4,1.1a2.39,2.39,0,0,0,1.3.7m1.5-.4-1.1-1.4h-.1l-.2,1.7h.2a1.31,1.31,0,0,0,1.2-.3m.8-1.3-1.7-.2a.1.1,0,0,1-.1.1l1.1,1.4a2.39,2.39,0,0,0,.7-1.3m0-.1h0m-.4-1.4-1.4,1.1v.1l1.7.2v-.2a1.68,1.68,0,0,0-.3-1.2m-1.3-.8-.2,1.7a.1.1,0,0,1,.1.1l1.4-1.1a2.39,2.39,0,0,0-1.3-.7m-1.5.4,1.1,1.4h.1l.2-1.7h-.2a1.56,1.56,0,0,0-1.2.3m-.8,1.4,1.7.2a.1.1,0,0,1,.1-.1L328,360a1.86,1.86,0,0,0-.7,1.3m2-2.2a2.4,2.4,0,1,1-2.4,2.4,2.37,2.37,0,0,1,2.4-2.4"/>
    <path class="cls-24" d="M318.84,361.47a1.66,1.66,0,0,0,.5,1.2l1.3-1.2v-.1l-1.7-.1a.31.31,0,0,0-.1.2m1.8,1.9.1-1.7a.1.1,0,0,1-.1-.1l-1.3,1.2a2,2,0,0,0,1.3.6m.3,0a1.66,1.66,0,0,0,1.2-.5l-1.2-1.3h-.1l-.1,1.7c.1.1.1.1.2.1m1.9-1.8-1.7-.1a.1.1,0,0,1-.1.1l1.2,1.3a2.62,2.62,0,0,0,.6-1.3m0-.3a1.66,1.66,0,0,0-.5-1.2l-1.3,1.2v.1l1.7.1c.1-.1.1-.1.1-.2m-1.9-1.9-.1,1.7a.1.1,0,0,1,.1.1l1.3-1.2a2.26,2.26,0,0,0-1.3-.6m-.2,0a1.66,1.66,0,0,0-1.2.5l1.2,1.3h.1l.1-1.7a.31.31,0,0,0-.2-.1m-1.9,1.9,1.7.1a.1.1,0,0,1,.1-.1l-1.2-1.3a1.49,1.49,0,0,0-.6,1.3m1.9-2.3a2.45,2.45,0,1,1-2.3,2.6,2.34,2.34,0,0,1,2.3-2.6"/>
    <path class="cls-24" d="M323.34,357.47s.3-.4-.7-.8c0,0,.4-.4.5-.2a.1.1,0,0,0,.1.1s.3.1-.1-.4c0,0-.9.3-.9.6a4.71,4.71,0,0,1,.5.2,2.18,2.18,0,0,1,.5.4v.1c-.1,0,0,.3.1,0"/>
    <path class="cls-24" d="M326,361a.6.6,0,1,1-.6.6.65.65,0,0,1,.6-.6m0,1.4a.7.7,0,1,0-.7-.7.75.75,0,0,0,.7.7"/>
    <path class="cls-26" d="M217.84,263.67h-7.2v-22.6h7.2v13.6c0,.1-.1.3-.1.4a1.09,1.09,0,0,0,.1.5Z"/>
    <polygon class="cls-27" points="210.64 263.67 217.84 263.67 217.84 270.77 214.84 270.77 210.64 270.77 203.54 263.67 210.64 263.67"/>
    <path class="cls-28" d="M210.64,270.77h4.2c1.8.8,2.8,2.4,2.9,4.9v1.1h-14.2v-6Z"/>
    <polygon class="cls-29" points="210.64 241.07 210.64 263.67 203.54 263.67 203.54 263.47 203.54 241.07 210.64 241.07"/>
    <polygon class="cls-30" points="203.54 270.77 203.54 263.67 210.64 270.77 203.54 270.77"/>
    <polygon class="cls-30" points="207.94 196.67 218.74 193.77 219.24 195.87 216.34 196.67 210.54 198.17 207.94 196.67 209.34 202.07 207.34 202.57 206.94 201.27 204.64 201.97 200.14 209.77 199.84 209.57 197.74 201.67 197.24 199.57 207.94 196.67"/>
    <polygon class="cls-31" points="206.64 191.67 217.34 188.77 218.74 193.77 207.94 196.67 197.24 199.57 195.84 194.57 206.64 191.67"/>
    <polygon class="cls-32" points="209.34 202.07 207.94 196.67 210.54 198.17 216.34 196.67 218.44 204.47 216.34 208.07 211.34 209.47 209.34 202.07"/>
    <polygon class="cls-33" points="217.34 188.77 206.64 191.67 204.74 184.77 208.64 183.77 217.34 188.77"/>
    <polygon class="cls-34" points="204.74 184.77 206.64 191.67 195.84 194.57 200.94 185.87 204.74 184.77"/>
    <polygon class="cls-35" points="209.34 202.07 211.34 209.47 205.74 210.97 203.44 211.57 200.14 209.77 204.64 201.97 206.94 201.27 207.34 202.57 209.34 202.07"/>
    <path class="cls-31" d="M211.74,216h6v32.6H196v-17.5c-.1-6.6,1.2-11.7,3.9-15.2h11.8Z"/>
    <path class="cls-33" d="M211.74,210v6h-11.8a15.37,15.37,0,0,1,1.7-1.9,18.76,18.76,0,0,1,4.3-2.8,23.6,23.6,0,0,1,5.8-1.3Z"/>
    <polygon class="cls-34" points="217.74 215.97 211.74 215.97 211.74 209.97 217.74 215.97"/>
    <path class="cls-30" d="M236,236a2.9,2.9,0,0,1-1,2.3,3,3,0,0,1-2.4,1,3.32,3.32,0,0,1-2.4-5.7,3.65,3.65,0,0,1,4.8,0,3.31,3.31,0,0,1,1,2.4m57.1-34.6,2.5,2.4.2.2h0a3.41,3.41,0,0,1,1.1,2.5v1.8a3.41,3.41,0,0,1-1.1,2.5l-1.8,1.8,3.8,3.8h-9.3l3.8-3.8-1.5-1.5-.2-.2h0a3.36,3.36,0,0,1-1.1-2.3v-.2h-2.2l2.4-2.4a3.81,3.81,0,0,1,1-2Zm-25.7-.3a106,106,0,0,1,24.5-7.7c.1-.1.1-.2.2-.3a1.22,1.22,0,0,1,1.6,0,1.27,1.27,0,0,1,.4.9.91.91,0,0,1-.4.8,1.14,1.14,0,0,1-.8.3,1.45,1.45,0,0,1-.7-.2,102.7,102.7,0,0,0-24.3,7.6,1.18,1.18,0,0,1-.5.5,104.54,104.54,0,0,0-24,15.2h0a1.23,1.23,0,0,1-.5,1,128.1,128.1,0,0,0-25,29.9,1.46,1.46,0,0,1-.9.6,2.46,2.46,0,0,1-1.2-.1,2.55,2.55,0,0,1-.7-1,1.39,1.39,0,0,1,.2-1.1,129.07,129.07,0,0,1,25.6-30.5,1.28,1.28,0,0,1,1-.4h.1a106.06,106.06,0,0,1,24.4-15.5,1.62,1.62,0,0,1,1,0"/>
    <path class="cls-36" d="M217.74,228.77v11.7h2.5q3.15-4.5,6.6-8.7h-5.4v1.1h-3.7Zm9.8,6.9-3.6,4.8h3.6Z"/>
    <path class="cls-37" d="M205.74,219.07h-1.8v15.6a5.78,5.78,0,0,0,1,3.2,6.47,6.47,0,0,0,.8.9v.1l.2.2,9.3,9.3a2.35,2.35,0,0,1,.2-.8c.7-1.1,1.4-2.3,2.2-3.4v-15.4l-8-8c-.1-.1-.4-.3-.8-.6a5.6,5.6,0,0,0-2.9-1c.1-.1-.1-.1-.2-.1"/>
    <path class="cls-38" d="M227.54,231.77h-.7q-3.45,4.2-6.6,8.7h3.7l3.6-4.8Zm-9.8,12.3h0c-.7,1.1-1.4,2.2-2.2,3.4a1.08,1.08,0,0,0-.2.8l.3.3h2.1v-4.5Z"/>
    <polygon class="cls-32" points="221.44 240.47 221.44 232.87 221.44 231.77 227.54 237.77 227.54 240.47 221.44 240.47"/>
    <path class="cls-39" d="M221.44,232.87v7.6h-11.7a5.18,5.18,0,0,1-4-1.8v-.1c-.3-.3-.5-.6-.8-.9a5.09,5.09,0,0,1-1-3.2V219h2.2a5.6,5.6,0,0,1,2.9,1,8.77,8.77,0,0,1,.8.7,5.76,5.76,0,0,1,1.8,4.2v7.8h9.8Z"/>
    <polygon class="cls-35" points="227.54 237.77 221.44 231.77 227.54 231.77 227.54 237.77"/>
    <polygon class="cls-2" points="249.34 294.97 251.14 295.47 251.34 295.17 249.34 294.77 249.34 294.97"/>
    <polygon class="cls-40" points="160.84 379.92 131.64 370.02 157.84 395.62 160.84 379.92"/>
    <polygon class="cls-40" points="150.94 394.92 133.14 388.32 112.74 406.42 130.44 371.82 150.94 394.92"/>
    <polygon class="cls-41" points="139.14 343.02 132.54 364.92 141.94 354.72 139.14 343.02"/>
    <polygon class="cls-40" points="108.34 387.32 124.74 348.62 107.54 370.52 108.34 387.32"/>
    <polygon class="cls-42" points="183.34 357.82 179.84 361.42 174.74 356.42 169.74 361.42 169.74 333.22 183.34 357.82"/>
    <polygon class="cls-43" points="169.74 405.52 169.74 361.42 174.74 356.42 179.84 361.42 183.34 357.82 209.84 405.62 169.74 405.62 169.74 405.52"/>
    <polygon class="cls-44" points="169.74 361.42 159.64 351.42 169.74 333.22 169.74 361.42"/>
    <path class="cls-34" d="M159.64,351.42l10,10v44.1h-25.2c-5.5,0-8.2-2.8-8.2-8.2v-3.4Z"/>
    <path class="cls-36" d="M137.74,402.82l-1.5,2.8h33.5v-.1h-25.2c-3.2,0-5.4-.9-6.8-2.7"/>
    <polygon class="cls-31" points="169.74 385.42 169.74 405.52 169.74 405.62 176.34 405.62 176.34 405.52 189.84 405.52 169.74 385.42"/>
    <path class="cls-45" d="M158.94,374.62v6.7h-9.3l-11.9,21.5c1.3,1.8,3.6,2.7,6.7,2.7h25.3v-20.1Z"/>
    <path class="cls-27" d="M159.74,423h-2.9v-47.1a1.41,1.41,0,0,1,2.4-1,1.91,1.91,0,0,1,.5,1Z"/>
    <polygon class="cls-29" points="159.74 424.52 156.84 424.52 154.24 424.52 154.24 423.02 156.84 423.02 159.74 423.02 162.54 423.02 162.54 424.52 159.74 424.52"/>
    <polygon class="cls-46" points="156.84 424.52 159.74 424.52 159.74 427.32 156.84 424.52"/>
    <polygon class="cls-26" points="156.84 424.52 159.74 427.32 159.74 434.12 158.34 435.52 156.84 434.12 156.84 424.52"/>
    <path class="cls-29" d="M122.24,362.82v14.8l-8.2-8.2v-6.6h8.2Zm6.2,60.1h-14.5v-17.4h16.5v6.6a2,2,0,0,0-1.4.6,2.38,2.38,0,0,0-.6,1.1c0,.1-.1.3-.1.4a1.09,1.09,0,0,0,.1.5Zm2-82.3h-11.3l7.2-7.2h4.1Z"/>
    <path class="cls-26" d="M147,422.92h-14.6v-8.3c0-.2.1-.3.1-.5v-.4a2.38,2.38,0,0,0-.6-1.1,2,2,0,0,0-1.4-.6v-6.6h16.6v17.5Zm0-58.3V378h-8.3v-15.2H147Zm-5.3-24h-11.3v-7.2h4.1Z"/>
    <path class="cls-46" d="M147,386.32l-8.3-8.3H147v8.3Zm-5.3-40.4h-22.6v-5.3h22.6Z"/>
    <path class="cls-30" d="M114,400h33v5.6H114Zm16.4-54.1h11.3v2.2h-9.1l-2.2-2.2v2.2h-11.3v-2.2Z"/>
    <path class="cls-32" d="M146.94,435.42a7.2,7.2,0,0,0-7.3-6.7,6.94,6.94,0,0,0-5.1,2.1,7,7,0,0,0-2.1,4.3V423H147l-.1,12.4Zm-32.9,0h0l-.1-12.5h14.4V435a7,7,0,0,0-2.1-4.3,6.94,6.94,0,0,0-5.1-2.1,7.34,7.34,0,0,0-5.2,2.1,8.16,8.16,0,0,0-1.9,4.7m41.2-57.9,6.1,6.1v2.6h-6.1v-8.7Zm-18.7-18.1h-6.1V346l2.1,2.1h9.2v8.3l-3.1,3Z"/>
    <path class="cls-47" d="M114,435.42a6.61,6.61,0,0,1,2.1-4.6,7.24,7.24,0,0,1,10.2,0,7,7,0,0,1,2.1,4.3v.4H114Zm32.9,0h-14.5V435a7.49,7.49,0,0,1,2-4.3,7.17,7.17,0,0,1,5.2-2.1,6.79,6.79,0,0,1,5.1,2.1,6.91,6.91,0,0,1,2.2,4.7m-16.5-76h6.1v3.3l-6.1,6.1-6-6v-3.5h6Z"/>
    <path class="cls-48" d="M124.54,362.82l-2.3-2.3h2.3Zm14.2-2.3-2.2,2.1v-2.1Z"/>
    <path class="cls-35" d="M115.64,386.32v-8.8h6.6v8.8Zm45.8-2.6-6.2-6.1h6.2Z"/>
    <path class="cls-49" d="M114,364.62v14h1.6l-5.9,6h-.1a5.54,5.54,0,0,1-1.7-3.5c0-.2-.1-.4-.1-.6v-9.8a5.66,5.66,0,0,1,1.8-4.3,5.54,5.54,0,0,1,.8-.6,5.78,5.78,0,0,1,3.6-1.2m16.4,35.4h-16.5v-13.6h8.2v-8.8l8.2-8.2V400Zm-8.2-39.5,2.3,2.3,6,6,6.1-6.1,2.2-2.1v8.2h-16.4v-8.3Z"/>
    <path class="cls-39" d="M115.64,378.62v7.7h-2.1a5.48,5.48,0,0,1-3.8-1.8Zm6.6-9.8h16.4V378l8.3,8.3v13.6h-16.6v-30.7l-8.2,8.2v-8.6ZM147,378v-13.4a6.06,6.06,0,0,1,3.5,1.1,2.7,2.7,0,0,1,.8.7,5.82,5.82,0,0,1,1.8,4.3v7.9h2.2v7.7h-2.2a5.45,5.45,0,0,1-4.2-1.8,5.6,5.6,0,0,1-1.8-4.2V378Z"/>
    <polygon class="cls-50" points="115.64 378.62 114.04 378.62 114.04 369.32 122.24 377.52 115.64 377.52 115.64 378.62"/>
    <path class="cls-27" d="M128.44,414.62c0-.2-.1-.3-.1-.5s0-.3.1-.4Zm4.1-.8v.3a1.09,1.09,0,0,1-.1.5Z"/>
    <path class="cls-51" d="M209.54,378.92a12.55,12.55,0,0,0-9.1-3.8,12.73,12.73,0,0,0-7.4,2.3h-3.4l.1-.1a14.64,14.64,0,0,1,10.7-4.4,14.8,14.8,0,0,1,10.7,4.4,14.41,14.41,0,0,1,4.4,10.7,14.26,14.26,0,0,1-2.2,7.9l-.1-7.5.1-.4v-.3a12.44,12.44,0,0,0-3.8-8.8"/>
    <path class="cls-52" d="M200.34,388.12l9.2-9.2a12.68,12.68,0,0,1,3.8,8.8v.3l-.1.4a12.35,12.35,0,0,1-3.7,8.7l-.1.1-7.2-7.2Z"/>
    <path class="cls-53" d="M191.24,379l-1.6-1.6H193c-.6.5-1.2,1-1.8,1.6h0m11,23.9,7.1-5.5.1-.1.1-.1a12,12,0,0,0,3.7-8.7l.1,7.5a19.33,19.33,0,0,1-2.2,2.8l-.1.1a15.37,15.37,0,0,1-1.9,1.7c-.1.1-.2.1-.3.2l-5,3.9Z"/>
    <path class="cls-49" d="M209.54,378.92l-9.2,9.2-9.1-9.1.1-.1c.6-.6,1.1-1,1.7-1.5a12.91,12.91,0,0,1,16.5,1.5"/>
    <path class="cls-38" d="M164.14,410.22l14.2,14.2a9.59,9.59,0,0,1-4.2,1.7l-11.8-11.8a10.1,10.1,0,0,1,1.8-4.1m5.1-6.6,15.6,15.6-3.3,2.6-14.8-14.9Zm18.9,13.1-16.3-16.3,2.5-3.3,17.1,17.1Zm-3.6-32.8,11.9,12-2.9,2.9-11.6-11.6Zm8.7,26.2-16.3-16.3,2.5-3.3,13.8,13.8v-5.2a14.25,14.25,0,0,0,2.8,2.2l5.2,5.2-3.2,2.6-4.8-4.8v5.8l1.5,1.5-1.5,1.2Zm-2-31.1,9.1,9.1,1.9,1.9-2.9,2.9L187,380.72l.8-1a12.39,12.39,0,0,1,1.8-2.2Z"/>
    <path class="cls-44" d="M193.54,398.82l2.9-2.9,2.9-2.9,2.9-2.9v12.8a11.7,11.7,0,0,1-6.2-1.6,14.25,14.25,0,0,1-2.8-2.2Z"/>
    <path class="cls-27" d="M162.44,414.32l11.8,11.8a9.7,9.7,0,0,1-1.7.1,9.82,9.82,0,0,1-7.2-3,9.36,9.36,0,0,1-2.9-7.2,4.84,4.84,0,0,1,0-1.7m1.7-4.1a4,4,0,0,1,1-1.2l1.6-2,14.9,14.9-2.1,1.6c-.4.3-.7.7-1.1,1Zm7.7-9.9,16.3,16.3-3.2,2.5-15.6-15.6Zm2.5-3.2,2.5-3.3,16.3,16.3v2.7l-1.8,1.4Zm5.1-6.6,2.5-3.3,11.6,11.6-.3.3v5.2Zm5.1-6.6,2.5-3.3,12.3,12.3-2.9,2.9Z"/>
    <path class="cls-54" d="M198,409.12l-3.3,2.5-1.5-1.5v-5.8Zm3.2-2.6-5.2-5.2a12.2,12.2,0,0,0,6.2,1.6l1.6,1.6Z"/>
    <path class="cls-39" d="M202.24,390l7.2,7.2-.1.1-7.1,5.5Z"/>
    <path class="cls-29" d="M207,411.32l-2.3-2.3H207Zm-17.6-2.3v2.3l-2.3-2.3Z"/>
    <path class="cls-35" d="M207,414.92V409c0-.8.4-1.3,1.2-1.3h5.4c.8,0,1.2.4,1.2,1.3v5.9H207Zm-19.9-5.9v5.9h-7.9V409c0-.8.4-1.3,1.2-1.3h5.4a1.16,1.16,0,0,1,1.3,1.3m2.3,2.3V409c0-.8.4-1.3,1.2-1.3h12.9c.8,0,1.2.4,1.2,1.3v5.9h-15.3v-3.6Z"/>
    <path class="cls-26" d="M189.44,414.92v5.9h-2.3V409l2.3,2.3Zm17.6,5.9h-2.3V409l2.3,2.3v9.5Z"/>
    <path class="cls-51" d="M189.44,420.82v-5.9h15.3v5.9a1.06,1.06,0,0,1-1.2,1.2h-12.9a1.06,1.06,0,0,1-1.2-1.2m-2.3,0a1.06,1.06,0,0,1-1.2,1.2h-5.4a1.06,1.06,0,0,1-1.2-1.2v-5.9h7.9v5.9Zm19.9-5.9h7.9v5.9a1.06,1.06,0,0,1-1.2,1.2h-5.4a1.06,1.06,0,0,1-1.2-1.2v-5.9Z"/>
    <path class="cls-35" d="M185.24,423.42a4.39,4.39,0,0,1,2.7.9h0l.3.3a4,4,0,0,1,1.2,2.9v1.4c-.1,0-.1-.1-.2-.1a5.17,5.17,0,0,0-3.2-1.1,2.77,2.77,0,0,0-.9.1v-4.4Zm-13,1h0a3.94,3.94,0,0,1,2.7-1v4.4a2.77,2.77,0,0,0-.9-.1,5.17,5.17,0,0,0-3.2,1.1c-.1,0-.1.1-.2.1v-1.4a4,4,0,0,1,1.2-2.9c.2-.1.3-.1.4-.2"/>
    <path class="cls-27" d="M170.14,438.12h7.8a3.6,3.6,0,0,1-1.1,2.1,3.69,3.69,0,0,1-2.8,1.1,4.11,4.11,0,0,1-2.8-1.1,3.6,3.6,0,0,1-1.1-2.1m19.9,0a3.6,3.6,0,0,1-1.1,2.1,3.69,3.69,0,0,1-2.8,1.1,4.11,4.11,0,0,1-2.8-1.1,3.6,3.6,0,0,1-1.1-2.1Zm-2.1-13.7h0a3.94,3.94,0,0,0-2.7-1,4.39,4.39,0,0,0-2.7.9h0v-.4h0a2.56,2.56,0,0,1,.8-1.9,2.73,2.73,0,0,1,1.9-.8,2.56,2.56,0,0,1,1.9.8,3,3,0,0,1,.8,1.7v.7Zm-10.7,8.5v-5.7h5.7v5.7Zm.4-8.5h0a3.94,3.94,0,0,0-2.7-1,4.39,4.39,0,0,0-2.7.9h0v-.7a2.14,2.14,0,0,1,.8-1.7,2.7,2.7,0,0,1,4.6,1.9h0Z"/>
    <path class="cls-29" d="M182.24,438.12a3.6,3.6,0,0,0,1.1,2.1,3.69,3.69,0,0,0,2.8,1.1,4.11,4.11,0,0,0,2.8-1.1,3.6,3.6,0,0,0,1.1-2.1,1.27,1.27,0,0,0,.1.6v.2a4,4,0,0,1-1.1,2.7,3.69,3.69,0,0,1-2.8,1.1,4.11,4.11,0,0,1-2.8-1.1,3.36,3.36,0,0,1-1.1-2.4v-.8a.37.37,0,0,1-.1-.3m-3.1,1.2v-1.2a4.65,4.65,0,0,0-.9-2.3,4.35,4.35,0,0,1-.6-.7A4.19,4.19,0,0,0,176,434a4.51,4.51,0,0,0-1.1-.3,2.77,2.77,0,0,0-.9-.1,4.48,4.48,0,0,0-2,.4,3.55,3.55,0,0,0-1.6,1.1,4.35,4.35,0,0,0-.6.7,4.76,4.76,0,0,0-.9,2.9v-5.9a4.91,4.91,0,0,1,1.5-3.6l.3-.3c.1,0,.1-.1.2-.1a5.17,5.17,0,0,1,3.2-1.1,2.77,2.77,0,0,1,.9.1,4.78,4.78,0,0,1,2.3,1v4.1l1.9,1.9v4.1a.6.6,0,0,0-.1.4m-9-1.2a3.6,3.6,0,0,0,1.1,2.1,3.69,3.69,0,0,0,2.8,1.1,4.11,4.11,0,0,0,2.8-1.1,3.6,3.6,0,0,0,1.1-2.1v1.1a4.42,4.42,0,0,1-1.1,2.4,3.69,3.69,0,0,1-2.8,1.1,4.11,4.11,0,0,1-2.8-1.1,3.86,3.86,0,0,1-1.1-2.7v-.8m10.9-3.3,1.9-1.9v-4.1a4,4,0,0,1,2.3-1,2.77,2.77,0,0,1,.9-.1,5.17,5.17,0,0,1,3.2,1.1c.1,0,.1.1.2.1l.3.3a4.91,4.91,0,0,1,1.5,3.6v5.3a4.65,4.65,0,0,0-.9-2.3c-.2-.2-.3-.4-.6-.7a4.19,4.19,0,0,0-1.6-1.1,4.48,4.48,0,0,0-2-.4,2.77,2.77,0,0,0-.9.1c-.4.1-.8.2-1.1.3a7.46,7.46,0,0,0-1.2.7c-.1.1-.3.2-.4.4a4.35,4.35,0,0,0-.6.7,5,5,0,0,0-.9,2.3v-3.3Z"/>
    <path class="cls-26" d="M182.24,438.12v1.1a4.42,4.42,0,0,0,1.1,2.4,3.69,3.69,0,0,0,2.8,1.1,4.11,4.11,0,0,0,2.8-1.1,3.86,3.86,0,0,0,1.1-2.7v-.2a1.27,1.27,0,0,0-.1-.6,3.29,3.29,0,0,0-.7-1.6c-.1-.2-.3-.3-.4-.5a3.69,3.69,0,0,0-2.8-1.1,2.77,2.77,0,0,0-.9.1,3.91,3.91,0,0,0-1.9,1,1.76,1.76,0,0,0-.4.5,4.42,4.42,0,0,0-.6,1.6m-12.1,0a1.27,1.27,0,0,1-.1.6v.2a4,4,0,0,0,1.1,2.7,3.69,3.69,0,0,0,2.8,1.1,4.11,4.11,0,0,0,2.8-1.1,3.36,3.36,0,0,0,1.1-2.4v-1.1a3.29,3.29,0,0,0-.7-1.6c-.1-.2-.3-.3-.4-.5a3.69,3.69,0,0,0-2.8-1.1,4.11,4.11,0,0,0-2.8,1.1,1.76,1.76,0,0,0-.4.5,4.42,4.42,0,0,0-.6,1.6m9,1.2a4.8,4.8,0,0,1-1.5,3.1,5.07,5.07,0,0,1-7.2,0,4.69,4.69,0,0,1-1.5-3.5v-.2a5,5,0,0,1,.9-2.9c.2-.2.3-.4.6-.7A4.19,4.19,0,0,1,172,434a4.48,4.48,0,0,1,2-.4,2.77,2.77,0,0,1,.9.1c.4.1.8.2,1.1.3a4.19,4.19,0,0,1,1.6,1.1,4.35,4.35,0,0,1,.6.7,5,5,0,0,1,.9,2.3v1.2Zm1.9,0v-1.2a4.65,4.65,0,0,1,.9-2.3,4.35,4.35,0,0,0,.6-.7l.4-.4a3.75,3.75,0,0,1,1.2-.7l1.1-.3a2.77,2.77,0,0,1,.9-.1,4.48,4.48,0,0,1,2,.4,3.55,3.55,0,0,1,1.6,1.1,4.35,4.35,0,0,1,.6.7,5,5,0,0,1,.9,2.3v.8a4.69,4.69,0,0,1-1.5,3.5,5.07,5.07,0,0,1-7.2,0,4.8,4.8,0,0,1-1.5-3.1"/>
    <path class="cls-30" d="M190,438.12h-7.8a3.29,3.29,0,0,1,.7-1.6c.1-.2.3-.3.4-.5a3.23,3.23,0,0,1,1.9-1,2.77,2.77,0,0,1,.9-.1,4.11,4.11,0,0,1,2.8,1.1,1.76,1.76,0,0,1,.4.5,3.29,3.29,0,0,1,.7,1.6m-12.1,0h-7.8a3.29,3.29,0,0,1,.7-1.6c.1-.2.3-.3.4-.5a3.69,3.69,0,0,1,2.8-1.1,4.11,4.11,0,0,1,2.8,1.1,1.76,1.76,0,0,1,.4.5,3.29,3.29,0,0,1,.7,1.6m5-5.2-1.9,1.9h-1.9l-1.9-1.9Z"/>
    <path class="cls-55" d="M182.94,428.82v-1.6H181a3,3,0,0,1,.2-1,3.07,3.07,0,0,1,1-1.5l.3-.3h0a4.19,4.19,0,0,1,2.7-.9v4.4a4.14,4.14,0,0,0-2.3.9m-5.7,0a4,4,0,0,0-2.3-1v-4.4a4.39,4.39,0,0,1,2.7.9h0l.3.3a4,4,0,0,1,1,1.5,3.55,3.55,0,0,1,.2,1h-1.9Z"/>
    <polygon class="cls-56" points="399.79 393.72 395.89 390.72 399.99 388.02 399.79 393.72"/>
    <path class="cls-56" d="M400.29,394.72l-5.4-4.1,5.6-3.7Zm-3.5-4,2.6,2,.1-3.7Z"/>
    <polygon class="cls-56" points="286.39 387.32 290.39 390.22 286.29 393.02 286.39 387.32"/>
    <path class="cls-56" d="M285.79,394l.1-7.8,5.4,4Zm1.1-5.7V392l2.6-1.8Z"/>
    <path class="cls-57" id="polse" d="M395.49,391.42c0-5.2-3.6-9.5-8.1-9.5h-88.2c-4.5,0-8.1,4.2-8.1,9.5,55.7.3,39.8,0,104.4,0"/>
    <path class="cls-56" id="polsenede" d="M395.49,389.72a8.07,8.07,0,0,1-8.1,8.1h-88.2a8.07,8.07,0,0,1-8.1-8.1c55.7-.2,39.8,0,104.4,0"/>
    <path class="cls-56" d="M387.29,398.82h-88.2a8.7,8.7,0,0,1,0-17.4h88.2a8.7,8.7,0,1,1,0,17.4Zm-88.2-16.3a7.6,7.6,0,1,0,0,15.2h88.2a7.6,7.6,0,1,0,0-15.2Z"/>
    <path class="cls-58" d="M430.33,279.58a5.93,5.93,0,0,1-.5,2.3c-.5,1.1-1,2.1-1.4,2.8a.1.1,0,0,1-.1.1c-.3.6-.6,1.1-.8,1.5a9.22,9.22,0,0,0-.5.8c-.4.4-.7.6-1,.5-.7-.1-1.1-1.5-1.1-3.3v-.4a6.6,6.6,0,0,1,.1-1.4c0-.4.1-.8.1-1.2a12.42,12.42,0,0,1,1.7-5.2c.6-.9,1.3-1.2,1.8-1.1.7,0,1.7,2.3,1.7,4.6"/>
    <polygon class="cls-59" points="415.53 319.88 417.93 317.48 420.73 319.78 420.33 315.48 415.23 316.08 415.53 319.88"/>
    <path class="cls-58" d="M414.63,285.88c4.4-.5,6.2,1.8,6.7,6.3a7.8,7.8,0,0,1,0,3.4l-1,20-2.6.3-2.6.3-5.1-19.4a7.67,7.67,0,0,1-.7-3.4c-.4-4.5.9-7.1,5.3-7.5"/>
    <path class="cls-58" d="M374,311.38c-.6,1.5-.3,3.1,1.2,3.7s2.3-.5,3-2l3.1-4.8a2.86,2.86,0,0,0-1.5-3.8A2.9,2.9,0,0,0,376,306Z"/>
    <path class="cls-58" d="M376.83,317.88c.8,1.1.7.1,1.7-.6l1.1,1.4a2.29,2.29,0,0,0,.7-3.2l-2.8-3.8a2.29,2.29,0,0,0-3.2-.6,2.24,2.24,0,0,0-.4,3.2Z"/>
    <path class="cls-58" d="M374,306.58a3.8,3.8,0,0,0,7.6,0v-7.5a3.8,3.8,0,0,0-7.6,0Z"/>
    <path class="cls-58" d="M366.33,289.58s-3,12.4,10.1,20.5l5.1-3.5a5.64,5.64,0,0,1,6-5.5l-9.8-11.5Z"/>
    <path class="cls-58" d="M373.83,311.78a5.27,5.27,0,0,0-1.3-4.7l7.9-10.4v10.7Z"/>
    <polygon class="cls-59" points="375.53 320.18 378.13 318.08 380.63 320.18 380.63 316.38 375.53 316.38 375.53 320.18"/>
    <path class="cls-59" d="M416.33,279.78v21.3h-48.1v-23h.7l44.9,1.6Z"/>
    <path class="cls-59" d="M379.83,289.58a14.92,14.92,0,0,1-.2,2.1,11.08,11.08,0,0,1-1.3,3.6,6.73,6.73,0,0,1-.7,1.1c-.2.3-.5.6-.7.9a11.41,11.41,0,0,1-1.1,1.1,10.38,10.38,0,0,1-1.7,1.2,7.22,7.22,0,0,1-2,.9c-.4.1-.8.3-1.2.4a10.68,10.68,0,0,1-2.5.3h-.7a13.28,13.28,0,0,1-3-.6,11.49,11.49,0,0,1-7.7-10.9,10.7,10.7,0,0,1,.8-4.1h0a6.72,6.72,0,0,1,.6-1.2c.1-.2.2-.3.3-.5s.3-.5.5-.8a11.38,11.38,0,0,1,9.4-4.9h.7a11.38,11.38,0,0,1,10.5,11.4"/>
    <path class="cls-59" d="M427.83,291.28a8.25,8.25,0,0,1-.4,2.8,9.11,9.11,0,0,1-5,5.7,6.94,6.94,0,0,1-1.3.5,11,11,0,0,1-2.6.6,14.77,14.77,0,0,1-2.1.1h-.5a12.08,12.08,0,0,1-4.7-1.2c-.1,0-.2-.1-.3-.1-.7-.4-1.4-.9-2.1-1.4a11.05,11.05,0,0,1-3.1-4.3,1.42,1.42,0,0,1-.2-.6,11.64,11.64,0,0,1-.6-3.8c0-5.6,2.9-9.6,9-9.9a21.75,21.75,0,0,1,2.5.1,12.66,12.66,0,0,1,2.8.6,8.49,8.49,0,0,1,2.2.9h0a23.92,23.92,0,0,1,2.1,1.3,8.63,8.63,0,0,1,1.4,1.3l.2.2a5.55,5.55,0,0,1,.6.8,10.46,10.46,0,0,1,1.3,2.3,10,10,0,0,1,.8,4.1"/>
    <path class="cls-59" d="M364.43,311.38c-.6,1.5-.3,3.1,1.2,3.7s2.3-.5,3-2l3.1-4.8a2.89,2.89,0,1,0-5.3-2.3Z"/>
    <path class="cls-59" d="M371.13,316.58a2.43,2.43,0,0,1-1.1,2l-1.1-1.4c-1,.7-.9,1.7-1.7.6l-1.2-1.4h0l-1.7-2.1a2.69,2.69,0,0,1-.5-1.5,2.2,2.2,0,0,1,.6-1.5.1.1,0,0,1,.1-.1c.1-.1.1-.1.2-.1a2.3,2.3,0,0,1,1.4-.4,2.23,2.23,0,0,1,1.8,1l.9,1.2,1.9,2.6a3.55,3.55,0,0,1,.4.9v.2"/>
    <path class="cls-59" d="M364.53,306.58a3.8,3.8,0,0,0,7.6,0v-7.5a3.8,3.8,0,0,0-7.6,0Z"/>
    <path class="cls-59"  id="gris" d="M378.13,301.08a4.1,4.1,0,0,0-1.1.1.9.9,0,0,0-.5.1h0a4.84,4.84,0,0,0-1.8.7.31.31,0,0,1-.2.1c-.1.1-.3.2-.4.3a6.34,6.34,0,0,0-2,4.2H372l-.1.1-1,.7-3.9,2.7h0a14.63,14.63,0,0,1-1.3-.9c-.1-.1-.2-.1-.3-.2a23.28,23.28,0,0,1-2.3-1.9h0a19.09,19.09,0,0,1-6.2-17.5h11.5l6.4,7.5,1.1,1.3.8.9.7.8.4.5Z"/>
    <path class="cls-59" d="M370.83,296.78v10.6l-3.9,2.7h0l-.8.5-1.8,1.2h0a2,2,0,0,0,.1-.5,5.19,5.19,0,0,0-1.4-4.2h0l1.6-2.1,3-4,.2-.3.5-.6Z"/>
    <polygon class="cls-58" points="371.13 316.38 371.13 320.18 368.53 318.08 367.63 318.88 366.03 320.18 366.03 316.38 371.13 316.38"/>
    <polygon class="cls-58" points="406.03 319.78 408.83 317.98 411.13 320.48 411.23 316.58 406.13 315.88 406.03 319.78"/>
    <path class="cls-59" d="M412.83,286.38c4.4.6,5.6,3.2,5,7.7a8.44,8.44,0,0,1-.8,3.3l-5.8,19.2-2.6-.4-2.6-.4-.3-20a9.79,9.79,0,0,1,.1-3.4c.7-4.4,2.6-6.6,7-6"/>
    <path class="cls-59" d="M425.43,296.48a28.81,28.81,0,0,1-10.8,8.7l-4.2-3.8,7.1-15.1Z"/>
    <path class="cls-59" d="M405.93,305.18a61.48,61.48,0,0,1-25.3-4.1l7.8-11.5,22,4.9Z"/>
    <path class="cls-58" d="M405.93,305.18s-1.9-5.4-.3-8.4c0,0-2.7,4.8-.8,8.5Z"/>
    <path class="cls-59" d="M429.53,290.88l-1.6,3.2-.8,1.7a3.45,3.45,0,0,1-.9,1.2,5.85,5.85,0,0,1-1.7,1,5.39,5.39,0,0,1-3.1.1,6.53,6.53,0,0,1-2.2-.8l-1.4-.7-.2-.1-1.1-.5-.7-.4a8.32,8.32,0,0,1-1.8-1.3c-1.9-1.7-2.6-4.2-1.6-6.1l.9-1.7.2-.4,1.4-2.8a4.36,4.36,0,0,1,1.6-1.7,6,6,0,0,1,2.7-.7,9.69,9.69,0,0,1,2.3.3h0a4.23,4.23,0,0,1,1.4.6l1,.2,1.2.3,1.2.3a7.4,7.4,0,0,1,2.3,2c.1.1.2.3.3.4a9.93,9.93,0,0,1,1.2,3.1,7.71,7.71,0,0,1-.6,2.8"/>
    <path class="cls-59" d="M432.93,293.08c0,1.5,1.2,4,2.7,4h3.2c1.5,0,1.9-2.5,1.9-4s-.4-2.7-1.9-2.7h-3.2a2.69,2.69,0,0,0-2.7,2.7"/>
    <path class="cls-59" d="M429.83,288.18s1.2,1.7,5.7,2.2l3.2,6.7s-4.7.3-5.9,1.6a17.68,17.68,0,0,1-14.2,3l-3.5-17.8,6.2-2.7Z"/>
    <path class="cls-59" d="M438.83,290.38s-6-.9-12.7-7.7l-9.7,12.6,20.8-2.2Z"/>
    <path class="cls-58" d="M437.33,295a1.87,1.87,0,0,0,2.1,2.1c.9,0,1.7-1.5,1.7-3.3s-.7-3.3-1.7-3.3-2.1,2.6-2.1,4.5"/>
    <path class="cls-59" d="M423.73,281.78c0,.1-.1.1-.1.2s-.2.3-.2.5-.1.2-.1.3c-1.8,3.6-2.4,4.9-3.4,4.8h-.1a1,1,0,0,1-.5-.6,10.57,10.57,0,0,1-.4-4.7c0-.4.1-.8.1-1.2v-.2a4.33,4.33,0,0,1,.1-.5c.8-4.4,2.4-5.6,3.3-5.5,1.1.1,2.7,4.2,1.3,6.9"/>
    <path class="cls-58" d="M374.43,302.08s3.9-2.2,1.7-9.3c0,0,3.1,4.2.4,8.4Z"/>
    <path class="cls-59" d="M360.93,282a5,5,0,0,1-1.5,1.7h0a3.1,3.1,0,0,1-1.3.6,4.18,4.18,0,0,1-3.1-.2c-.1-.1-.3-.1-.4-.2a3.13,3.13,0,0,1-1.1-.9,3.92,3.92,0,0,1-.8-1.4,3.67,3.67,0,0,1,.3-2.9,2.85,2.85,0,0,1,1.9-1.5,3.32,3.32,0,0,1,2.4.3,2.62,2.62,0,0,1,1,3.6.45.45,0,0,1-.8-.4,1.68,1.68,0,0,0-.7-2.4,2.25,2.25,0,0,0-1.8-.2,2.59,2.59,0,0,0-1.4,1.1,2.65,2.65,0,0,0-.2,2.3,2.69,2.69,0,0,0,1.5,1.8,3.91,3.91,0,0,0,3,.3,3,3,0,0,0,1-.4,3,3,0,0,0,1.3-1.4.48.48,0,0,1,.6-.2c.2-.1.2.2.1.4"/>
    <path class="cls-59" d="M359.43,283.68l-1.9,1.8h0s-3.3-1.1-4.1-2.5l.3-.3,2.7,1.3,1.9-.2Z"/>
    <path class="cls-27" d="M277.86,140.27l-62.1,17.8a4.81,4.81,0,0,0,1.1.9,3.52,3.52,0,0,0,2.6.5l8.5-2.4,5.1-1.5,3.5-1,17.1-4.9,8.2-2.3,13.1-3.8a4.49,4.49,0,0,0,2.4-2.1,3.08,3.08,0,0,0,.5-1.2"/>
    <path class="cls-47" d="M215.76,158.07l62.1-17.8a4.08,4.08,0,0,0-.1-1.9v-.1l-63,18.1v.2a13,13,0,0,0,1,1.5"/>
    <polygon class="cls-60" points="258.66 143.77 258.16 142.17 255.46 142.97 254.26 145.07 258.66 143.77"/>
    <polygon class="cls-29" points="261.46 110.27 262.36 111.77 263.16 111.27 262.26 109.77 261.36 108.17 260.46 106.77 259.66 107.27 260.46 108.67 261.46 110.27"/>
    <polygon class="cls-27" points="260.46 108.67 232.06 125.87 232.56 127.57 261.46 110.27 260.46 108.67"/>
    <polygon class="cls-26" points="263.86 108.87 267.56 106.57 267.86 105.37 266.66 105.07 261.36 108.17 263.86 108.87"/>
    <polygon class="cls-46" points="261.36 108.17 262.26 109.77 263.86 108.87 261.36 108.17"/>
    <polygon class="cls-46" points="219.16 108.57 226.06 106.57 232.96 104.67 232.06 101.47 225.16 103.37 218.26 105.37 219.16 108.57"/>
    <path class="cls-30" d="M221.36,109.37l3.7-1.1.9-1.7-6.9,2,.4,1.3Zm5.7.7,1.3-.4-.2-.8,1.5-.4,5.1,2.8.1-.2-1.5-5.1-.4-1.3-6.9,2Z"/>
    <polygon class="cls-35" points="227.06 110.07 228.36 114.77 232.06 113.77 233.46 113.37 234.66 111.27 229.56 108.37 228.06 108.87 228.36 109.67 227.06 110.07"/>
    <polygon class="cls-29" points="225.16 103.37 232.06 101.47 226.36 98.27 223.86 98.97 225.16 103.37"/>
    <polygon class="cls-26" points="218.26 105.37 225.16 103.37 223.86 98.97 221.36 99.77 218.26 105.37"/>
    <polygon class="cls-32" points="221.36 109.37 222.86 114.37 225.16 115.67 228.36 114.77 227.06 110.07 226.06 106.57 225.16 108.27 221.36 109.37"/>
    <path class="cls-26" d="M249.06,143.67l2.5,1.4,2.2-4-3.8,1.1Zm-10.4-16.2,8,4.4,1-1.7h0l2.9-5.3,1.7-3.1-8-4.4-3.1-1.7,1,3.5.4,1.3-2.5,4.4Z"/>
    <polygon class="cls-29" points="241.96 144.37 244.66 143.57 246.26 144.47 247.06 147.07 252.46 145.47 251.56 144.97 249.06 143.67 245.06 141.47 249.56 133.47 246.66 131.87 238.66 127.47 237.66 129.27 240.46 138.87 245.06 141.47 243.26 141.97 241.96 144.37"/>
    <path class="cls-49" d="M247.06,147.07l-.8-2.6-1.6-.9-2.7.8-1,.3-2.8,5Zm2-3.4.9-1.6,3.8-1.1,3.8-1.1-.7-2.3-7.4-4.1-4.5,8Z"/>
    <polygon class="cls-39" points="257.56 139.87 253.76 140.97 251.56 144.97 252.46 145.47 258.66 143.67 257.56 139.87"/>
    <path class="cls-29" d="M238.36,86.17l1.2,4.2,4.6-1.3,3.1-5.6-8.9,2.6Zm.8,16.7-2.5.7.5,1.8-3.7,1.1,4.7,16.4,3.7-1.1-4.7-16.4h0a12.26,12.26,0,0,1,3.8-.1l1.9-3.4Z"/>
    <path class="cls-49" d="M237.16,105.37l4.7,16.4-3.7,1.1.8,2.7,3.7-1.1.9-.3,8.8-2.5-1.7-6.1c-1.3-4.9-3.5-8-6.5-9.5a8.51,8.51,0,0,0-3.1-.9,12.8,12.8,0,0,0-3.9.2Z"/>
    <path class="cls-26" d="M239.56,90.37l-1.2-4.2-2.6,4.8,3.4,11.9,3.7-1.1Zm-6.1,16,3.7-1.1-.5-1.8-3.7,1.1Z"/>
    <polygon class="cls-29" points="265.16 118.07 264.76 116.37 264.26 114.67 263.36 114.97 263.76 116.57 264.26 118.37 264.76 120.07 265.66 119.77 265.16 118.07"/>
    <polygon class="cls-46" points="264.76 116.37 265.26 118.07 266.96 117.57 264.76 116.37"/>
    <polygon class="cls-26" points="264.76 116.37 266.96 117.57 271.16 116.37 271.76 115.27 270.66 114.67 264.76 116.37"/>
    <path class="cls-27" d="M264.26,118.37l-.5-1.7-36.5,10.5a1,1,0,0,0-.5.4,1.48,1.48,0,0,0-.1.7,1,1,0,0,0,.4.5,1.48,1.48,0,0,0,.7.1Z"/>
    <path class="cls-39" d="M231.86,124.17l1.3,4.7,6.1-1.8a3.79,3.79,0,0,0,2.3-1.8,3.64,3.64,0,0,0,.4-2.9l-2.8-9.6a3.28,3.28,0,0,0-1.9,1.3,5.93,5.93,0,0,1-.4.6,3.67,3.67,0,0,0-.3,2.9l1.4,4.8Z"/>
    <polygon class="cls-32" points="231.66 123.47 228.96 128.27 229.46 129.97 233.26 128.87 231.86 124.17 231.66 123.47"/>
    <polygon class="cls-35" points="228.96 128.27 231.66 123.47 227.96 124.57 228.96 128.27"/>
    <path class="cls-61" d="M269.76,131.87a4.35,4.35,0,0,0-3.7-.4,4.76,4.76,0,0,0-2.9,2.3,5.64,5.64,0,0,0-.4,1.2,3.4,3.4,0,0,0-1.4.2,3.52,3.52,0,0,0-2.2,1.7,3.67,3.67,0,0,0-.3,2.9,3.52,3.52,0,0,0,1.7,2.2,3.46,3.46,0,0,0,2.6.4h.1l5.6-1.6a4.39,4.39,0,0,0,2.7-2.3,4.78,4.78,0,0,0,.4-3.7,4.22,4.22,0,0,0-2.2-2.9m7.9,4.4a2.73,2.73,0,0,0-.9-1.2,1.63,1.63,0,0,0-1.5-.2,2,2,0,0,0-1.2,1,1.89,1.89,0,0,0-.1,1.5,1.78,1.78,0,0,0,.9,1.2,2.57,2.57,0,0,0,1.5.1h.1a2,2,0,0,0,1.1-.9,2,2,0,0,0,.1-1.5"/>
</svg>